<svg xmlns="http://www.w3.org/2000/svg" width="1600" height="1075" viewBox="0 0 1600 1075" role="img" aria-label="Eesti kontuurkaart pehmendatud">
<title>Eesti kontuurkaart pehmendatud</title>
<path d="M 450.50 247.50 C 450.06 249.31, 448.31 255.88, 449.00 260.00 C 449.69 264.12, 455.06 275.62, 456.00 280.50 C 456.94 285.38, 458.81 293.62, 456.50 299.00 C 454.19 304.38, 440.19 317.50, 437.50 323.50 C 434.81 329.50, 434.38 342.75, 435.00 347.00 C 435.62 351.25, 438.69 354.31, 442.50 357.50 C 446.31 360.69, 461.81 370.69, 465.50 372.50 C 469.19 374.31, 470.00 373.75, 472.00 372.00 C 474.00 370.25, 479.94 360.06, 481.50 358.50 C 483.06 356.94, 483.56 358.75, 484.50 359.50 C 485.44 360.25, 488.19 362.88, 489.00 364.50 C 489.81 366.12, 491.38 371.25, 491.00 372.50 C 490.62 373.75, 491.69 373.88, 486.00 374.50 C 480.31 375.12, 451.88 376.44, 445.50 377.50 C 439.12 378.56, 436.12 379.44, 435.00 383.00 C 433.88 386.56, 435.06 400.19, 436.50 406.00 C 437.94 411.81, 445.19 426.12, 446.50 429.50 C 447.81 432.88, 448.75 430.69, 447.00 433.00 C 445.25 435.31, 434.88 444.44, 432.50 448.00 C 430.12 451.56, 427.94 459.19, 428.00 461.50 C 428.06 463.81, 430.56 465.88, 433.00 466.50 C 435.44 467.12, 439.06 468.44, 447.50 466.50 C 455.94 464.56, 492.69 452.88, 500.50 451.00 C 508.31 449.12, 508.38 451.12, 510.00 451.50 C 511.62 451.88, 512.62 453.06, 513.50 454.00 C 514.38 454.94, 516.69 458.00, 517.00 459.00 C 517.31 460.00, 516.75 461.12, 516.00 462.00 C 515.25 462.88, 515.81 465.06, 511.00 466.00 C 506.19 466.94, 483.94 468.25, 477.50 469.50 C 471.06 470.75, 462.88 473.50, 459.50 476.00 C 456.12 478.50, 451.94 485.19, 450.50 489.50 C 449.06 493.81, 448.19 501.19, 448.00 510.50 C 447.81 519.81, 448.44 556.75, 449.00 564.00 C 449.56 571.25, 449.31 566.81, 452.50 568.50 C 455.69 570.19, 469.75 574.44, 474.50 577.50 C 479.25 580.56, 488.12 585.31, 490.50 593.00 C 492.88 600.69, 492.44 631.00, 493.50 639.00 C 494.56 647.00, 496.00 652.94, 499.00 657.00 C 502.00 661.06, 509.44 668.00, 517.50 671.50 C 525.56 675.00, 554.62 680.25, 563.50 685.00 C 572.38 689.75, 584.31 705.94, 588.50 709.50 C 592.69 713.06, 594.31 713.19, 597.00 713.50 C 599.69 713.81, 604.88 714.38, 610.00 712.00 C 615.12 709.62, 634.31 696.94, 638.00 694.50 C 641.69 692.06, 638.00 696.50, 639.50 692.50 C 641.00 688.50, 647.81 667.38, 650.00 662.50 C 652.19 657.62, 655.69 654.62, 657.00 653.50 C 658.31 652.38, 657.56 652.81, 660.50 653.50 C 663.44 654.19, 676.12 656.50, 680.50 659.00 C 684.88 661.50, 693.44 671.31, 695.50 673.50 C 697.56 675.69, 696.88 674.81, 697.00 676.50 C 697.12 678.19, 699.00 680.81, 696.50 687.00 C 694.00 693.19, 679.50 714.56, 677.00 726.00 C 674.50 737.44, 676.94 770.44, 676.50 778.50 C 676.06 786.56, 677.94 779.25, 673.50 790.50 C 669.06 801.75, 645.19 856.56, 641.00 868.50 C 636.81 880.44, 639.81 883.38, 640.00 886.00 C 640.19 888.62, 641.31 888.69, 642.50 889.50 C 643.69 890.31, 646.25 892.31, 649.50 892.50 C 652.75 892.69, 665.75 891.50, 668.50 891.00 C 671.25 890.50, 669.88 890.69, 671.50 888.50 C 673.12 886.31, 675.12 877.56, 681.50 873.50 C 687.88 869.44, 714.50 860.44, 722.50 856.00 C 730.50 851.56, 741.25 840.62, 745.50 838.00 C 749.75 835.38, 754.00 834.69, 756.50 835.00 C 759.00 835.31, 763.06 839.81, 765.50 840.50 C 767.94 841.19, 768.75 844.62, 776.00 840.50 C 783.25 836.38, 815.50 812.56, 823.50 807.50 C 831.50 802.44, 836.81 800.88, 840.00 800.00 C 843.19 799.12, 847.12 799.88, 849.00 800.50 C 850.88 801.12, 852.06 800.69, 855.00 805.00 C 857.94 809.31, 868.88 831.25, 872.50 835.00 C 876.12 838.75, 881.25 836.12, 884.00 835.00 C 886.75 833.88, 893.19 829.94, 894.50 826.00 C 895.81 822.06, 894.12 806.56, 894.50 803.50 C 894.88 800.44, 896.62 801.38, 897.50 801.50 C 898.38 801.62, 893.56 796.19, 901.50 804.50 C 909.44 812.81, 952.19 859.50, 961.00 868.00 C 969.81 876.50, 967.88 872.25, 972.00 872.50 C 976.12 872.75, 990.75 870.12, 994.00 870.00 C 997.25 869.88, 995.75 868.12, 998.00 871.50 C 1000.25 874.88, 1009.12 892.94, 1012.00 897.00 C 1014.88 901.06, 1014.50 902.75, 1021.00 904.00 C 1027.50 905.25, 1058.06 905.81, 1064.00 907.00 C 1069.94 908.19, 1067.94 909.56, 1068.50 913.50 C 1069.06 917.44, 1064.50 932.19, 1068.50 938.50 C 1072.50 944.81, 1094.44 957.31, 1100.50 964.00 C 1106.56 970.69, 1112.19 985.50, 1117.00 992.00 C 1121.81 998.50, 1128.81 1007.50, 1139.00 1016.00 C 1149.19 1024.50, 1190.38 1054.44, 1198.50 1060.00 C 1206.62 1065.56, 1192.44 1067.56, 1204.00 1060.50 C 1215.56 1053.44, 1279.88 1010.62, 1291.00 1003.50 C 1302.12 996.38, 1280.62 997.12, 1293.00 1003.50 C 1305.38 1009.88, 1376.50 1047.88, 1390.00 1054.50 C 1403.50 1061.12, 1398.50 1056.94, 1401.00 1056.50 C 1403.50 1056.06, 1408.56 1052.62, 1410.00 1051.00 C 1411.44 1049.38, 1412.50 1047.00, 1412.50 1043.50 C 1412.50 1040.00, 1410.25 1026.00, 1410.00 1023.00 C 1409.75 1020.00, 1407.69 1023.00, 1410.50 1019.50 C 1413.31 1016.00, 1429.75 999.19, 1432.50 995.00 C 1435.25 990.81, 1433.69 989.38, 1432.50 986.00 C 1431.31 982.62, 1424.19 970.50, 1423.00 968.00 C 1421.81 965.50, 1421.88 966.81, 1423.00 966.00 C 1424.12 965.19, 1428.25 962.25, 1432.00 961.50 C 1435.75 960.75, 1449.62 961.00, 1453.00 960.00 C 1456.38 959.00, 1458.31 954.88, 1459.00 953.50 C 1459.69 952.12, 1459.75 952.31, 1458.50 949.00 C 1457.25 945.69, 1450.06 930.25, 1449.00 927.00 C 1447.94 923.75, 1448.06 924.56, 1450.00 923.00 C 1451.94 921.44, 1456.00 917.56, 1464.50 914.50 C 1473.00 911.44, 1510.62 901.44, 1518.00 898.50 C 1525.38 895.56, 1522.81 892.75, 1523.50 891.00 C 1524.19 889.25, 1524.94 887.12, 1523.50 884.50 C 1522.06 881.88, 1516.19 874.00, 1512.00 870.00 C 1507.81 866.00, 1493.06 859.44, 1490.00 852.50 C 1486.94 845.56, 1488.19 819.44, 1487.50 814.50 C 1486.81 809.56, 1485.38 813.19, 1484.50 813.00 C 1483.62 812.81, 1482.75 811.75, 1480.50 813.00 C 1478.25 814.25, 1468.62 821.88, 1466.50 823.00 C 1464.38 824.12, 1464.00 822.31, 1463.50 822.00 C 1463.00 821.69, 1462.62 825.69, 1462.50 820.50 C 1462.38 815.31, 1465.75 790.69, 1462.50 780.50 C 1459.25 770.31, 1441.56 748.12, 1436.50 739.00 C 1431.44 729.88, 1424.88 715.25, 1422.00 707.50 C 1419.12 699.75, 1414.56 684.12, 1413.50 677.00 C 1412.44 669.88, 1414.38 654.94, 1413.50 650.50 C 1412.62 646.06, 1411.50 644.94, 1406.50 641.50 C 1401.50 638.06, 1378.38 627.44, 1373.50 623.00 C 1368.62 618.56, 1368.44 614.75, 1367.50 606.00 C 1366.56 597.25, 1366.88 563.00, 1366.00 553.00 C 1365.12 543.00, 1363.06 532.69, 1360.50 526.00 C 1357.94 519.31, 1352.50 507.75, 1345.50 499.50 C 1338.50 491.25, 1310.12 466.19, 1304.50 460.00 C 1298.88 453.81, 1301.00 453.06, 1300.50 450.00 C 1300.00 446.94, 1299.62 440.19, 1300.50 435.50 C 1301.38 430.81, 1305.56 417.31, 1307.50 412.50 C 1309.44 407.69, 1313.19 400.88, 1316.00 397.00 C 1318.81 393.12, 1326.06 384.75, 1330.00 381.50 C 1333.94 378.25, 1339.56 373.50, 1347.50 371.00 C 1355.44 368.50, 1379.25 362.69, 1393.50 361.50 C 1407.75 360.31, 1451.44 361.81, 1461.50 361.50 C 1471.56 361.19, 1471.50 360.06, 1474.00 359.00 C 1476.50 357.94, 1477.75 363.25, 1481.50 353.00 C 1485.25 342.75, 1498.88 292.56, 1504.00 277.00 C 1509.12 261.44, 1519.00 235.81, 1522.50 228.50 C 1526.00 221.19, 1530.38 220.00, 1532.00 218.50 C 1533.62 217.00, 1531.69 216.94, 1535.50 216.50 C 1539.31 216.06, 1558.88 215.31, 1562.50 215.00 C 1566.12 214.69, 1563.56 215.12, 1564.50 214.00 C 1565.44 212.88, 1569.06 208.75, 1570.00 206.00 C 1570.94 203.25, 1570.06 195.31, 1572.00 192.00 C 1573.94 188.69, 1584.75 184.19, 1585.50 179.50 C 1586.25 174.81, 1581.38 160.62, 1578.00 154.50 C 1574.62 148.38, 1562.81 134.31, 1558.50 130.50 C 1554.19 126.69, 1545.69 124.56, 1543.50 124.00 C 1541.31 123.44, 1543.31 122.88, 1541.00 126.00 C 1538.69 129.12, 1529.75 145.12, 1525.00 149.00 C 1520.25 152.88, 1508.94 156.12, 1503.00 157.00 C 1497.06 157.88, 1487.88 157.50, 1477.50 156.00 C 1467.12 154.50, 1441.19 146.38, 1420.00 145.00 C 1398.81 143.62, 1326.94 146.69, 1308.00 145.00 C 1289.06 143.31, 1278.75 137.44, 1268.50 131.50 C 1258.25 125.56, 1232.50 102.06, 1226.00 97.50 C 1219.50 92.94, 1223.06 95.19, 1216.50 95.00 C 1209.94 94.81, 1184.38 97.50, 1173.50 96.00 C 1162.62 94.50, 1139.69 84.75, 1129.50 83.00 C 1119.31 81.25, 1100.69 84.75, 1092.00 82.00 C 1083.31 79.25, 1064.62 63.44, 1060.00 61.00 C 1055.38 58.56, 1055.94 62.06, 1055.00 62.50 C 1054.06 62.94, 1053.06 63.44, 1052.50 64.50 C 1051.94 65.56, 1051.06 69.88, 1050.50 71.00 C 1049.94 72.12, 1049.31 74.12, 1048.00 73.50 C 1046.69 72.88, 1041.94 67.19, 1040.00 66.00 C 1038.06 64.81, 1033.75 64.19, 1032.50 64.00 C 1031.25 63.81, 1030.88 62.44, 1030.00 64.50 C 1029.12 66.56, 1026.31 78.06, 1025.50 80.50 C 1024.69 82.94, 1024.12 83.38, 1023.50 84.00 C 1022.88 84.62, 1021.06 85.44, 1020.50 85.50 C 1019.94 85.56, 1020.19 88.12, 1019.00 84.50 C 1017.81 80.88, 1012.25 60.25, 1011.00 56.50 C 1009.75 52.75, 1011.50 55.94, 1009.00 54.50 C 1006.50 53.06, 994.06 46.00, 991.00 45.00 C 987.94 44.00, 985.75 45.62, 984.50 46.50 C 983.25 47.38, 980.69 47.25, 981.00 52.00 C 981.31 56.75, 986.25 80.00, 987.00 84.50 C 987.75 89.00, 987.50 87.38, 987.00 88.00 C 986.50 88.62, 985.31 90.75, 983.00 89.50 C 980.69 88.25, 972.62 82.69, 968.50 78.00 C 964.38 73.31, 954.19 56.44, 950.00 52.00 C 945.81 47.56, 937.25 43.31, 935.00 42.50 C 932.75 41.69, 932.06 39.44, 932.00 45.50 C 931.94 51.56, 933.56 83.50, 934.50 91.00 C 935.44 98.50, 939.38 103.44, 939.50 105.50 C 939.62 107.56, 937.88 107.06, 935.50 107.50 C 933.12 107.94, 922.94 108.12, 920.50 109.00 C 918.06 109.88, 916.69 112.62, 916.00 114.50 C 915.31 116.38, 915.38 122.56, 915.00 124.00 C 914.62 125.44, 919.62 128.25, 913.00 126.00 C 906.38 123.75, 870.38 108.25, 862.00 106.00 C 853.62 103.75, 848.62 106.69, 846.00 108.00 C 843.38 109.31, 842.00 115.12, 841.00 116.50 C 840.00 117.88, 842.44 118.69, 838.00 119.00 C 833.56 119.31, 809.94 119.25, 805.50 119.00 C 801.06 118.75, 804.69 119.75, 802.50 117.00 C 800.31 114.25, 791.31 100.50, 788.00 97.00 C 784.69 93.50, 778.31 90.00, 776.00 89.00 C 773.69 88.00, 770.56 88.81, 769.50 89.00 C 768.44 89.19, 768.19 89.44, 767.50 90.50 C 766.81 91.56, 763.44 93.00, 764.00 97.50 C 764.56 102.00, 771.00 121.75, 772.00 126.50 C 773.00 131.25, 772.25 133.81, 772.00 135.50 C 771.75 137.19, 770.62 139.12, 770.00 140.00 C 769.38 140.88, 768.12 142.81, 767.00 142.50 C 765.88 142.19, 762.00 140.50, 761.00 137.50 C 760.00 134.50, 759.81 121.44, 759.00 118.50 C 758.19 115.56, 756.06 114.31, 754.50 114.00 C 752.94 113.69, 747.81 115.50, 746.50 116.00 C 745.19 116.50, 745.56 115.12, 744.00 118.00 C 742.44 120.88, 735.56 136.12, 734.00 139.00 C 732.44 141.88, 733.44 141.50, 731.50 141.00 C 729.56 140.50, 722.19 135.12, 718.50 135.00 C 714.81 134.88, 705.50 140.62, 702.00 140.00 C 698.50 139.38, 694.75 131.25, 690.50 130.00 C 686.25 128.75, 671.75 129.56, 668.00 130.00 C 664.25 130.44, 661.69 132.81, 660.50 133.50 C 659.31 134.19, 659.38 132.88, 658.50 135.50 C 657.62 138.12, 654.50 151.56, 653.50 154.50 C 652.50 157.44, 651.19 158.25, 650.50 159.00 C 649.81 159.75, 651.44 160.38, 648.00 160.50 C 644.56 160.62, 626.50 159.75, 623.00 160.00 C 619.50 160.25, 620.12 160.19, 620.00 162.50 C 619.88 164.81, 621.94 176.38, 622.00 178.50 C 622.06 180.62, 623.56 180.69, 620.50 179.50 C 617.44 178.31, 601.69 170.31, 597.50 169.00 C 593.31 167.69, 588.69 168.69, 587.00 169.00 C 585.31 169.31, 584.50 169.56, 584.00 171.50 C 583.50 173.44, 581.44 178.88, 583.00 184.50 C 584.56 190.12, 594.94 212.12, 596.50 216.50 C 598.06 220.88, 596.12 219.06, 595.50 219.50 C 594.88 219.94, 593.50 220.31, 591.50 220.00 C 589.50 219.69, 581.50 217.38, 579.50 217.00 C 577.50 216.62, 578.00 216.31, 575.50 217.00 C 573.00 217.69, 563.62 222.81, 559.50 222.50 C 555.38 222.19, 547.19 215.56, 542.50 214.50 C 537.81 213.44, 525.38 213.62, 522.00 214.00 C 518.62 214.38, 516.75 215.50, 515.50 217.50 C 514.25 219.50, 512.75 228.12, 512.00 230.00 C 511.25 231.88, 510.75 232.75, 509.50 232.50 C 508.25 232.25, 504.00 228.56, 502.00 228.00 C 500.00 227.44, 497.00 226.31, 493.50 228.00 C 490.00 229.69, 478.25 239.69, 474.00 241.50 C 469.75 243.31, 462.19 242.00, 459.50 242.50 C 456.81 243.00, 453.62 244.88, 452.50 245.50 C 451.38 246.12, 450.94 245.69, 450.50 247.50 Z
M 460.50 255.50 C 460.81 254.94, 460.81 254.56, 463.00 254.00 C 465.19 253.44, 473.88 252.94, 478.00 251.00 C 482.12 249.06, 493.38 239.94, 496.00 238.50 C 498.62 237.06, 497.50 238.50, 499.00 239.50 C 500.50 240.50, 506.00 245.62, 508.00 246.50 C 510.00 247.38, 513.94 246.62, 515.00 246.50 C 516.06 246.38, 515.19 248.00, 516.50 245.50 C 517.81 243.00, 524.00 229.19, 525.50 226.50 C 527.00 223.81, 526.25 224.12, 528.50 224.00 C 530.75 223.88, 539.88 224.44, 543.50 225.50 C 547.12 226.56, 553.62 232.19, 557.50 232.50 C 561.38 232.81, 570.12 228.12, 574.50 228.00 C 578.88 227.88, 589.75 231.06, 592.50 231.50 C 595.25 231.94, 594.94 231.81, 596.50 231.50 C 598.06 231.19, 603.81 229.50, 605.00 229.00 C 606.19 228.50, 605.81 229.56, 606.00 227.50 C 606.19 225.44, 607.81 217.75, 606.50 212.50 C 605.19 207.25, 596.88 189.19, 595.50 185.50 C 594.12 181.81, 595.31 183.44, 595.50 183.00 C 595.69 182.56, 593.56 180.81, 597.00 182.00 C 600.44 183.19, 618.44 191.31, 623.00 192.50 C 627.56 193.69, 631.94 192.38, 633.50 191.50 C 635.06 190.62, 635.50 187.69, 635.50 185.50 C 635.50 183.31, 633.38 175.69, 633.50 174.00 C 633.62 172.31, 633.69 172.69, 636.50 172.00 C 639.31 171.31, 652.75 170.06, 656.00 168.50 C 659.25 166.94, 661.25 162.56, 662.50 159.50 C 663.75 156.44, 664.75 146.50, 666.00 144.00 C 667.25 141.50, 670.12 140.06, 672.50 139.50 C 674.88 138.94, 681.69 138.12, 685.00 139.50 C 688.31 140.88, 695.00 149.69, 699.00 150.50 C 703.00 151.31, 712.62 145.62, 717.00 146.00 C 721.38 146.38, 730.88 153.19, 734.00 153.50 C 737.12 153.81, 740.38 150.31, 742.00 148.50 C 743.62 146.69, 746.12 140.31, 747.00 139.00 C 747.88 137.69, 748.38 137.81, 749.00 138.00 C 749.62 138.19, 750.62 138.69, 752.00 140.50 C 753.38 142.31, 757.56 150.88, 760.00 152.50 C 762.44 154.12, 769.19 154.06, 771.50 153.50 C 773.81 152.94, 777.25 149.69, 778.50 148.00 C 779.75 146.31, 781.69 145.12, 781.50 140.00 C 781.31 134.88, 777.38 111.25, 777.00 107.00 C 776.62 102.75, 776.19 103.69, 778.50 106.00 C 780.81 108.31, 792.62 122.69, 795.50 125.50 C 798.38 128.31, 796.94 128.25, 801.50 128.50 C 806.06 128.75, 826.44 127.12, 832.00 127.50 C 837.56 127.88, 843.38 132.75, 846.00 131.50 C 848.62 130.25, 851.88 119.38, 853.00 117.50 C 854.12 115.62, 853.88 116.62, 855.00 116.50 C 856.12 116.38, 856.06 114.19, 862.00 116.50 C 867.94 118.81, 897.00 132.56, 902.50 135.00 C 908.00 137.44, 903.75 135.81, 906.00 136.00 C 908.25 136.19, 918.50 136.56, 920.50 136.50 C 922.50 136.44, 921.44 137.50, 922.00 135.50 C 922.56 133.50, 924.38 122.69, 925.00 120.50 C 925.62 118.31, 924.19 118.38, 927.00 118.00 C 929.81 117.62, 944.19 118.19, 947.50 117.50 C 950.81 116.81, 952.75 114.12, 953.50 112.50 C 954.25 110.88, 954.50 107.00, 953.50 104.50 C 952.50 102.00, 946.56 97.19, 945.50 92.50 C 944.44 87.81, 944.81 70.31, 945.00 67.00 C 945.19 63.69, 946.44 65.88, 947.00 66.00 C 947.56 66.12, 946.56 64.31, 949.50 68.00 C 952.44 71.69, 965.44 91.44, 970.50 95.50 C 975.56 99.56, 986.88 100.31, 990.00 100.50 C 993.12 100.69, 994.56 98.25, 995.50 97.00 C 996.44 95.75, 997.62 95.19, 997.50 90.50 C 997.38 85.81, 994.69 63.50, 994.50 59.50 C 994.31 55.50, 995.38 58.44, 996.00 58.50 C 996.62 58.56, 998.81 59.44, 999.50 60.00 C 1000.19 60.56, 1000.44 59.50, 1001.50 63.00 C 1002.56 66.50, 1005.94 83.56, 1008.00 88.00 C 1010.06 92.44, 1015.56 97.44, 1018.00 98.50 C 1020.44 99.56, 1025.06 98.50, 1027.50 96.50 C 1029.94 94.50, 1036.00 84.19, 1037.50 82.50 C 1039.00 80.81, 1038.50 82.12, 1039.50 83.00 C 1040.50 83.88, 1043.81 88.56, 1045.50 89.50 C 1047.19 90.44, 1051.81 90.56, 1053.00 90.50 C 1054.19 90.44, 1054.00 90.69, 1055.00 89.00 C 1056.00 87.31, 1059.88 78.69, 1061.00 77.00 C 1062.12 75.31, 1062.12 74.38, 1064.00 75.50 C 1065.88 76.62, 1073.00 84.00, 1076.00 86.00 C 1079.00 88.00, 1082.00 90.69, 1088.00 91.50 C 1094.00 92.31, 1113.50 90.75, 1124.00 92.50 C 1134.50 94.25, 1160.69 103.88, 1172.00 105.50 C 1183.31 107.12, 1207.00 104.44, 1214.50 105.50 C 1222.00 106.56, 1226.00 109.62, 1232.00 114.00 C 1238.00 118.38, 1253.44 135.44, 1262.50 140.50 C 1271.56 145.56, 1284.81 152.62, 1304.50 154.50 C 1324.19 156.38, 1398.81 154.00, 1420.00 155.50 C 1441.19 157.00, 1463.50 165.00, 1474.00 166.50 C 1484.50 168.00, 1496.69 168.69, 1504.00 167.50 C 1511.31 166.31, 1527.81 159.56, 1532.50 157.00 C 1537.19 154.44, 1540.06 149.25, 1541.50 147.00 C 1542.94 144.75, 1543.38 140.25, 1544.00 139.00 C 1544.62 137.75, 1545.88 137.19, 1546.50 137.00 C 1547.12 136.81, 1546.25 134.69, 1549.00 137.50 C 1551.75 140.31, 1565.38 154.81, 1568.50 159.50 C 1571.62 164.19, 1573.31 172.69, 1574.00 175.00 C 1574.69 177.31, 1575.50 176.31, 1574.00 178.00 C 1572.50 179.69, 1563.62 185.62, 1562.00 188.50 C 1560.38 191.38, 1561.50 198.94, 1561.00 201.00 C 1560.50 203.06, 1558.62 204.38, 1558.00 205.00 C 1557.38 205.62, 1559.50 205.75, 1556.00 206.00 C 1552.50 206.25, 1535.12 205.25, 1530.00 207.00 C 1524.88 208.75, 1519.00 213.19, 1515.00 220.00 C 1511.00 226.81, 1502.94 246.06, 1498.00 261.50 C 1493.06 276.94, 1479.81 332.31, 1475.50 343.50 C 1471.19 354.69, 1474.88 349.94, 1463.50 351.00 C 1452.12 352.06, 1397.38 351.44, 1384.50 352.00 C 1371.62 352.56, 1366.19 354.19, 1360.50 355.50 C 1354.81 356.81, 1343.75 360.31, 1339.00 362.50 C 1334.25 364.69, 1326.62 369.38, 1322.50 373.00 C 1318.38 376.62, 1309.19 386.94, 1306.00 391.50 C 1302.81 396.06, 1298.88 404.56, 1297.00 409.50 C 1295.12 414.44, 1291.75 425.44, 1291.00 431.00 C 1290.25 436.56, 1290.44 449.69, 1291.00 454.00 C 1291.56 458.31, 1289.88 459.12, 1295.50 465.50 C 1301.12 471.88, 1329.19 497.25, 1336.00 505.00 C 1342.81 512.75, 1347.62 522.06, 1350.00 527.50 C 1352.38 532.94, 1354.06 539.00, 1355.00 548.50 C 1355.94 558.00, 1356.38 593.81, 1357.50 603.50 C 1358.62 613.19, 1361.62 621.38, 1364.00 626.00 C 1366.38 630.62, 1371.69 637.06, 1376.50 640.50 C 1381.31 643.94, 1398.94 651.50, 1402.50 653.50 C 1406.06 655.50, 1404.69 652.25, 1405.00 656.50 C 1405.31 660.75, 1404.25 681.06, 1405.00 687.50 C 1405.75 693.94, 1407.38 699.38, 1411.00 708.00 C 1414.62 716.62, 1428.62 746.50, 1434.00 756.50 C 1439.38 766.50, 1451.50 779.12, 1454.00 788.00 C 1456.50 796.88, 1453.00 821.69, 1454.00 827.50 C 1455.00 833.31, 1459.69 834.00, 1462.00 834.50 C 1464.31 835.00, 1470.81 831.75, 1472.50 831.50 C 1474.19 831.25, 1475.00 830.62, 1475.50 832.50 C 1476.00 834.38, 1475.81 843.25, 1476.50 846.50 C 1477.19 849.75, 1476.75 853.69, 1481.00 858.50 C 1485.25 863.31, 1506.94 881.31, 1510.50 885.00 C 1514.06 888.69, 1510.50 886.88, 1509.50 888.00 C 1508.50 889.12, 1509.00 891.81, 1502.50 894.00 C 1496.00 896.19, 1465.31 902.50, 1457.50 905.50 C 1449.69 908.50, 1442.31 914.94, 1440.00 918.00 C 1437.69 921.06, 1438.06 926.25, 1439.00 930.00 C 1439.94 933.75, 1446.69 945.56, 1447.50 948.00 C 1448.31 950.44, 1448.62 948.81, 1445.50 949.50 C 1442.38 950.19, 1426.69 951.94, 1422.50 953.50 C 1418.31 955.06, 1413.25 959.50, 1412.00 962.00 C 1410.75 964.50, 1411.38 969.88, 1412.50 973.50 C 1413.62 977.12, 1422.69 985.62, 1421.00 991.00 C 1419.31 996.38, 1401.50 1010.06, 1399.00 1016.50 C 1396.50 1022.94, 1401.00 1039.12, 1401.00 1042.50 C 1401.00 1045.88, 1412.69 1049.81, 1399.00 1043.50 C 1385.31 1037.19, 1316.12 991.50, 1291.50 992.00 C 1266.88 992.50, 1213.50 1040.50, 1202.00 1047.50 C 1190.50 1054.50, 1206.31 1052.88, 1199.50 1048.00 C 1192.69 1043.12, 1156.69 1016.31, 1147.50 1008.50 C 1138.31 1000.69, 1131.12 992.38, 1126.00 985.50 C 1120.88 978.62, 1112.38 960.12, 1106.50 953.50 C 1100.62 946.88, 1082.50 938.00, 1079.00 932.50 C 1075.50 927.00, 1079.12 913.44, 1078.50 909.50 C 1077.88 905.56, 1075.94 902.62, 1074.00 901.00 C 1072.06 899.38, 1069.06 897.38, 1063.00 896.50 C 1056.94 895.62, 1030.69 894.81, 1025.50 894.00 C 1020.31 893.19, 1024.00 893.94, 1021.50 890.00 C 1019.00 886.06, 1008.31 866.25, 1005.50 862.50 C 1002.69 858.75, 1003.38 860.31, 999.00 860.00 C 994.62 859.69, 974.38 860.12, 970.50 860.00 C 966.62 859.88, 970.19 860.75, 968.00 859.00 C 965.81 857.25, 958.06 851.69, 953.00 846.00 C 947.94 840.31, 934.31 820.62, 927.50 813.50 C 920.69 806.38, 903.19 792.06, 898.50 789.00 C 893.81 785.94, 891.69 788.31, 890.00 789.00 C 888.31 789.69, 885.62 790.62, 885.00 794.50 C 884.38 798.38, 885.44 816.31, 885.00 820.00 C 884.56 823.69, 882.31 823.50, 881.50 824.00 C 880.69 824.50, 879.19 824.25, 878.50 824.00 C 877.81 823.75, 877.06 824.12, 876.00 822.00 C 874.94 819.88, 872.25 810.62, 870.00 807.00 C 867.75 803.38, 860.69 795.25, 858.00 793.00 C 855.31 790.75, 851.06 789.44, 848.50 789.00 C 845.94 788.56, 841.19 788.44, 837.50 789.50 C 833.81 790.56, 827.00 792.50, 819.00 797.50 C 811.00 802.50, 781.12 826.19, 773.50 829.50 C 765.88 832.81, 761.12 824.62, 758.00 824.00 C 754.88 823.38, 754.00 821.38, 748.50 824.50 C 743.00 827.62, 723.12 843.94, 714.00 849.00 C 704.88 854.06, 681.62 861.12, 675.50 865.00 C 669.38 868.88, 666.56 878.00, 665.00 880.00 C 663.44 882.00, 664.44 880.94, 663.00 881.00 C 661.56 881.06, 654.81 880.69, 653.50 880.50 C 652.19 880.31, 652.62 880.12, 652.50 879.50 C 652.38 878.88, 652.19 877.69, 652.50 875.50 C 652.81 873.31, 650.88 873.00, 655.00 862.00 C 659.12 851.00, 681.56 803.88, 685.50 787.50 C 689.44 771.12, 683.81 743.00, 686.50 731.00 C 689.19 719.00, 704.38 698.81, 707.00 691.50 C 709.62 684.19, 707.94 675.88, 707.50 672.50 C 707.06 669.12, 706.12 667.38, 703.50 664.50 C 700.88 661.62, 690.62 652.19, 686.50 649.50 C 682.38 646.81, 674.81 643.81, 670.50 643.00 C 666.19 642.19, 655.38 641.81, 652.00 643.00 C 648.62 644.19, 644.81 650.81, 643.50 652.50 C 642.19 654.19, 642.94 652.44, 641.50 656.50 C 640.06 660.56, 634.69 680.12, 632.00 685.00 C 629.31 689.88, 623.81 693.38, 620.00 695.50 C 616.19 697.62, 604.12 701.19, 601.50 702.00 C 598.88 702.81, 599.88 702.38, 599.00 702.00 C 598.12 701.62, 598.12 702.25, 594.50 699.00 C 590.88 695.75, 579.00 680.62, 570.00 676.00 C 561.00 671.38, 530.06 665.00, 522.50 662.00 C 514.94 659.00, 511.88 655.50, 509.50 652.00 C 507.12 648.50, 504.62 641.94, 503.50 634.00 C 502.38 626.06, 503.62 596.94, 500.50 588.50 C 497.38 580.06, 483.12 570.06, 478.50 566.50 C 473.88 562.94, 465.94 561.19, 463.50 560.00 C 461.06 558.81, 459.75 561.00, 459.00 557.00 C 458.25 553.00, 457.19 536.00, 457.50 528.00 C 457.81 520.00, 460.19 498.50, 461.50 493.00 C 462.81 487.50, 460.81 486.38, 468.00 484.00 C 475.19 481.62, 511.56 476.12, 519.00 474.00 C 526.44 471.88, 526.31 469.06, 527.50 467.00 C 528.69 464.94, 529.44 460.31, 528.50 457.50 C 527.56 454.69, 522.50 446.56, 520.00 444.50 C 517.50 442.44, 510.44 441.44, 508.50 441.00 C 506.56 440.56, 512.06 439.31, 504.50 441.00 C 496.94 442.69, 455.38 452.94, 448.00 454.50 C 440.62 456.06, 445.75 453.88, 445.50 453.50 C 445.25 453.12, 444.12 453.56, 446.00 451.50 C 447.88 449.44, 458.69 439.75, 460.50 437.00 C 462.31 434.25, 461.81 432.56, 460.50 429.50 C 459.19 426.44, 451.88 417.31, 450.00 412.50 C 448.12 407.69, 445.50 393.94, 445.50 391.00 C 445.50 388.06, 444.06 389.75, 450.00 389.00 C 455.94 388.25, 486.44 386.75, 493.00 385.00 C 499.56 383.25, 501.50 377.81, 502.50 375.00 C 503.50 372.19, 502.56 365.75, 501.00 362.50 C 499.44 359.25, 493.00 350.94, 490.00 349.00 C 487.00 347.06, 480.19 346.00, 477.00 347.00 C 473.81 348.00, 468.06 356.94, 464.50 357.00 C 460.94 357.06, 450.81 349.06, 448.50 347.50 C 446.19 345.94, 446.12 346.94, 446.00 344.50 C 445.88 342.06, 447.12 330.38, 447.50 328.00 C 447.88 325.62, 447.06 327.44, 449.00 325.50 C 450.94 323.56, 460.81 315.25, 463.00 312.50 C 465.19 309.75, 466.06 307.56, 466.50 303.50 C 466.94 299.44, 467.25 285.62, 466.50 280.00 C 465.75 274.38, 461.25 261.56, 460.50 258.50 C 459.75 255.44, 460.19 256.06, 460.50 255.50 Z
M 393.50 595.50 C 391.06 592.50, 385.69 588.06, 381.00 586.00 C 376.31 583.94, 359.38 580.12, 356.00 579.00 C 352.62 577.88, 355.75 580.25, 354.00 577.00 C 352.25 573.75, 346.25 557.81, 342.00 553.00 C 337.75 548.19, 326.56 541.25, 320.00 538.50 C 313.44 535.75, 299.38 531.00, 289.50 531.00 C 279.62 531.00, 247.69 537.81, 241.00 538.50 C 234.31 539.19, 238.81 539.06, 236.00 536.50 C 233.19 533.94, 221.94 520.12, 218.50 518.00 C 215.06 515.88, 212.25 517.38, 208.50 519.50 C 204.75 521.62, 196.38 532.06, 188.50 535.00 C 180.62 537.94, 151.88 540.81, 145.50 543.00 C 139.12 545.19, 138.62 549.81, 137.50 552.50 C 136.38 555.19, 136.88 562.81, 136.50 564.50 C 136.12 566.19, 134.94 565.94, 134.50 566.00 C 134.06 566.06, 133.88 566.38, 133.00 565.00 C 132.12 563.62, 128.81 556.38, 127.50 555.00 C 126.19 553.62, 123.75 554.06, 122.50 554.00 C 121.25 553.94, 119.12 552.81, 117.50 554.50 C 115.88 556.19, 112.31 564.25, 109.50 567.50 C 106.69 570.75, 97.25 577.12, 95.00 580.50 C 92.75 583.88, 92.19 592.44, 91.50 594.50 C 90.81 596.56, 90.00 596.81, 89.50 597.00 C 89.00 597.19, 88.88 598.44, 87.50 596.00 C 86.12 593.56, 80.94 581.25, 78.50 577.50 C 76.06 573.75, 71.12 567.69, 68.00 566.00 C 64.88 564.31, 56.12 563.75, 53.50 564.00 C 50.88 564.25, 48.19 567.50, 47.00 568.00 C 45.81 568.50, 45.44 568.50, 44.00 568.00 C 42.56 567.50, 37.62 564.38, 35.50 564.00 C 33.38 563.62, 28.31 563.38, 27.00 565.00 C 25.69 566.62, 24.94 574.69, 25.00 577.00 C 25.06 579.31, 24.06 579.06, 27.50 583.50 C 30.94 587.94, 47.81 605.88, 52.50 612.50 C 57.19 619.12, 63.44 633.25, 65.00 636.50 C 66.56 639.75, 66.56 636.56, 65.00 638.50 C 63.44 640.44, 55.06 650.69, 52.50 652.00 C 49.94 653.31, 46.75 649.25, 44.50 649.00 C 42.25 648.75, 36.12 649.69, 34.50 650.00 C 32.88 650.31, 32.12 649.88, 31.50 651.50 C 30.88 653.12, 30.56 660.12, 29.50 663.00 C 28.44 665.88, 23.75 671.75, 23.00 674.50 C 22.25 677.25, 21.69 681.62, 23.50 685.00 C 25.31 688.38, 33.12 698.62, 37.50 701.50 C 41.88 704.38, 53.31 703.56, 58.50 708.00 C 63.69 712.44, 73.56 732.00, 79.00 737.00 C 84.44 742.00, 99.00 746.44, 102.00 748.00 C 105.00 749.56, 103.69 746.81, 103.00 749.50 C 102.31 752.19, 97.69 766.75, 96.50 769.50 C 95.31 772.25, 95.38 771.44, 93.50 771.50 C 91.62 771.56, 83.50 769.94, 81.50 770.00 C 79.50 770.06, 80.81 767.25, 77.50 772.00 C 74.19 776.75, 58.31 801.62, 55.00 808.00 C 51.69 814.38, 51.50 818.44, 51.00 823.00 C 50.50 827.56, 50.50 840.62, 51.00 844.50 C 51.50 848.38, 53.44 852.12, 55.00 854.00 C 56.56 855.88, 60.69 858.94, 63.50 859.50 C 66.31 860.06, 74.69 859.25, 77.50 858.50 C 80.31 857.75, 82.75 856.56, 86.00 853.50 C 89.25 850.44, 98.56 841.62, 103.50 834.00 C 108.44 826.38, 121.25 804.06, 125.50 792.50 C 129.75 780.94, 134.81 749.81, 137.50 741.50 C 140.19 733.19, 143.50 728.69, 147.00 726.00 C 150.50 723.31, 161.50 721.81, 165.50 720.00 C 169.50 718.19, 177.06 712.56, 179.00 711.50 C 180.94 710.44, 178.81 710.50, 181.00 711.50 C 183.19 712.50, 191.94 719.19, 196.50 719.50 C 201.06 719.81, 212.31 713.50, 217.50 714.00 C 222.69 714.50, 233.38 722.44, 238.00 723.50 C 242.62 724.56, 251.88 723.50, 254.50 722.50 C 257.12 721.50, 258.44 716.81, 259.00 715.50 C 259.56 714.19, 259.50 713.38, 259.00 712.00 C 258.50 710.62, 255.25 705.62, 255.00 704.50 C 254.75 703.38, 255.56 703.38, 257.00 703.00 C 258.44 702.62, 264.62 702.00, 266.50 701.50 C 268.38 701.00, 267.81 701.50, 272.00 699.00 C 276.19 696.50, 291.44 688.62, 300.00 681.50 C 308.56 674.38, 333.62 649.62, 340.50 642.00 C 347.38 634.38, 352.81 623.25, 355.00 620.50 C 357.19 617.75, 355.12 618.75, 358.00 620.00 C 360.88 621.25, 373.81 629.31, 378.00 630.50 C 382.19 631.69, 389.19 629.81, 391.50 629.50 C 393.81 629.19, 395.38 628.94, 396.50 628.00 C 397.62 627.06, 400.00 624.25, 400.50 622.00 C 401.00 619.75, 401.38 613.31, 400.50 610.00 C 399.62 606.69, 395.94 598.50, 393.50 595.50 Z
M 386.50 604.00 C 388.50 606.88, 389.50 615.94, 389.00 618.00 C 388.50 620.06, 383.81 620.31, 382.50 620.50 C 381.19 620.69, 382.19 621.62, 378.50 619.50 C 374.81 617.38, 356.44 605.44, 353.00 603.50 C 349.56 601.56, 353.62 600.00, 351.00 604.00 C 348.38 608.00, 338.81 627.25, 332.00 635.50 C 325.19 643.75, 304.88 663.12, 296.50 670.00 C 288.12 676.88, 272.00 687.25, 265.00 690.50 C 258.00 693.75, 243.62 695.12, 240.50 696.00 C 237.38 696.88, 239.62 695.94, 240.00 697.50 C 240.38 699.06, 243.06 706.75, 243.50 708.50 C 243.94 710.25, 243.69 711.00, 243.50 711.50 C 243.31 712.00, 245.19 713.56, 242.00 712.50 C 238.81 711.44, 221.38 704.19, 218.00 703.00 C 214.62 701.81, 217.62 702.31, 215.00 703.00 C 212.38 703.69, 200.62 708.69, 197.00 708.50 C 193.38 708.31, 188.69 702.44, 186.00 701.50 C 183.31 700.56, 178.75 699.81, 175.50 701.00 C 172.25 702.19, 164.50 708.94, 160.00 711.00 C 155.50 713.06, 143.38 714.75, 139.50 717.50 C 135.62 720.25, 131.75 724.75, 129.00 733.00 C 126.25 741.25, 121.19 772.62, 117.50 783.50 C 113.81 794.38, 104.44 812.19, 99.50 820.00 C 94.56 827.81, 81.50 842.44, 78.00 846.00 C 74.50 849.56, 72.88 848.31, 71.50 848.50 C 70.12 848.69, 67.94 847.88, 67.00 847.50 C 66.06 847.12, 64.75 848.44, 64.00 845.50 C 63.25 842.56, 60.44 829.12, 61.00 824.00 C 61.56 818.88, 65.69 809.81, 68.50 804.50 C 71.31 799.19, 80.31 784.38, 83.50 781.50 C 86.69 778.62, 91.75 782.06, 94.00 781.50 C 96.25 780.94, 98.94 781.50, 101.50 777.00 C 104.06 772.50, 113.56 750.38, 114.50 745.50 C 115.44 740.62, 112.12 739.81, 109.00 738.00 C 105.88 736.19, 94.88 735.75, 89.50 731.00 C 84.12 726.25, 71.38 704.69, 66.00 700.00 C 60.62 695.31, 50.56 695.69, 46.50 693.50 C 42.44 691.31, 35.12 684.62, 33.50 682.50 C 31.88 680.38, 32.75 678.19, 33.50 676.50 C 34.25 674.81, 38.50 670.69, 39.50 669.00 C 40.50 667.31, 40.56 663.81, 41.50 663.00 C 42.44 662.19, 45.00 662.31, 47.00 662.50 C 49.00 662.69, 55.81 664.31, 57.50 664.50 C 59.19 664.69, 59.69 665.44, 60.50 664.00 C 61.31 662.56, 62.25 655.75, 64.00 653.00 C 65.75 650.25, 73.19 644.75, 74.50 642.00 C 75.81 639.25, 75.31 634.25, 74.50 631.00 C 73.69 627.75, 72.25 621.94, 68.00 616.00 C 63.75 610.06, 43.94 588.12, 40.50 583.50 C 37.06 578.88, 39.50 579.50, 40.50 579.00 C 41.50 578.50, 46.19 580.06, 48.50 579.50 C 50.81 578.94, 57.38 575.06, 59.00 574.50 C 60.62 573.94, 60.25 573.88, 61.50 575.00 C 62.75 576.12, 66.31 578.19, 69.00 583.50 C 71.69 588.81, 80.50 612.69, 83.00 617.50 C 85.50 622.31, 87.75 621.31, 89.00 622.00 C 90.25 622.69, 91.56 624.00, 93.00 623.00 C 94.44 622.00, 99.38 618.12, 100.50 614.00 C 101.62 609.88, 99.69 595.44, 102.00 590.00 C 104.31 584.56, 116.56 572.69, 119.00 570.50 C 121.44 568.31, 120.50 570.75, 121.50 572.50 C 122.50 574.25, 125.12 582.75, 127.00 584.50 C 128.88 586.25, 134.25 587.44, 136.50 586.50 C 138.75 585.56, 143.31 581.00, 145.00 577.00 C 146.69 573.00, 149.12 557.62, 150.00 554.50 C 150.88 551.38, 146.62 553.31, 152.00 552.00 C 157.38 550.69, 185.38 546.69, 193.00 544.00 C 200.62 541.31, 210.19 532.25, 213.00 530.50 C 215.81 528.75, 214.81 529.75, 215.50 530.00 C 216.19 530.25, 217.12 530.81, 218.50 532.50 C 219.88 534.19, 224.00 541.50, 226.50 543.50 C 229.00 545.50, 235.19 547.88, 238.50 548.50 C 241.81 549.12, 248.75 549.38, 253.00 548.50 C 257.25 547.62, 267.88 542.38, 272.50 541.50 C 277.12 540.62, 284.69 540.75, 290.00 541.50 C 295.31 542.25, 309.38 545.00, 315.00 547.50 C 320.62 550.00, 331.06 556.81, 335.00 561.50 C 338.94 566.19, 344.81 581.81, 346.50 585.00 C 348.19 588.19, 345.19 585.75, 348.50 587.00 C 351.81 588.25, 368.25 592.88, 373.00 595.00 C 377.75 597.12, 384.50 601.12, 386.50 604.00 Z
M 236.00 283.00 C 232.88 281.50, 230.25 282.69, 229.00 283.00 C 227.75 283.31, 227.19 281.31, 226.00 285.50 C 224.81 289.69, 222.94 311.00, 219.50 316.50 C 216.06 322.00, 201.31 326.50, 198.50 329.50 C 195.69 332.50, 198.06 338.19, 197.00 340.50 C 195.94 342.81, 193.12 346.31, 190.00 348.00 C 186.88 349.69, 176.44 353.00, 172.00 354.00 C 167.56 355.00, 158.94 355.75, 154.50 356.00 C 150.06 356.25, 141.81 356.50, 136.50 356.00 C 131.19 355.50, 115.81 352.50, 112.00 352.00 C 108.19 351.50, 107.81 351.75, 106.00 352.00 C 104.19 352.25, 99.12 353.06, 97.50 354.00 C 95.88 354.94, 93.44 357.50, 93.00 359.50 C 92.56 361.50, 93.06 367.88, 94.00 370.00 C 94.94 372.12, 98.56 375.06, 100.50 376.50 C 102.44 377.94, 106.44 378.81, 109.50 381.50 C 112.56 384.19, 122.81 395.81, 125.00 398.00 C 127.19 400.19, 124.88 398.81, 127.00 399.00 C 129.12 399.19, 138.44 400.06, 142.00 399.50 C 145.56 398.94, 152.62 395.12, 155.50 394.50 C 158.38 393.88, 162.94 394.06, 165.00 394.50 C 167.06 394.94, 170.06 396.50, 172.00 398.00 C 173.94 399.50, 178.75 404.06, 180.50 406.50 C 182.25 408.94, 185.31 413.75, 186.00 417.50 C 186.69 421.25, 185.38 432.62, 186.00 436.50 C 186.62 440.38, 190.38 446.06, 191.00 448.50 C 191.62 450.94, 191.38 454.00, 191.00 456.00 C 190.62 458.00, 188.25 462.00, 188.00 464.50 C 187.75 467.00, 188.69 474.12, 189.00 476.00 C 189.31 477.88, 189.38 478.12, 190.50 479.50 C 191.62 480.88, 195.94 485.62, 198.00 487.00 C 200.06 488.38, 203.81 490.06, 207.00 490.50 C 210.19 490.94, 219.56 491.31, 223.50 490.50 C 227.44 489.69, 234.94 486.62, 238.50 484.00 C 242.06 481.38, 248.88 474.31, 252.00 469.50 C 255.12 464.69, 261.81 448.69, 263.50 445.50 C 265.19 442.31, 265.06 444.06, 265.50 444.00 C 265.94 443.94, 266.62 444.12, 267.00 445.00 C 267.38 445.88, 267.69 449.81, 268.50 451.00 C 269.31 452.19, 270.50 453.94, 273.50 454.50 C 276.50 455.06, 289.38 455.69, 292.50 455.50 C 295.62 455.31, 297.38 453.81, 298.50 453.00 C 299.62 452.19, 301.00 451.50, 301.50 449.00 C 302.00 446.50, 302.19 435.25, 302.50 433.00 C 302.81 430.75, 303.12 431.31, 304.00 431.00 C 304.88 430.69, 307.81 431.06, 309.50 430.50 C 311.19 429.94, 316.25 427.00, 317.50 426.50 C 318.75 426.00, 318.25 425.88, 319.50 426.50 C 320.75 427.12, 325.62 430.88, 327.50 431.50 C 329.38 432.12, 333.12 431.81, 334.50 431.50 C 335.88 431.19, 337.62 429.94, 338.50 429.00 C 339.38 428.06, 341.12 426.38, 341.50 424.00 C 341.88 421.62, 341.94 413.12, 341.50 410.00 C 341.06 406.88, 338.88 401.19, 338.00 399.00 C 337.12 396.81, 336.19 394.56, 334.50 392.50 C 332.81 390.44, 325.94 384.12, 324.50 382.50 C 323.06 380.88, 323.00 382.25, 323.00 379.50 C 323.00 376.75, 324.56 363.38, 324.50 360.50 C 324.44 357.62, 324.06 358.19, 322.50 356.50 C 320.94 354.81, 314.94 349.00, 312.00 347.00 C 309.06 345.00, 303.88 341.75, 299.00 340.50 C 294.12 339.25, 277.19 337.81, 273.00 337.00 C 268.81 336.19, 266.94 335.06, 265.50 334.00 C 264.06 332.94, 261.94 329.94, 261.50 328.50 C 261.06 327.06, 261.38 324.31, 262.00 322.50 C 262.62 320.69, 266.06 316.00, 266.50 314.00 C 266.94 312.00, 267.06 308.88, 265.50 306.50 C 263.94 304.12, 257.69 297.94, 254.00 295.00 C 250.31 292.06, 239.12 284.50, 236.00 283.00 Z
M 236.00 297.00 C 237.25 297.75, 241.25 301.88, 243.50 303.50 C 245.75 305.12, 252.94 308.19, 254.00 310.00 C 255.06 311.81, 252.25 315.06, 252.00 318.00 C 251.75 320.94, 251.81 331.06, 252.00 333.50 C 252.19 335.94, 252.69 336.38, 253.50 337.50 C 254.31 338.62, 256.25 341.31, 258.50 342.50 C 260.75 343.69, 267.12 346.06, 271.50 347.00 C 275.88 347.94, 289.44 349.00, 293.50 350.00 C 297.56 351.00, 301.56 353.44, 304.00 355.00 C 306.44 356.56, 311.81 361.19, 313.00 362.50 C 314.19 363.81, 313.62 364.25, 313.50 365.50 C 313.38 366.75, 312.12 370.31, 312.00 372.50 C 311.88 374.69, 311.88 380.69, 312.50 383.00 C 313.12 385.31, 315.25 388.75, 317.00 391.00 C 318.75 393.25, 324.75 397.50, 326.50 401.00 C 328.25 404.50, 330.75 416.62, 331.00 419.00 C 331.25 421.38, 329.88 420.50, 328.50 420.00 C 327.12 419.50, 321.88 415.62, 320.00 415.00 C 318.12 414.38, 315.44 414.25, 313.50 415.00 C 311.56 415.75, 307.25 420.19, 304.50 421.00 C 301.75 421.81, 293.31 421.19, 291.50 421.50 C 289.69 421.81, 290.19 422.12, 290.00 423.50 C 289.81 424.88, 289.75 430.69, 290.00 432.50 C 290.25 434.31, 291.75 436.88, 292.00 438.00 C 292.25 439.12, 292.62 440.50, 292.00 441.50 C 291.38 442.50, 288.25 445.44, 287.00 446.00 C 285.75 446.56, 283.19 446.31, 282.00 446.00 C 280.81 445.69, 277.81 444.81, 277.50 443.50 C 277.19 442.19, 279.31 437.81, 279.50 435.50 C 279.69 433.19, 279.19 426.44, 279.00 425.00 C 278.81 423.56, 279.38 424.25, 278.00 424.00 C 276.62 423.75, 269.62 422.94, 268.00 423.00 C 266.38 423.06, 266.75 422.56, 265.00 424.50 C 263.25 426.44, 257.31 432.94, 254.00 438.50 C 250.69 444.06, 241.25 464.38, 238.50 469.00 C 235.75 473.62, 233.69 474.19, 232.00 475.50 C 230.31 476.81, 227.75 478.88, 225.00 479.50 C 222.25 480.12, 212.56 480.69, 210.00 480.50 C 207.44 480.31, 205.75 479.00, 204.50 478.00 C 203.25 477.00, 200.50 476.75, 200.00 472.50 C 199.50 468.25, 201.06 449.06, 200.50 444.00 C 199.94 438.94, 196.12 436.06, 195.50 432.00 C 194.88 427.94, 197.00 416.31, 195.50 411.50 C 194.00 406.69, 185.88 396.50, 183.50 393.50 C 181.12 390.50, 178.62 388.69, 176.50 387.50 C 174.38 386.31, 169.19 384.38, 166.50 384.00 C 163.81 383.62, 159.06 383.69, 155.00 384.50 C 150.94 385.31, 137.19 390.06, 134.00 390.50 C 130.81 390.94, 131.38 389.81, 129.50 388.00 C 127.62 386.19, 121.56 378.50, 119.00 376.00 C 116.44 373.50, 110.38 369.25, 109.00 368.00 C 107.62 366.75, 107.88 366.44, 108.00 366.00 C 108.12 365.56, 102.00 364.69, 110.00 364.50 C 118.00 364.31, 163.06 364.69, 172.00 364.50 C 180.94 364.31, 178.44 363.94, 181.50 363.00 C 184.56 362.06, 193.50 358.75, 196.50 357.00 C 199.50 355.25, 204.19 351.56, 205.50 349.00 C 206.81 346.44, 204.94 339.06, 207.00 336.50 C 209.06 333.94, 219.19 330.44, 222.00 328.50 C 224.81 326.56, 228.25 322.88, 229.50 321.00 C 230.75 319.12, 231.62 316.19, 232.00 313.50 C 232.38 310.81, 232.31 301.50, 232.50 299.50 C 232.69 297.50, 233.06 297.81, 233.50 297.50 C 233.94 297.19, 234.75 296.25, 236.00 297.00 Z
M 366.50 501.00 C 364.00 502.06, 362.81 503.94, 362.00 505.50 C 361.19 507.06, 360.50 512.06, 360.00 513.50 C 359.50 514.94, 359.19 515.94, 358.00 517.00 C 356.81 518.06, 352.00 520.75, 350.50 522.00 C 349.00 523.25, 346.56 525.31, 346.00 527.00 C 345.44 528.69, 345.62 533.62, 346.00 535.50 C 346.38 537.38, 347.88 540.44, 349.00 542.00 C 350.12 543.56, 351.81 545.50, 355.00 548.00 C 358.19 550.50, 370.88 558.69, 374.50 562.00 C 378.12 565.31, 382.00 572.94, 384.00 574.50 C 386.00 576.06, 388.62 575.00, 390.50 574.50 C 392.38 574.00, 396.19 570.62, 399.00 570.50 C 401.81 570.38, 410.19 573.12, 413.00 573.50 C 415.81 573.88, 419.75 573.75, 421.50 573.50 C 423.25 573.25, 425.50 572.62, 427.00 571.50 C 428.50 570.38, 432.56 566.75, 433.50 564.50 C 434.44 562.25, 435.69 557.31, 434.50 553.50 C 433.31 549.69, 425.38 538.12, 424.00 534.00 C 422.62 529.88, 423.75 522.88, 423.50 520.50 C 423.25 518.12, 423.62 517.00, 422.00 515.00 C 420.38 513.00, 413.31 506.62, 410.50 504.50 C 407.69 502.38, 401.38 498.94, 399.50 498.00 C 397.62 497.06, 397.69 497.12, 395.50 497.00 C 393.31 496.88, 385.62 496.50, 382.00 497.00 C 378.38 497.50, 369.00 499.94, 366.50 501.00 Z
M 349.00 334.00 C 348.62 336.56, 350.31 344.00, 351.50 348.50 C 352.69 353.00, 357.31 367.00, 358.50 370.00 C 359.69 373.00, 359.94 372.19, 361.00 372.50 C 362.06 372.81, 365.06 373.19, 367.00 372.50 C 368.94 371.81, 374.81 367.62, 376.50 367.00 C 378.19 366.38, 378.75 366.81, 380.50 367.50 C 382.25 368.19, 388.12 371.88, 390.50 372.50 C 392.88 373.12, 397.56 372.88, 399.50 372.50 C 401.44 372.12, 403.75 369.88, 406.00 369.50 C 408.25 369.12, 415.69 369.69, 417.50 369.50 C 419.31 369.31, 419.75 368.69, 420.50 368.00 C 421.25 367.31, 423.00 364.88, 423.50 364.00 C 424.00 363.12, 424.38 362.94, 424.50 361.00 C 424.62 359.06, 424.69 350.62, 424.50 348.50 C 424.31 346.38, 423.62 345.38, 423.00 344.00 C 422.38 342.62, 420.50 338.88, 419.50 337.50 C 418.50 336.12, 416.62 334.06, 415.00 333.00 C 413.38 331.94, 409.44 329.44, 406.50 329.00 C 403.56 328.56, 394.56 330.12, 391.50 329.50 C 388.44 328.88, 384.94 324.69, 382.00 324.00 C 379.06 323.31, 371.44 323.50, 368.00 324.00 C 364.56 324.50, 356.88 326.75, 354.50 328.00 C 352.12 329.25, 349.38 331.44, 349.00 334.00 Z
M 357.50 531.50 C 358.62 530.31, 364.94 527.25, 366.50 525.00 C 368.06 522.75, 369.12 515.44, 370.00 513.50 C 370.88 511.56, 372.06 510.25, 373.50 509.50 C 374.94 508.75, 379.06 507.81, 381.50 507.50 C 383.94 507.19, 389.88 506.06, 393.00 507.00 C 396.12 507.94, 404.19 513.38, 406.50 515.00 C 408.81 516.62, 410.69 518.81, 411.50 520.00 C 412.31 521.19, 412.69 522.19, 413.00 524.50 C 413.31 526.81, 413.62 536.19, 414.00 538.50 C 414.38 540.81, 415.19 541.81, 416.00 543.00 C 416.81 544.19, 419.56 546.69, 420.50 548.00 C 421.44 549.31, 423.12 552.06, 423.50 553.50 C 423.88 554.94, 424.12 558.38, 423.50 559.50 C 422.88 560.62, 422.62 562.31, 418.50 562.50 C 414.38 562.69, 397.81 564.12, 390.50 561.00 C 383.19 557.88, 364.12 540.81, 360.00 537.50 C 355.88 534.19, 357.81 535.25, 357.50 534.50 C 357.19 533.75, 356.38 532.69, 357.50 531.50 Z
M 361.00 337.00 C 361.38 336.50, 362.56 335.69, 363.50 335.50 C 364.44 335.31, 367.62 335.62, 368.50 335.50 C 369.38 335.38, 369.12 334.62, 370.50 334.50 C 371.88 334.38, 377.06 333.75, 379.50 334.50 C 381.94 335.25, 386.69 339.81, 390.00 340.50 C 393.31 341.19, 403.69 339.88, 406.00 340.00 C 408.31 340.12, 407.62 340.62, 408.50 341.50 C 409.38 342.38, 412.25 345.50, 413.00 347.00 C 413.75 348.50, 414.38 352.31, 414.50 353.50 C 414.62 354.69, 414.56 355.69, 414.00 356.50 C 413.44 357.31, 412.00 359.31, 410.00 360.00 C 408.00 360.69, 400.25 361.75, 398.00 362.00 C 395.75 362.25, 394.19 362.62, 392.00 362.00 C 389.81 361.38, 383.06 357.62, 380.50 357.00 C 377.94 356.38, 373.12 356.81, 371.50 357.00 C 369.88 357.19, 368.38 358.81, 367.50 358.50 C 366.62 358.19, 365.06 356.12, 364.50 354.50 C 363.94 352.88, 363.50 347.38, 363.00 345.50 C 362.50 343.62, 360.75 340.56, 360.50 339.50 C 360.25 338.44, 360.62 337.50, 361.00 337.00 Z" fill="#000000" fill-rule="evenodd" stroke="none"/>
</svg>
