<svg
  xmlns="http://www.w3.org/2000/svg"
  viewBox="0 0 24 24"
  fill="none"
>
  <path
    d="M18.15 5.78a7.22 7.22 0 0 0-3.93-1.13c-3.54 0-6.35 2.18-7.33 5.47H4.8a.9.9 0 0 0 0 1.8h1.72c-.03.34-.05.69-.05 1.04 0 .41.02.81.06 1.2H4.8a.9.9 0 0 0 0 1.8h2.11c1 3.2 3.77 5.31 7.22 5.31 1.45 0 2.82-.38 4.02-1.09"
    stroke="currentColor"
    stroke-width="1.55"
    stroke-linecap="round"
    stroke-linejoin="round"
  />
  <path
    d="M5.95 11.16h8.1"
    stroke="currentColor"
    stroke-width="1.55"
    stroke-linecap="round"
  />
  <path
    d="M6.18 14.96h7.45"
    stroke="currentColor"
    stroke-width="1.55"
    stroke-linecap="round"
  />
</svg>
