<?xml version="1.0" encoding="UTF-8"?>
<svg width="1024" height="1024" viewBox="0 0 1024 1024" fill="none" xmlns="http://www.w3.org/2000/svg" role="img" aria-label="Network icon with plus">
  <title>Network icon with plus</title>
  <desc>Transparent network icon with rounded diamond nodes connected to a central plus hub.</desc>

  <g stroke="#000000" stroke-width="44" stroke-linecap="round" stroke-linejoin="round" fill="none">
    <path d="M 512.0 276.1 L 512.0 636.0" /><path d="M 360.0 461.1 L 360.0 540.0 L 445.0 646.0" /><path d="M 664.0 461.1 L 664.0 540.0 L 579.0 646.0" /><path d="M 230.0 706.1 L 230.0 770.0 L 373.0 829.0" /><path d="M 794.0 706.1 L 794.0 770.0 L 651.0 829.0" />
  </g>

  <path fill="#000000" fill-rule="evenodd" d="
        M 670.0 780.0
        A 158.0 158.0 0 1 0 354.0 780.0
        A 158.0 158.0 0 1 0 670.0 780.0
        M 626.0 780.0
        A 114.0 114.0 0 1 1 398.0 780.0
        A 114.0 114.0 0 1 1 626.0 780.0
    "/>

  <g stroke="#000000" stroke-width="34" stroke-linecap="round">
    <path d="M 512 725 L 512 835" />
    <path d="M 457 780 L 567 780" />
  </g>

  <g transform="rotate(45 512.0 170.0)"><path fill="#000000" fill-rule="evenodd" d="M 461.0 95.0 H 563.0 A 24.0 24.0 0 0 1 587.0 119.0 V 221.0 A 24.0 24.0 0 0 1 563.0 245.0 H 461.0 A 24.0 24.0 0 0 1 437.0 221.0 V 119.0 A 24.0 24.0 0 0 1 461.0 95.0 Z M 484.0 124.0 H 540.0 A 18.0 18.0 0 0 1 558.0 142.0 V 198.0 A 18.0 18.0 0 0 1 540.0 216.0 H 484.0 A 18.0 18.0 0 0 1 466.0 198.0 V 142.0 A 18.0 18.0 0 0 1 484.0 124.0 Z"/></g>
  <g transform="rotate(45 360.0 355.0)"><path fill="#000000" fill-rule="evenodd" d="M 309.0 280.0 H 411.0 A 24.0 24.0 0 0 1 435.0 304.0 V 406.0 A 24.0 24.0 0 0 1 411.0 430.0 H 309.0 A 24.0 24.0 0 0 1 285.0 406.0 V 304.0 A 24.0 24.0 0 0 1 309.0 280.0 Z M 332.0 309.0 H 388.0 A 18.0 18.0 0 0 1 406.0 327.0 V 383.0 A 18.0 18.0 0 0 1 388.0 401.0 H 332.0 A 18.0 18.0 0 0 1 314.0 383.0 V 327.0 A 18.0 18.0 0 0 1 332.0 309.0 Z"/></g>
  <g transform="rotate(45 664.0 355.0)"><path fill="#000000" fill-rule="evenodd" d="M 613.0 280.0 H 715.0 A 24.0 24.0 0 0 1 739.0 304.0 V 406.0 A 24.0 24.0 0 0 1 715.0 430.0 H 613.0 A 24.0 24.0 0 0 1 589.0 406.0 V 304.0 A 24.0 24.0 0 0 1 613.0 280.0 Z M 636.0 309.0 H 692.0 A 18.0 18.0 0 0 1 710.0 327.0 V 383.0 A 18.0 18.0 0 0 1 692.0 401.0 H 636.0 A 18.0 18.0 0 0 1 618.0 383.0 V 327.0 A 18.0 18.0 0 0 1 636.0 309.0 Z"/></g>
  <g transform="rotate(45 230.0 600.0)"><path fill="#000000" fill-rule="evenodd" d="M 179.0 525.0 H 281.0 A 24.0 24.0 0 0 1 305.0 549.0 V 651.0 A 24.0 24.0 0 0 1 281.0 675.0 H 179.0 A 24.0 24.0 0 0 1 155.0 651.0 V 549.0 A 24.0 24.0 0 0 1 179.0 525.0 Z M 202.0 554.0 H 258.0 A 18.0 18.0 0 0 1 276.0 572.0 V 628.0 A 18.0 18.0 0 0 1 258.0 646.0 H 202.0 A 18.0 18.0 0 0 1 184.0 628.0 V 572.0 A 18.0 18.0 0 0 1 202.0 554.0 Z"/></g>
  <g transform="rotate(45 794.0 600.0)"><path fill="#000000" fill-rule="evenodd" d="M 743.0 525.0 H 845.0 A 24.0 24.0 0 0 1 869.0 549.0 V 651.0 A 24.0 24.0 0 0 1 845.0 675.0 H 743.0 A 24.0 24.0 0 0 1 719.0 651.0 V 549.0 A 24.0 24.0 0 0 1 743.0 525.0 Z M 766.0 554.0 H 822.0 A 18.0 18.0 0 0 1 840.0 572.0 V 628.0 A 18.0 18.0 0 0 1 822.0 646.0 H 766.0 A 18.0 18.0 0 0 1 748.0 628.0 V 572.0 A 18.0 18.0 0 0 1 766.0 554.0 Z"/></g>
</svg>
