<?xml version="1.0" encoding="UTF-8"?>
<svg width="1024" height="1024" viewBox="0 0 1024 1024" fill="none" xmlns="http://www.w3.org/2000/svg" role="img" aria-label="Network icon with plus">
  <rect width="1024" height="1024" fill="#efefef"/>

  <g stroke="#000000" stroke-width="44" stroke-linecap="round" stroke-linejoin="round" fill="none">
    <path d="M 512 605 L 512 175" /><path d="M 452 633 L 352 530 L 352 428" /><path d="M 572 633 L 672 530 L 672 428" /><path d="M 381 790 L 170 742 L 170 658" /><path d="M 643 790 L 854 742 L 854 658" />
  </g>

  <circle cx="512" cy="750" r="145" fill="#efefef" stroke="#000000" stroke-width="44"/>

  <g stroke="#000000" stroke-width="34" stroke-linecap="round">
    <path d="M 512 695 L 512 805"/>
    <path d="M 457 750 L 567 750"/>
  </g>

  <g fill="#efefef" stroke="#000000" stroke-width="44" stroke-linejoin="round">
    <rect x="443.0" y="46.0" width="138.0" height="138.0" rx="22" ry="22" transform="rotate(45 512.0 115.0)" />
    <rect x="283.0" y="276.0" width="138.0" height="138.0" rx="22" ry="22" transform="rotate(45 352.0 345.0)" />
    <rect x="603.0" y="276.0" width="138.0" height="138.0" rx="22" ry="22" transform="rotate(45 672.0 345.0)" />
    <rect x="101.0" y="506.0" width="138.0" height="138.0" rx="22" ry="22" transform="rotate(45 170.0 575.0)" />
    <rect x="785.0" y="506.0" width="138.0" height="138.0" rx="22" ry="22" transform="rotate(45 854.0 575.0)" />
  </g>
</svg>
