<?xml version="1.0" encoding="UTF-8"?>
<svg width="1024" height="1024" viewBox="0 0 1024 1024" fill="none" xmlns="http://www.w3.org/2000/svg" role="img" aria-label="Network icon with plus">
  <title>Network icon with plus</title>
  <desc>Transparent-background network icon with five rounded diamond nodes and a plus in the center.</desc>

  <g stroke="#000000" stroke-width="44" stroke-linecap="round" stroke-linejoin="round" fill="none">
    <path d="M 512 603 L 512 255" /><path d="M 454 632 L 368 540 L 368 430" /><path d="M 570 632 L 656 540 L 656 430" /><path d="M 382 788 L 172 736 L 172 656" /><path d="M 642 788 L 852 736 L 852 656" />
  </g>

  <circle cx="512" cy="748" r="145" fill="none" stroke="#000000" stroke-width="44" />

  <g stroke="#000000" stroke-width="34" stroke-linecap="round">
    <path d="M 512 693 L 512 803" />
    <path d="M 457 748 L 567 748" />
  </g>

  <g transform="rotate(45 512.0 185.0)"><path fill="#000000" fill-rule="evenodd" d="M 465.0 116.0 H 559.0 A 22.0 22.0 0 0 1 581.0 138.0 V 232.0 A 22.0 22.0 0 0 1 559.0 254.0 H 465.0 A 22.0 22.0 0 0 1 443.0 232.0 V 138.0 A 22.0 22.0 0 0 1 465.0 116.0 Z M 488.0 147.0 H 536.0 A 14.0 14.0 0 0 1 550.0 161.0 V 209.0 A 14.0 14.0 0 0 1 536.0 223.0 H 488.0 A 14.0 14.0 0 0 1 474.0 209.0 V 161.0 A 14.0 14.0 0 0 1 488.0 147.0 Z"/></g>
  <g transform="rotate(45 350.0 350.0)"><path fill="#000000" fill-rule="evenodd" d="M 303.0 281.0 H 397.0 A 22.0 22.0 0 0 1 419.0 303.0 V 397.0 A 22.0 22.0 0 0 1 397.0 419.0 H 303.0 A 22.0 22.0 0 0 1 281.0 397.0 V 303.0 A 22.0 22.0 0 0 1 303.0 281.0 Z M 326.0 312.0 H 374.0 A 14.0 14.0 0 0 1 388.0 326.0 V 374.0 A 14.0 14.0 0 0 1 374.0 388.0 H 326.0 A 14.0 14.0 0 0 1 312.0 374.0 V 326.0 A 14.0 14.0 0 0 1 326.0 312.0 Z"/></g>
  <g transform="rotate(45 674.0 350.0)"><path fill="#000000" fill-rule="evenodd" d="M 627.0 281.0 H 721.0 A 22.0 22.0 0 0 1 743.0 303.0 V 397.0 A 22.0 22.0 0 0 1 721.0 419.0 H 627.0 A 22.0 22.0 0 0 1 605.0 397.0 V 303.0 A 22.0 22.0 0 0 1 627.0 281.0 Z M 650.0 312.0 H 698.0 A 14.0 14.0 0 0 1 712.0 326.0 V 374.0 A 14.0 14.0 0 0 1 698.0 388.0 H 650.0 A 14.0 14.0 0 0 1 636.0 374.0 V 326.0 A 14.0 14.0 0 0 1 650.0 312.0 Z"/></g>
  <g transform="rotate(45 172.0 575.0)"><path fill="#000000" fill-rule="evenodd" d="M 125.0 506.0 H 219.0 A 22.0 22.0 0 0 1 241.0 528.0 V 622.0 A 22.0 22.0 0 0 1 219.0 644.0 H 125.0 A 22.0 22.0 0 0 1 103.0 622.0 V 528.0 A 22.0 22.0 0 0 1 125.0 506.0 Z M 148.0 537.0 H 196.0 A 14.0 14.0 0 0 1 210.0 551.0 V 599.0 A 14.0 14.0 0 0 1 196.0 613.0 H 148.0 A 14.0 14.0 0 0 1 134.0 599.0 V 551.0 A 14.0 14.0 0 0 1 148.0 537.0 Z"/></g>
  <g transform="rotate(45 852.0 575.0)"><path fill="#000000" fill-rule="evenodd" d="M 805.0 506.0 H 899.0 A 22.0 22.0 0 0 1 921.0 528.0 V 622.0 A 22.0 22.0 0 0 1 899.0 644.0 H 805.0 A 22.0 22.0 0 0 1 783.0 622.0 V 528.0 A 22.0 22.0 0 0 1 805.0 506.0 Z M 828.0 537.0 H 876.0 A 14.0 14.0 0 0 1 890.0 551.0 V 599.0 A 14.0 14.0 0 0 1 876.0 613.0 H 828.0 A 14.0 14.0 0 0 1 814.0 599.0 V 551.0 A 14.0 14.0 0 0 1 828.0 537.0 Z"/></g>
</svg>
