<svg class="svg-icon" style="width: 1em;height: 1em;vertical-align: middle;fill: currentColor;overflow: hidden;" viewBox="0 0 1024 1024" version="1.1" xmlns="http://www.w3.org/2000/svg"><path d="M508.1 81.3h6.8c20.1 0 36.5 16.4 36.5 36.5v790.8c0 20.1-16.4 36.5-36.5 36.5h-6.8c-20.1 0-36.5-16.4-36.5-36.5V117.8c0-20.1 16.4-36.5 36.5-36.5zM738.2 213h6.8c20.1 0 36.5 16.4 36.5 36.5v527.4c0 20.1-16.4 36.5-36.5 36.5h-6.8c-20.1 0-36.5-16.4-36.5-36.5V249.5c0-20.1 16.4-36.5 36.5-36.5zM278.1 213h6.8c20.1 0 36.5 16.4 36.5 36.5v527.4c0 20.1-16.4 36.5-36.5 36.5h-6.8c-20.1 0-36.5-16.4-36.5-36.5V249.5c-0.1-20.1 16.4-36.5 36.5-36.5zM968.2 365.5h6.8c20.1 0 36.5 16.4 36.5 36.5v222.3c0 20.1-16.4 36.5-36.5 36.5h-6.8c-20.1 0-36.5-16.4-36.5-36.5V402c0-20.1 16.4-36.5 36.5-36.5zM48 365.5h6.8c20.1 0 36.5 16.4 36.5 36.5v222.3c0 20.1-16.4 36.5-36.5 36.5H48c-20.1 0-36.5-16.4-36.5-36.5V402c0-20.1 16.4-36.5 36.5-36.5z"  /></svg>