<?xml version="1.0" encoding="UTF-8"?>
<svg id="Layer_1" xmlns="http://www.w3.org/2000/svg" version="1.1" xmlns:xlink="http://www.w3.org/1999/xlink" viewBox="0 0 197.96 214.07">
  <!-- Generator: Adobe Illustrator 29.5.0, SVG Export Plug-In . SVG Version: 2.1.0 Build 137)  -->
  <defs>
    <style>
      .st0 {
        fill: url(#linear-gradient);
        filter: url(#drop-shadow-1);
        stroke: #000;
        stroke-miterlimit: 10;
        stroke-width: .1px;
      }
    </style>
<linearGradient id="linear-gradient" x1="61.96" y1="-1487.75" x2="169.27" y2="-1720.34"
  gradientTransform="translate(0 -1504.98) scale(1 -1)" gradientUnits="userSpaceOnUse">
  <stop offset="0" stop-color="#f6e3e1"/>
  <stop offset=".25" stop-color="#d29b9b"/>
  <stop offset=".5" stop-color="#b17c7c"/>
  <stop offset=".75" stop-color="#844d4c"/>
  <stop offset="1" stop-color="#6b3938"/>
</linearGradient>

    <filter id="drop-shadow-1" x="-6.27" y="-5.55" width="211" height="230">
      <feOffset dx="7" dy="7"/>
      <feGaussianBlur result="blur" stdDeviation="5.67"/>
      <feFlood flood-color="#000" flood-opacity=".75"/>
      <feComposite in2="blur" operator="in"/>
      <feComposite in="SourceGraphic"/>
    </filter>
  </defs>
  <path class="st0" d="M174.64,7.24c6.41,2.28,4.98,8.8,5.19,21.04v20.56c0,36.14.16,112.3-.11,140.07.37,14.89-19.71,10.6-30,11.08-9.49-.53-16.06-1.54-15.58-12.61.74-35.77-1.7-134.45.95-174.57,3.13-9.86,31.27-7.68,39-5.78l.53.21s.02,0,.02,0ZM108.45,198.97c-3.71,1.32-12.24,1.38-21.57,1.43-15.26,0-29.78.9-34.92-14.73-9.75-22.52-33.39-77.59-43.3-101.12-2.07-5.3-3.71-10.55-3.87-15.9-.16-14.1,7.05-28.51,11.66-42.24,2.76-7,4.66-14.04,8.48-19.82,4.66-5.41,7.63,8.69,14.89,23.53,10.33,23.53,20.09,45.84,30.79,70.22,13.3,30.74,29.84,67.25,40.33,92.42.85,2.49.9,5.09-2.01,6.09l-.42.16s-.06-.04-.06-.04Z"/>
</svg>