<?xml version="1.0" encoding="UTF-8"?>
<svg id="Layer_1" data-name="Layer 1"
     xmlns="http://www.w3.org/2000/svg"
     xmlns:xlink="http://www.w3.org/1999/xlink"
     viewBox="0 0 175.09 195.01"
     overflow="visible">
  <defs>
    <style>
      .cls-1 {
        fill: url(#linear-gradient-2);
      }

      .cls-2 {
        fill: url(#linear-gradient);
      }

      /* õhuke, pehme alumine stroke */
      .stroke-main {
        fill: none;
        stroke: #8A4A46;
        stroke-width: 1.6;
        stroke-linejoin: round;
        stroke-linecap: round;
        stroke-opacity: 0.38;
      }
    </style>

    <!-- Vari -->
    <filter id="shadow-all"
            x="-40" y="-40"
            width="260" height="260"
            filterUnits="userSpaceOnUse"
            color-interpolation-filters="sRGB">
      <feGaussianBlur in="SourceAlpha" stdDeviation="2" result="blur" />
      <feOffset in="blur" dx="8" dy="9" result="offsetBlur" />
      <feColorMatrix in="offsetBlur" type="matrix"
        values="0 0 0 0 0
                0 0 0 0 0
                0 0 0 0 0
                0 0 0 0.85 0"
        result="shadow" />
      <feMerge>
        <feMergeNode in="shadow" />
      </feMerge>
    </filter>

    <linearGradient id="linear-gradient" x1="113.34" y1="182.08" x2="198.56" y2="-2.62"
                    gradientTransform="translate(0 194.82) scale(1 -1)"
                    gradientUnits="userSpaceOnUse">
      <stop offset="0" stop-color="#e6bcb9"/>
      <stop offset=".14" stop-color="#be7877"/>
      <stop offset=".29" stop-color="#9a5151"/>
      <stop offset=".43" stop-color="#854343"/>
      <stop offset=".57" stop-color="#6d3333"/>
      <stop offset=".71" stop-color="#4c1c1c"/>
      <stop offset=".86" stop-color="#391212"/>
      <stop offset="1" stop-color="#2e0d0d"/>
    </linearGradient>

    <linearGradient id="linear-gradient-2" x1="-20.73" y1="-3260.46" x2="74.41" y2="-3466.66"
                    gradientTransform="translate(20 -3248.97) scale(1 -1)"
                    gradientUnits="userSpaceOnUse">
      <stop offset="0" stop-color="#e6bcb9"/>
      <stop offset=".14" stop-color="#be7877"/>
      <stop offset=".29" stop-color="#9a5151"/>
      <stop offset=".43" stop-color="#854343"/>
      <stop offset=".57" stop-color="#6d3333"/>
      <stop offset=".71" stop-color="#4c1c1c"/>
      <stop offset=".86" stop-color="#391212"/>
      <stop offset="1" stop-color="#2e0d0d"/>
    </linearGradient>

    <!-- alumise stroki vertikaalne fade (ülalt peidus, alt nähtav) -->
    <linearGradient id="stroke-fade" x1="0" y1="0" x2="0" y2="1">
      <stop offset="0"    stop-color="black"/>
      <stop offset="0.50" stop-color="black"/>
      <stop offset="0.90" stop-color="white"/>
      <stop offset="1"    stop-color="white"/>
    </linearGradient>

    <mask id="stroke-mask"
          maskUnits="objectBoundingBox"
          maskContentUnits="objectBoundingBox">
      <rect x="0" y="0" width="1" height="1" fill="url(#stroke-fade)"/>
    </mask>

    <!-- kuju-mask, et stroke ei ulatuks logost väljapoole -->
    <mask id="clip-shape" maskUnits="userSpaceOnUse"
          x="0" y="0" width="175.09" height="195.01">
      <path
        d="M169.83,192.97l-.53.21c-7.73,1.9-35.87,4.08-39-5.78-2.65-40.12-.21-138.8-.95-174.57-.48-11.07,6.09-12.08,15.58-12.61,10.29.48,30.37-3.81,30,11.08.27,27.77.11,103.93.11,140.07v20.56c-.21,12.24,1.22,18.76-5.19,21.04h-.02Z"
        fill="white"/>
      <path
        d="M103.66,193.57c-3.71,1.32-12.24,1.38-21.57,1.43-15.26,0-29.78.9-34.92-14.73C37.42,157.75,13.78,102.68,3.87,79.15,1.8,73.85.16,68.6,0,63.25c-.16-14.1,7.05-28.51,11.66-42.24,2.76-7,4.66-14.04,8.48-19.82,4.66-5.41,7.63,8.69,14.89,23.53,10.33,23.53,20.09,45.84,30.79,70.22,13.3,30.74,29.84,67.25,40.33,92.42.85,2.49.9,5.09-2.01,6.09l-.42.16-.06-.04Z"
        fill="white"/>
    </mask>

    <!-- pehme blur stroke'ile (inner, pärast klippi) -->
    <filter id="stroke-soft" x="-30%" y="-30%" width="160%" height="160%">
      <feGaussianBlur in="SourceGraphic" stdDeviation="3.2"/>
    </filter>
  </defs>

  <!-- VARJU: mustad koopiad all -->
  <g filter="url(#shadow-all)" aria-hidden="true">
    <path d="M169.83,192.97l-.53.21c-7.73,1.9-35.87,4.08-39-5.78-2.65-40.12-.21-138.8-.95-174.57-.48-11.07,6.09-12.08,15.58-12.61,10.29.48,30.37-3.81,30,11.08.27,27.77.11,103.93.11,140.07v20.56c-.21,12.24,1.22,18.76-5.19,21.04h-.02Z"
          fill="#000000"/>
    <path d="M103.66,193.57c-3.71,1.32-12.24,1.38-21.57,1.43-15.26,0-29.78.9-34.92-14.73C37.42,157.75,13.78,102.68,3.87,79.15,1.8,73.85.16,68.6,0,63.25c-.16-14.1,7.05-28.51,11.66-42.24,2.76-7,4.66-14.04,8.48-19.82,4.66-5.41,7.63,8.69,14.89,23.53,10.33,23.53,20.09,45.84,30.79,70.22,13.3,30.74,29.84,67.25,40.33,92.42.85,2.49.9,5.09-2.01,6.09l-.42.16-.06-.04Z"
          fill="#000000"/>
  </g>

  <!-- ORIGINAAL LOGO PEAL -->
  <path class="cls-2"
        d="M169.83,192.97l-.53.21c-7.73,1.9-35.87,4.08-39-5.78-2.65-40.12-.21-138.8-.95-174.57-.48-11.07,6.09-12.08,15.58-12.61,10.29.48,30.37-3.81,30,11.08.27,27.77.11,103.93.11,140.07v20.56c-.21,12.24,1.22,18.76-5.19,21.04h-.02Z"/>
  <path class="cls-1"
        d="M103.66,193.57c-3.71,1.32-12.24,1.38-21.57,1.43-15.26,0-29.78.9-34.92-14.73C37.42,157.75,13.78,102.68,3.87,79.15,1.8,73.85.16,68.6,0,63.25c-.16-14.1,7.05-28.51,11.66-42.24,2.76-7,4.66-14.04,8.48-19.82,4.66-5.41,7.63,8.69,14.89,23.53,10.33,23.53,20.09,45.84,30.79,70.22,13.3,30.74,29.84,67.25,40.33,92.42.85,2.49.9,5.09-2.01,6.09l-.42.16-.06-.04Z"/>

  <!-- ÕHEM ALUMINE SISENEM STROKE + HELE LÄIGE -->
  <g mask="url(#stroke-mask)">
    <g mask="url(#clip-shape)" filter="url(#stroke-soft)">
      <!-- tume pehme stroke -->
      <path class="stroke-main"
            d="M169.83,192.97l-.53.21c-7.73,1.9-35.87,4.08-39-5.78-2.65-40.12-.21-138.8-.95-174.57-.48-11.07,6.09-12.08,15.58-12.61,10.29.48,30.37-3.81,30,11.08.27,27.77.11,103.93.11,140.07v20.56c-.21,12.24,1.22,18.76-5.19,21.04h-.02Z"/>
      <path class="stroke-main"
            d="M103.66,193.57c-3.71,1.32-12.24,1.38-21.57,1.43-15.26,0-29.78.9-34.92-14.73C37.42,157.75,13.78,102.68,3.87,79.15,1.8,73.85.16,68.6,0,63.25c-.16-14.1,7.05-28.51,11.66-42.24,2.76-7,4.66-14.04,8.48-19.82,4.66-5.41,7.63,8.69,14.89,23.53,10.33,23.53,20.09,45.84,30.79,70.22,13.3,30.74,29.84,67.25,40.33,92.42.85,2.49.9,5.09-2.01,6.09l-.42.16-.06-.04Z"/>

      <!-- õrn hele lisaläige sees -->
      <path
        d="M169.83,192.97l-.53.21c-7.73,1.9-35.87,4.08-39-5.78-2.65-40.12-.21-138.8-.95-174.57-.48-11.07,6.09-12.08,15.58-12.61,10.29.48,30.37-3.81,30,11.08.27,27.77.11,103.93.11,140.07v20.56c-.21,12.24,1.22,18.76-5.19,21.04h-.02Z"
        fill="none"
        stroke="#ECCBC9"
        stroke-width="1.8"
        stroke-opacity="0.35"
        stroke-linecap="round"
        stroke-linejoin="round"/>
      <path
        d="M103.66,193.57c-3.71,1.32-12.24,1.38-21.57,1.43-15.26,0-29.78.9-34.92-14.73C37.42,157.75,13.78,102.68,3.87,79.15,1.8,73.85.16,68.6,0,63.25c-.16-14.1,7.05-28.51,11.66-42.24,2.76-7,4.66-14.04,8.48-19.82,4.66-5.41,7.63,8.69,14.89,23.53,10.33,23.53,20.09,45.84,30.79,70.22,13.3,30.74,29.84,67.25,40.33,92.42.85,2.49.9,5.09-2.01,6.09l-.42.16-.06-.04Z"
        fill="none"
        stroke="#ECCBC9"
        stroke-width="1.8"
        stroke-opacity="0.35"
        stroke-linecap="round"
        stroke-linejoin="round"/>
    </g>
  </g>

</svg>
