<?xml version="1.0" encoding="UTF-8"?>
<svg id="Layer_1" xmlns="http://www.w3.org/2000/svg" version="1.1" xmlns:xlink="http://www.w3.org/1999/xlink" viewBox="0 0 192.76 192.76">
  <!-- Generator: Adobe Illustrator 29.5.0, SVG Export Plug-In . SVG Version: 2.1.0 Build 137)  -->
  <defs>
    <style>
      .st0 {
        fill: url(#linear-gradient1);
        filter: url(#drop-shadow-2);
      }

      .st1 {
        fill: url(#linear-gradient);
        filter: url(#drop-shadow-1);
      }

      .st2 {
        fill: url(#linear-gradient2);
        filter: url(#drop-shadow-3);
      }
    </style>
    <linearGradient id="linear-gradient" x1="64.95" y1="1698.33" x2="64.95" y2="1737.57" gradientTransform="translate(0 -1565.99)" gradientUnits="userSpaceOnUse">
      <stop offset="0" stop-color="#303030"/>
      <stop offset=".47" stop-color="#111"/>
      <stop offset="1" stop-color="#000"/>
    </linearGradient>
    <filter id="drop-shadow-1" x="36.83" y="123.95" width="70" height="70" filterUnits="userSpaceOnUse">
      <feOffset dx="7" dy="7"/>
      <feGaussianBlur result="blur" stdDeviation="5"/>
      <feFlood flood-color="#000" flood-opacity=".75"/>
      <feComposite in2="blur" operator="in"/>
      <feComposite in="SourceGraphic"/>
    </filter>
    <linearGradient id="linear-gradient1" x1="-4484.1" y1="962.78" x2="-4484.1" y2="961.78" gradientTransform="translate(497742.13 163828.64) scale(110.98 -170.15)" gradientUnits="userSpaceOnUse">
      <stop offset="0" stop-color="#f9eceb"/>
      <stop offset=".25" stop-color="#e0b0af"/>
      <stop offset=".5" stop-color="#b17c7c"/>
      <stop offset=".75" stop-color="#a27777"/>
      <stop offset="1" stop-color="#95706f"/>
    </linearGradient>
    <filter id="drop-shadow-2" x="32.83" y="3.95" width="142" height="201" filterUnits="userSpaceOnUse">
      <feOffset dx="7" dy="7"/>
      <feGaussianBlur result="blur1" stdDeviation="5"/>
      <feFlood flood-color="#000" flood-opacity=".75"/>
      <feComposite in2="blur1" operator="in"/>
      <feComposite in="SourceGraphic"/>
    </filter>
    <linearGradient id="linear-gradient2" x1="120.11" y1="-2502.54" x2="120.11" y2="-2537.72" gradientTransform="translate(0 -2480.29) scale(1 -1)" gradientUnits="userSpaceOnUse">
      <stop offset=".3" stop-color="#fafcff"/>
      <stop offset=".5" stop-color="#e9edf4"/>
      <stop offset=".77" stop-color="#b3bac6"/>
      <stop offset="1" stop-color="#9299a5"/>
    </linearGradient>
    <filter id="drop-shadow-3" x="91.83" y="11.95" width="70" height="68" filterUnits="userSpaceOnUse">
      <feOffset dx="7" dy="7"/>
      <feGaussianBlur result="blur2" stdDeviation="5"/>
      <feFlood flood-color="#000" flood-opacity=".75"/>
      <feComposite in2="blur2" operator="in"/>
      <feComposite in="SourceGraphic"/>
    </filter>
  </defs>
  <path class="st1" d="M63.58,132.46c24.06-2.42,28.53,35.69,5,38.88-27.44,3.73-31.31-36.25-5-38.88h0Z"/>
  <path class="st0" d="M104.26,182.25c12.09-7.44,17.57-24.24,16.05-38.01-4.05-36.82-63.52-30.11-76.25-66.81-10.27-29.62,5.14-56.58,34.21-65.26l2.23,1.76h0v.03h.03v-.02h0c-12.26,4.64-16.78,18.13-14.62,30.58,6.83,39.48,80.51,29.4,85.7,79.06,2.07,19.86-8.55,39.22-24.54,50.1-6.48,4.42-14.88,9.28-22.8,8.57"/>
  <path class="st2" d="M116.21,20.58c27.75-4.37,32.82,36.21,3.92,36.76-24.7.47-25.74-33.32-3.92-36.76Z"/>
</svg>