<?xml version="1.0" encoding="UTF-8"?>
<svg id="Layer_1" xmlns="http://www.w3.org/2000/svg" version="1.1" xmlns:xlink="http://www.w3.org/1999/xlink" viewBox="0 0 411.86 95.16">
  <!-- Generator: Adobe Illustrator 29.5.0, SVG Export Plug-In . SVG Version: 2.1.0 Build 137)  -->
  <defs>
    <style>
      .st0 {
        stroke: #fff;
      }

      .st0, .st1, .st2, .st3, .st4 {
        stroke-miterlimit: 10;
      }

      .st0, .st3 {
        stroke-width: .5px;
      }

      .st0, .st3, .st5 {
        fill: #f4f4f4;
      }

      .st1 {
        fill: url(#linear-gradient2);
      }

      .st1, .st2, .st4 {
        stroke: #000;
        stroke-opacity: .5;
        stroke-width: .1px;
      }

      .st2 {
        fill: url(#linear-gradient1);
      }

      .st3 {
        stroke: #f4f4f4;
      }

      .st4 {
        fill: url(#linear-gradient);
      }
    </style>
    <linearGradient id="linear-gradient" x1="172" y1="115.81" x2="172" y2="108.06" gradientTransform="translate(0 150.77) scale(1 -1)" gradientUnits="userSpaceOnUse">
      <stop offset="0" stop-color="#666"/>
      <stop offset=".5" stop-color="#383838"/>
      <stop offset=".81" stop-color="#1c1c1c"/>
      <stop offset="1" stop-color="#111"/>
    </linearGradient>
    <linearGradient id="linear-gradient1" x1="184.85" y1="-1624.59" x2="184.85" y2="-1655.85" gradientTransform="translate(0 -1613.23) scale(1 -1)" gradientUnits="userSpaceOnUse">
      <stop offset="0" stop-color="#f6f9fe"/>
      <stop offset=".18" stop-color="#e0e6f1"/>
      <stop offset=".48" stop-color="#aeb6c2"/>
      <stop offset=".75" stop-color="#cfd6e3"/>
    </linearGradient>
    <linearGradient id="linear-gradient2" x1="310.88" y1="-1625.03" x2="310.88" y2="-1656.3" xlink:href="#linear-gradient1"/>
  </defs>
  <path class="st5" d="M181.71,45.81c.15-.61,1.07-1.15,1.37-1.79,2.22-3.59,1.92-8.94-2.21-11.03-4.23-2.41-10.48-3.62-12.02-8.89-1.01-3.44-.3-7.43,2.27-9.87,1.09-1.1,2.69-2.24,4.18-2.52.35-.01-.03.37-.61.96-2.31,2.35-1.86,6.65.52,8.78,3.89,3.62,9.9,3.87,13.51,7.98,4.82,5.73-.09,15.22-6.98,16.4l-.03-.03ZM184.76,20.4c-4.45-.14-5.14-6.5-.7-7.52,5.43-1.01,6.3,7.33.87,7.52h-.17ZM171.95,42.65c-5.28-.22-4.81-8.01.48-7.6,4.55.55,4.27,7.46-.31,7.6h-.17Z"/>
  <path class="st3" d="M199.61,44.19c-.29-.1-.42-.27-.48-.56-.09-.92-.02-3.3-.04-6.42,0-6.2,0-18.02,0-23.18.02-1.63-.22-2.17,1.45-2.27.46-.03.95-.04,1.45-.04,1.2,0,2.95-.06,4,.13.8.16.8.59.8,1.5-.09,5.67.18,25.75-.1,30.42-.1.24-.3.38-.7.47-.62.14-1.84.13-3.15.13-1.39,0-2.59,0-3.13-.15l-.09-.03Z"/>
  <path class="st3" d="M228.34,44.86c-.11.13-.19-.02-.26-.13-.34-.69-1.2-2.79-2.37-5.52-2.55-6-7.1-16.73-9.32-21.95-1.82-3.74-2.03-5.96,3.16-5.75,1.36.03,3-.08,3.48,1.28,1.13,2.73,4.74,11.91,6.62,16.61.88,2.03,1.5,3.5.85,5.6-.68,2.96-1.45,7.54-2.15,9.81l-.02.04ZM239.44,44.19c-.29-.1-.42-.27-.47-.56-.09-.92-.02-3.3-.04-6.42,0-6.2,0-18.02,0-23.18.02-1.63-.22-2.17,1.43-2.27.45-.03.95-.04,1.43-.04,1.2,0,3.05-.07,4.06.15.72.18.69.65.69,1.6-.09,5.87.18,25.65-.1,30.29-.1.24-.3.38-.69.47-.61.14-1.83.13-3.12.13-1.38,0-2.57,0-3.11-.15l-.08-.03Z"/>
  <path class="st5" d="M307.78,45.91c.15-.61,1.07-1.15,1.37-1.79,2.22-3.59,1.92-8.94-2.21-11.03-4.23-2.41-10.48-3.62-12.02-8.89-1.01-3.44-.3-7.43,2.27-9.87,1.09-1.1,2.69-2.24,4.18-2.52.35-.01-.03.37-.61.96-2.31,2.35-1.86,6.65.52,8.78,3.89,3.62,9.9,3.87,13.51,7.98,4.82,5.73-.09,15.22-6.98,16.4l-.03-.03ZM310.82,20.5c-4.45-.14-5.14-6.5-.7-7.52,5.43-1.01,6.3,7.33.87,7.52h-.17Z"/>
  <g>
    <g>
      <path class="st0" d="M325.38,44.9c-.26-.09-.38-.23-.43-.47-.1-.87-.02-3.3-.05-6.5,0-6.21,0-18.28,0-23.36.03-1.53-.23-2.02,1.4-2.1.46-.03.97-.04,1.47-.04,1.21,0,3.01-.06,4.07.11.78.15.75.57.75,1.49-.08,5.69.15,25.78-.08,30.47-.09.24-.28.38-.67.46-.61.13-1.85.11-3.2.12-1.43,0-2.65.01-3.17-.14l-.08-.03Z"/>
      <path class="st0" d="M343.23,15.31c-1.16-1.23-2.23-2.03-3.23-2.38-.99-.34-1.48-.52-1.48-.52h7.63v7.56s-.19-.45-.56-1.35c-.38-.92-1.16-2.02-2.35-3.31Z"/>
      <path class="st0" d="M340.65,23.43c.2,2.94.07,8.47.04,11.74-.08.14-.41-.71-.51-.86-1.01-2-3.13-3.75-5.09-4.78-.53-.47,1.3-.98,1.66-1.39,1.64-1.17,3.09-2.84,3.87-4.68l.03-.04Z"/>
      <path class="st0" d="M344.05,41.58c1.4-1.44,2.32-2.71,2.77-3.79.46-1.09.69-1.65.69-1.65v8.92h-8.98l.81-.25c.54-.17,1.23-.49,2.06-.98.84-.5,1.73-1.25,2.65-2.25Z"/>
    </g>
    <g>
      <path class="st0" d="M366.81,45.8c-.13.13-.46-.03-.63-.07-2.64-1.14-5.4-3.03-7.43-5.2-8.97-9.76-3.98-23.86,7.62-28.77,1.01-.33-.08,1.23-.29,1.73-2.74,5.7-2.49,12.37-2.4,18.72.2,3.93.55,8,2.31,11.62.27.6.92,1.48.84,1.93l-.02.03Z"/>
      <path class="st0" d="M373.98,45.34c-.06.05-.07-.04-.03-.27.48-2.21.84-4.56,1.05-6.79.2-1.89.27-3.95.34-5.99.05-.75.15-1.61.87-1.93.77-.39,2.5-.22,4.01-.26.97.05,2.28-.05,2.66.68.15.33.13.6.15.81.01,2.6.02,5.08,0,7.73-.1,4.91-5.45-1.42-9.03,5.98l-.03.03Z"/>
    </g>
    <path class="st0" d="M403.24,44.74c-.5-.2-.7-.61-.93-1.1-1.46-3.5-6.92-16.61-8.28-19.91-.23-.61-.35-1.05-.22-1.7.74-2.6,2.82-7.7,3.53-9.63.41-.98.56-1.02.83-.44,1.7,4.23,11.99,27.79,13.69,32.56.02.33-.77.42-1.2.43-1.54,0-5.74.2-7.33-.16l-.09-.03Z"/>
  </g>
  <path class="st5" d="M48.37,94.16c-.29-.1-.42-.27-.48-.56-.09-.92-.02-3.3-.04-6.42,0-6.2,0-18.02,0-23.18.02-1.63-.22-2.17,1.45-2.27.46-.03.95-.04,1.45-.04,1.2,0,2.95-.06,4,.13.8.16.8.59.8,1.5-.09,5.67.18,25.75-.1,30.42-.1.24-.3.38-.7.47-.62.14-1.84.13-3.15.13-1.39,0-2.59,0-3.13-.15l-.09-.03ZM60.18,81.05c-.03-.16.14-.41.43-.76.93-1.05,1.82-2.31,2.21-3.72,1.27-4.88,1.09-11.41-3.55-14.39-.12-.1-.54-.45-.07-.45,7.3.45,13.54,5.57,10.96,13.37-1.31,3.87-5.56,5.93-9.41,6.15-.17-.01-.49,0-.56-.16l-.02-.04Z"/>
  <path class="st5" d="M87.78,56.81c-3.48-.2-3.85-5.24-.29-5.75,4.01-.41,4.34,5.46.46,5.75h-.17ZM96.46,56.81c-3.98-.3-3.61-6.16.49-5.74,3.36.47,2.94,5.62-.33,5.74h-.17ZM87.47,95.08c-.13.13-.46-.03-.63-.07-2.64-1.14-5.4-3.03-7.43-5.2-8.97-9.76-3.98-23.86,7.62-28.77,1.01-.33-.08,1.23-.29,1.73-2.74,5.7-2.49,12.37-2.4,18.72.2,3.93.55,8,2.31,11.62.27.6.92,1.48.84,1.93l-.02.03ZM96.8,95.05c-.09-.46.58-1.33.84-1.93,1.8-3.62,2.17-7.69,2.37-11.63.11-6.36.34-13.04-2.45-18.73-.23-.55-1.3-2.02-.3-1.73,11.67,4.97,16.61,19.2,7.47,28.93-1.97,2.08-4.67,3.91-7.23,5.03-.19.04-.48.22-.66.09l-.02-.03Z"/>
  <g>
    <path class="st5" d="M128.54,56.81c-3.48-.2-3.85-5.24-.29-5.75,4.01-.41,4.34,5.46.46,5.75h-.17Z"/>
    <path class="st5" d="M137.22,56.81c-3.98-.3-3.61-6.16.49-5.74,3.36.47,2.94,5.62-.33,5.74h-.17Z"/>
    <path class="st5" d="M128.23,95.08c-.13.13-.46-.03-.63-.07-2.64-1.14-5.4-3.03-7.43-5.2-8.97-9.76-3.98-23.86,7.62-28.77,1.01-.33-.08,1.23-.29,1.73-2.74,5.7-2.49,12.37-2.4,18.72.2,3.93.55,8,2.31,11.62.27.6.92,1.48.84,1.93l-.02.03Z"/>
    <path class="st5" d="M137.56,95.05c-.09-.46.58-1.33.84-1.93,1.8-3.62,2.17-7.69,2.37-11.63.11-6.36.34-13.04-2.45-18.73-.23-.55-1.3-2.02-.3-1.73,11.67,4.97,16.61,19.2,7.47,28.93-1.97,2.08-4.67,3.91-7.23,5.03-.19.04-.48.22-.66.09l-.02-.03Z"/>
  </g>
  <path class="st5" d="M158.7,94.11c-.29-.1-.42-.27-.48-.56-.09-.92-.02-3.3-.04-6.42,0-6.2,0-18.04,0-23.2.02-1.64-.22-2.18,1.45-2.26.46-.02.95-.03,1.45-.03,1.2.01,2.95-.03,4,.16.8.17.8.6.8,1.52-.09,5.69.18,25.68-.1,30.36-.1.24-.3.39-.7.47-.62.14-1.84.13-3.15.13-1.39,0-2.59,0-3.13-.15l-.09-.03ZM184.27,94.74c-1.47,1.19-5.44-.38-6.67-1.63-4.23-4.64.17-9.9-6.41-14.3-.62-.57-.7-1.16-.11-1.89,3.9-3.85,3.78-11.73-1.1-14.51-.24-.22-1.09-.67-.4-.7,3.66.37,8,1.28,10.47,4.28,2.07,2.62,1.66,6.81-.95,8.99-1.42,1.28-3.48,2.03-5.28,2.47-.97.25-1.57.41-1.54.56,8,2.12,11.54,3.33,11.75,12.66,0,1.31.78,2.8.3,4l-.05.07Z"/>
  <path class="st5" d="M191.61,94.18c-.26-.09-.38-.23-.43-.47-.1-.87-.02-3.3-.05-6.5,0-6.21,0-18.28,0-23.36.03-1.53-.23-2.02,1.4-2.1.46-.03.97-.04,1.47-.04,1.21,0,3.01-.06,4.07.11.78.15.75.57.75,1.49-.08,5.69.15,25.78-.08,30.47-.09.24-.28.38-.67.46-.61.13-1.85.11-3.2.12-1.43,0-2.65.01-3.17-.14l-.08-.03ZM208.6,94.23c-.05-.27.18-.6.35-.95,2.14-3.56,2.62-7.8,2.81-11.8.13-6.48.36-13.38-2.92-19.02-.35-.69-.24-.93.57-.55,10.88,4.69,16.1,17.74,7.33,27.13-2.04,2.15-4.81,3.99-7.47,5.14-.19.04-.48.22-.66.09l-.02-.03Z"/>
  <path class="st5" d="M236.43,78.71c.1,4.7.29,10.13,2.56,14.43.17.44.92,1.38.49,1.62-5.51-1.85-10.58-6.78-11.91-12.39-.61-2.53-.54-4.78-.53-7.39.03-3.54.01-9.69.07-12.02.03-.69.21-1.3.98-1.44,1.24-.23,2.81-.13,4.25-.15,1.83.1,4.48-.51,4.19,1.91,0,4-.11,10.95-.1,15.26v.16Z"/>
  <g>
    <path class="st5" d="M267.22,94.6c-.07-.16.04-.37.26-.63.81-.9,1.96-1.79,2.39-2.98.48-1.28.32-2.23.35-4.06,0-2.27,0-5.71,0-9.32,0-5.95-.02-12.33.01-14.65,0-.94.53-1.23,1.53-1.3,1.38-.11,4.15-.12,5.72,0,.88.09,1.29.3,1.44.77.19.65.08,1.9.11,3.59-.1,6.73.2,15.46-.12,21.95-.27,2.78-3.28,5.99-6.44,6.61-1.38.36-4.2.77-5.22.06l-.03-.05Z"/>
    <path class="st0" d="M302.1,94.31c-.5-.2-.7-.61-.93-1.1-1.46-3.5-6.92-16.61-8.28-19.91-.23-.61-.35-1.05-.22-1.7.74-2.6,2.82-7.7,3.53-9.63.41-.98.56-1.02.83-.44,1.7,4.23,11.99,27.79,13.69,32.56.02.33-.77.42-1.2.43-1.54,0-5.74.2-7.33-.16l-.09-.03Z"/>
    <path class="st0" d="M318.26,94.17c-.26-.09-.38-.23-.43-.47-.1-.87-.02-3.3-.05-6.51,0-6.21,0-18.29,0-23.38.03-1.53-.23-2.02,1.4-2.1.46-.03.97-.04,1.47-.04,1.21,0,3.01-.06,4.07.12.78.15.75.58.75,1.5-.1,5.73.19,26.01-.11,30.47-.71.83-2.21.41-3.84.55-1.43,0-2.65.04-3.17-.11l-.08-.03ZM331.51,94.29c3.34-.97,6.18-4.15,7.39-7.24.11-.26.18-.35.2-.18-.05,1.95.19,5.43-.1,7.36-.33.23-1.67.07-2.27.12-1.53-.03-3.92.07-5.24-.04l.02-.02Z"/>
    <g>
      <path class="st0" d="M348.04,94.14c-.29-.1-.42-.27-.48-.56-.09-.92-.02-3.3-.04-6.42,0-6.2,0-18.02,0-23.18.02-1.63-.22-2.17,1.45-2.27.46-.03.95-.04,1.45-.04,1.2,0,2.95-.06,4,.13.8.16.8.59.8,1.5-.09,5.67.18,25.75-.1,30.42-.1.24-.3.38-.7.47-.62.14-1.84.13-3.15.13-1.39,0-2.59,0-3.13-.15l-.09-.03Z"/>
      <path class="st0" d="M365.85,64.57c-1.16-1.23-2.23-2.03-3.23-2.38-.99-.34-1.48-.52-1.48-.52h7.63v7.56s-.19-.45-.56-1.35c-.38-.92-1.16-2.02-2.35-3.31Z"/>
      <path class="st0" d="M363.27,72.69c.2,2.94.07,8.47.04,11.74-.08.14-.41-.71-.51-.86-1.01-2-3.13-3.75-5.09-4.78-.53-.47,1.3-.98,1.66-1.39,1.64-1.17,3.09-2.84,3.87-4.68l.03-.04Z"/>
      <path class="st0" d="M366.67,90.85c1.4-1.44,2.32-2.71,2.77-3.79.46-1.09.69-1.65.69-1.65v8.92h-8.98l.81-.25c.54-.17,1.23-.49,2.06-.98.84-.5,1.73-1.25,2.65-2.25Z"/>
    </g>
  </g>
  <path class="st5" d="M211.99,81.23l.06-16.54"/>
  <path class="st5" d="M211.94,64.69l.06,16.54"/>
  <path class="st5" d="M211.94,64.69l.06,16.54"/>
  <path class="st5" d="M250.73,61.29c1.76-.52,5.03-.2,6.95-.24,1.42,0,2,.51,1.94,1.87.03,3.28.05,10.01.06,13.96.28,6.05-2.67,11.78-7.89,15.18-1.35.89-2.94,1.92-4.43,2.35-.87.07.84-2.26.93-2.78,3.25-8.8,1.61-19.22,1.9-28.16,0-1.16-.02-1.83.46-2.13l.08-.05Z"/>
  <g>
    <g>
      <path class="st5" d="M99.67,10.87c.52-.16,1.74-.14,3.17-.14,1.64.12,3.13-.3,3.84.52.31,4.44.01,24.74.11,30.45,0,.92.03,1.35-.75,1.5-1.06.17-2.85.11-4.07.12-.5,0-1.01-.01-1.47-.04-1.62-.08-1.37-.57-1.4-2.12,0-5.11,0-17.02,0-23.22.02-3.23-.05-5.68.05-6.56.05-.24.17-.39.43-.48l.08-.03Z"/>
      <path class="st5" d="M110.49,21.85c.19-.12.34-.05.48.1.44.52,1.24,1.98,2.39,3.84,2.5,4.17,8.87,14.53,10.23,16.96.58,1.22-3.07.65-3.9.79-1.91-.07-4.11.38-5.05-1.47-1.58-2.6-5.99-9.91-7.43-12.38-.61-1.02-.44-1.84.17-2.92.71-1.21,2.19-3.98,3.06-4.88l.06-.04Z"/>
    </g>
    <g>
      <g>
        <path class="st5" d="M140.1,5.77c-.78,0-1.46-.29-2.04-.88-.54-.55-.82-1.17-.85-1.89-.05-.95.42-1.89,1.19-2.45.5-.37,1.07-.55,1.71-.55.79,0,1.46.27,2.02.81.55.53.83,1.21.83,2.04,0,.78-.28,1.46-.83,2.04-.56.58-1.23.88-2.02.88Z"/>
        <path class="st5" d="M149.75,0c.78,0,1.44.27,1.98.81.54.53.81,1.21.81,2.04,0,.78-.27,1.46-.81,2.04s-1.2.88-1.98.88-1.48-.29-2.06-.88c-.53-.54-.81-1.17-.85-1.88-.05-.95.41-1.89,1.18-2.45.51-.37,1.09-.56,1.73-.56Z"/>
      </g>
      <path class="st5" d="M138.14,27.68c.1,4.7.29,10.13,2.56,14.43.17.44.92,1.38.49,1.62-5.51-1.85-10.58-6.78-11.91-12.39-.61-2.53-.54-4.78-.53-7.39.03-3.54.01-9.69.07-12.02.03-.69.21-1.3.98-1.44,1.24-.23,2.81-.13,4.25-.15,1.83.1,4.48-.51,4.19,1.91,0,4-.11,10.95-.1,15.26v.16Z"/>
    </g>
    <g>
      <path class="st5" d="M.48,43.25c-.26-.09-.38-.23-.43-.47-.1-.87-.02-3.3-.05-6.5,0-6.21,0-18.28,0-23.36.03-1.53-.23-2.02,1.4-2.1.46-.03.97-.04,1.47-.04,1.21,0,3.01-.06,4.07.11.78.15.75.57.75,1.49-.08,5.69.15,25.78-.08,30.47-.09.24-.28.38-.67.46-.61.13-1.85.11-3.2.12-1.43,0-2.65.01-3.17-.14l-.08-.03ZM18.24,13.63c-1.33-1.38-2.37-2.11-3.96-2.65-.15-.07-.72-.22-.49-.29.74-.03,5.74-.01,7.02,0,.23.01.49.04.51.32.05.86.03,6.31,0,7.15-.02.15-.08.09-.17-.11-.62-1.57-1.57-3.01-2.77-4.27l-.15-.16ZM15.74,21.79c.19,2.43.01,10.44.06,11.63-.03.29-.12.04-.25-.23-.91-2.15-3.08-4.21-5.15-5.17-.23-.13-.51-.28-.21-.5,2.25-1.06,4.61-3.27,5.52-5.68l.03-.04ZM22.61,34.5v8.92h-8.98c3.56-.92,6.68-4.1,8.29-7.27.46-1.09.69-1.65.69-1.65Z"/>
      <path class="st5" d="M31.58,43.26c-.26-.09-.38-.23-.43-.47-.1-.87-.02-3.3-.05-6.51,0-6.04-.01-20.43,0-24.47-.01-.76.44-.96,1.24-1,.79-.06,2.13-.05,3.36-.05,1.41.03,3.26-.1,3.07,1.61-.12,5.91.25,24.62-.14,30.26-.14.31-.43.49-.97.6-1.48.19-4.38.28-6.02.05l-.08-.03ZM44.9,43.35c3.3-1.03,6.1-4.08,7.34-7.2.33-.77.19.48.22,1.15-.09,1.73.18,4.45-.11,6.03-.13.14-.48.11-1.1.12-1.88-.07-4.76.13-6.4-.07l.05-.03Z"/>
      <path class="st5" d="M69.49,27.82c.05,3.68.29,8.29,1.53,11.97.54,1.97,2.01,3.58,1.43,4.01-5.5-1.79-10.54-6.79-11.87-12.34-1.13-5.51-.33-13.9-.49-19.06-.08-1.68,1.08-1.98,2.64-1.97,1.43-.03,3.62-.06,5,.05,1.57.07,1.86.84,1.85,2.1,0,4.12-.11,10.76-.09,15.08v.17Z"/>
      <path class="st5" d="M83.37,10.62c1.76-.52,5.03-.2,6.95-.24,1.42,0,2,.51,1.94,1.87.03,3.28.05,10.01.06,13.96.28,6.05-2.67,11.78-7.89,15.18-1.35.89-2.94,1.92-4.43,2.35-.87.07.84-2.26.93-2.78,3.25-8.8,1.61-19.22,1.9-28.16,0-1.16-.02-1.83.46-2.13l.08-.05Z"/>
    </g>
    <path class="st5" d="M152.2,10.82c1.76-.52,5.03-.2,6.95-.24,1.42,0,2,.51,1.94,1.87.03,3.28.05,10.01.06,13.96.28,6.05-2.67,11.78-7.89,15.18-1.35.89-2.94,1.92-4.43,2.35-.87.07.84-2.26.93-2.78,3.25-8.8,1.61-19.22,1.9-28.16,0-1.16-.02-1.83.46-2.13l.08-.05Z"/>
  </g>
  <g>
    <path class="st3" d="M263.72,28.95c.1,4.7.29,10.13,2.56,14.43.17.44.92,1.38.49,1.62-5.51-1.85-10.58-6.78-11.91-12.39-.61-2.53-.54-4.78-.53-7.39.03-3.54.01-9.69.07-12.02.03-.69.21-1.3.98-1.44,1.24-.23,2.81-.13,4.25-.15,1.83.1,4.48-.51,4.19,1.91,0,4-.11,10.95-.1,15.26v.16Z"/>
    <path class="st3" d="M277.77,12.09c1.76-.52,5.03-.2,6.95-.24,1.42,0,2,.51,1.94,1.87.03,3.28.05,10.01.06,13.96.28,6.05-2.67,11.78-7.89,15.18-1.35.89-2.94,1.92-4.43,2.35-.87.07.84-2.26.93-2.78,3.25-8.8,1.61-19.22,1.9-28.16,0-1.16-.02-1.83.46-2.13l.08-.05Z"/>
  </g>
  <g>
    <path class="st4" d="M171.73,34.98c4.75-.48,5.64,7.05.99,7.68-5.42.74-6.19-7.16-.99-7.68h0Z"/>
    <path class="st2" d="M184.08,12.68c5.45-.86,6.44,7.11.77,7.22-4.85.09-5.05-6.54-.77-7.22Z"/>
  </g>
  <path class="st1" d="M310.11,13.12c5.45-.86,6.44,7.11.77,7.22-4.85.09-5.05-6.54-.77-7.22Z"/>
</svg>