<?xml version="1.0" encoding="UTF-8"?>
<svg id="Layer_1" xmlns="http://www.w3.org/2000/svg" version="1.1" xmlns:xlink="http://www.w3.org/1999/xlink" viewBox="0 0 374.85 96.74">
  <!-- Generator: Adobe Illustrator 29.5.0, SVG Export Plug-In . SVG Version: 2.1.0 Build 137)  -->
  <defs>
    <style>
      .st0 {
        fill: url(#linear-gradient2);
      }

      .st0, .st1, .st2, .st3, .st4, .st5, .st6, .st7 {
        stroke: #000;
        stroke-miterlimit: 10;
      }

      .st0, .st1, .st2, .st4, .st5, .st6, .st7 {
        stroke-opacity: .5;
        stroke-width: .1px;
      }

      .st1 {
        fill: url(#linear-gradient1);
      }

      .st8, .st3 {
        fill: #142242;
      }

      .st2 {
        fill: url(#linear-gradient6);
      }

      .st3 {
        stroke-width: .5px;
      }

      .st4 {
        fill: url(#linear-gradient3);
      }

      .st5 {
        fill: url(#linear-gradient);
      }

      .st6 {
        fill: url(#linear-gradient5);
      }

      .st7 {
        fill: url(#linear-gradient4);
      }
    </style>
    <linearGradient id="linear-gradient" x1="23.08" y1="65.33" x2="23.08" y2="57.58" gradientTransform="translate(0 100.81) scale(1 -1)" gradientUnits="userSpaceOnUse">
      <stop offset="0" stop-color="#666"/>
      <stop offset=".5" stop-color="#383838"/>
      <stop offset=".81" stop-color="#1c1c1c"/>
      <stop offset="1" stop-color="#111"/>
    </linearGradient>
    <linearGradient id="linear-gradient1" x1="35.92" y1="-1675.07" x2="35.92" y2="-1706.33" gradientTransform="translate(0 -1663.19) scale(1 -1)" gradientUnits="userSpaceOnUse">
      <stop offset="0" stop-color="#f6f9fe"/>
      <stop offset=".18" stop-color="#e0e6f1"/>
      <stop offset=".48" stop-color="#aeb6c2"/>
      <stop offset=".75" stop-color="#cfd6e3"/>
    </linearGradient>
    <linearGradient id="linear-gradient2" x1="3.84" y1="15.01" x2="3.84" y2="7.26" xlink:href="#linear-gradient"/>
    <linearGradient id="linear-gradient3" x1="292.04" y1="100.76" x2="292.04" y2="94.18" xlink:href="#linear-gradient"/>
    <linearGradient id="linear-gradient4" x1="302.33" y1="100.76" x2="302.33" y2="94.18" xlink:href="#linear-gradient"/>
    <linearGradient id="linear-gradient5" x1="333.01" y1="100.76" x2="333.01" y2="94.18" xlink:href="#linear-gradient"/>
    <linearGradient id="linear-gradient6" x1="343.38" y1="100.76" x2="343.38" y2="94.18" xlink:href="#linear-gradient"/>
  </defs>
  <path class="st8" d="M4,93.28h-.17"/>
  <g>
    <path class="st3" d="M32.72,46.47c3.52-3.46,4.26-10.23-.76-12.83-4.23-2.41-10.48-3.62-12.03-8.88-1.01-3.44-.3-7.42,2.28-9.86,1.09-1.1,2.69-2.23,4.18-2.52.35-.01-.04.37-.62.96-2.3,2.35-1.86,6.64.52,8.77,3.85,3.57,9.89,3.92,13.42,7.87,4.99,5.72,0,15.37-6.97,16.52l-.02-.03Z"/>
    <path class="st3" d="M59.6,46.49c-.15.1-.49-.06-.66-.11-1.87-.82-3.62-1.9-5.27-3.22-11.47-9.18-7.29-25.36,5.45-30.73,1.01-.33-.08,1.23-.29,1.73-2.73,5.69-2.47,12.35-2.38,18.69.2,4.28.63,8.84,2.85,12.64.27.5.42.84.33.98l-.03.03ZM68.86,46.43c-.04-.48.63-1.35.91-1.96,1.8-3.62,2.16-7.68,2.36-11.61.1-6.35.34-13.03-2.44-18.7-.23-.54-1.3-2.02-.31-1.73,12.81,5.43,16.92,21.74,5.27,30.87-1.53,1.21-3.36,2.33-5.05,3.07-.18.06-.59.25-.72.1l-.02-.04Z"/>
    <path class="st3" d="M89.46,20.56c-.11-.99-.01-3.26-.04-4.53.05-.76-.14-2.44.14-2.89.18-.23,1.45-.12,2.03-.14,1.62.02,3.89-.03,5.39.02.27.04-.33.24-.44.28-3.2,1.05-5.75,4.31-7.05,7.25h-.02ZM98.53,45.55c-.24-.09-.33-.24-.37-.48-.07-.87-.01-3.3-.03-6.5,0-6.2,0-18.21,0-23.36.03-1.53-.23-2.02,1.4-2.1.46-.03.97-.04,1.47-.04,1.21,0,3.01-.06,4.07.11.75.15.75.53.75,1.37-.1,5.51.2,26.18-.11,30.66-.11.22-.33.34-.75.41-.69.12-2.12.09-3.53.1-1.33,0-2.37,0-2.82-.14l-.07-.03ZM114.44,20.54c-1.21-2.98-3.81-6.22-6.98-7.24-.12-.05-.77-.25-.47-.28,2.03.06,5.43-.2,7.4.1.26.55.06,2.34.12,3.19-.04,1.21.08,3.3-.05,4.25l-.03-.02Z"/>
    <path class="st3" d="M134.99,46.47c3.52-3.46,4.26-10.23-.76-12.83-4.23-2.41-10.48-3.62-12.03-8.88-1.01-3.44-.3-7.42,2.28-9.86,1.09-1.1,2.69-2.23,4.18-2.52.35-.01-.04.37-.62.96-2.3,2.35-1.86,6.64.52,8.77,3.85,3.57,9.89,3.92,13.42,7.87,4.99,5.72,0,15.37-6.97,16.52l-.02-.03Z"/>
    <path class="st3" d="M151.48,45.54c-.24-.1-.35-.25-.4-.49-.09-.88-.02-3.29-.04-6.49,0-6.19,0-17.96,0-23.17.02-1.63-.22-2.17,1.45-2.27.46-.03.95-.04,1.45-.04,1.2,0,2.95-.06,4,.13.8.16.8.59.8,1.5-.12,5.7.23,26.06-.13,30.49-.12.22-.35.35-.78.43-.7.12-2.1.1-3.47.11-1.29,0-2.33,0-2.79-.16l-.08-.03Z"/>
    <path class="st3" d="M182.8,45.7c-.47-.21-.65-.63-.86-1.1-1.59-3.97-7.15-16.84-8.5-20.64-.16-1.12.23-1.71.69-3.08.87-2.3,2.29-6.14,2.85-7.53.41-.98.56-1.01.83-.44,1.7,4.23,12,27.8,13.69,32.57.02.33-.77.42-1.2.43-1.53,0-5.88.21-7.41-.16l-.09-.03Z"/>
    <path class="st3" d="M214.15,45.7c-.47-.21-.65-.63-.86-1.1-1.59-3.97-7.15-16.84-8.5-20.64-.16-1.12.23-1.71.69-3.08.87-2.3,2.29-6.14,2.85-7.53.41-.98.56-1.01.83-.44,1.7,4.23,12,27.8,13.69,32.57.02.33-.77.42-1.2.43-1.53,0-5.88.21-7.41-.16l-.09-.03Z"/>
    <path class="st3" d="M230.42,45.54c-.29-.1-.42-.27-.48-.55-.09-.92-.02-3.3-.04-6.42,0-6.2,0-18.03,0-23.19.02-1.64-.22-2.18,1.45-2.27.46-.03.95-.04,1.45-.04,1.2,0,2.95-.06,4,.13.8.16.8.59.8,1.51-.09,5.69.18,25.67-.1,30.36-.1.24-.3.39-.7.48-.62.14-1.84.14-3.15.16-1.39,0-2.59.03-3.13-.13l-.09-.03ZM243.64,45.69c3.32-.95,6.2-4.25,7.37-7.26.11-.24.17-.33.2-.16.03.2.02.81.02,1.56,0,1.47,0,3.16,0,4.63.1,1.5-.3,1.29-1.44,1.29-1.86-.04-4.5.08-6.19-.05l.03-.02Z"/>
    <path class="st3" d="M252.57,20.56c-.11-.99-.01-3.26-.04-4.53.05-.76-.14-2.44.14-2.89.18-.23,1.45-.12,2.03-.14,1.62.02,3.89-.03,5.39.02.27.04-.33.24-.44.28-3.2,1.05-5.75,4.31-7.05,7.25h-.02ZM261.68,45.54c-.24-.1-.35-.25-.4-.49-.09-.88-.02-3.29-.04-6.49,0-6.19,0-17.96,0-23.17.02-1.63-.22-2.17,1.45-2.27.46-.03.95-.04,1.45-.04,1.2,0,2.95-.06,4,.13.8.16.8.59.8,1.5-.12,5.7.23,26.06-.13,30.49-.12.22-.35.35-.78.43-.7.12-2.1.1-3.47.11-1.29,0-2.33,0-2.79-.16l-.08-.03ZM277.55,20.52c-1.28-3.07-3.95-6.31-7.24-7.33-.26-.1-.35-.16-.21-.19.16-.03.64-.02,1.26-.02,1.52,0,3.29,0,4.82,0,1.37,0,1.48-.1,1.45,1.08-.05,1.89.1,4.81-.06,6.48l-.03-.02Z"/>
    <path class="st3" d="M292.96,46.48c-.14.11-.47-.04-.64-.08-2.7-1.18-5.33-3-7.39-5.19-9-9.74-3.95-23.97,7.55-28.79,1.01-.28-.06,1.33-.27,1.85-2.64,5.65-2.42,12.19-2.32,18.57.19,3.95.56,8.04,2.33,11.66.25.59.92,1.53.77,1.95l-.03.03Z"/>
    <path class="st3" d="M302.34,46.43c-.08-.47.61-1.44.88-2.07,1.73-3.59,2.12-7.6,2.31-11.5.11-6.35.33-12.86-2.38-18.59-.23-.57-1.29-2.1-.29-1.85,12.96,5.49,16.9,22.02,5.04,31.07-1.63,1.21-3.41,2.4-5.22,3.03-.1.01-.26.04-.31-.05l-.02-.04Z"/>
    <path class="st3" d="M333.72,46.48c-.14.11-.47-.04-.64-.08-2.7-1.18-5.33-3-7.39-5.19-9-9.74-3.95-23.97,7.55-28.79,1.01-.28-.06,1.33-.27,1.85-2.64,5.65-2.42,12.19-2.32,18.57.19,3.95.56,8.04,2.33,11.66.25.59.92,1.53.77,1.95l-.03.03Z"/>
    <path class="st3" d="M343.1,46.43c-.08-.47.61-1.44.88-2.07,1.73-3.59,2.12-7.6,2.31-11.5.11-6.35.33-12.86-2.38-18.59-.23-.57-1.29-2.1-.29-1.85,12.96,5.49,16.9,22.02,5.04,31.07-1.63,1.21-3.41,2.4-5.22,3.03-.1.01-.26.04-.31-.05l-.02-.04Z"/>
    <path class="st3" d="M13.51,96.44c3.52-3.46,4.26-10.23-.76-12.83-4.23-2.41-10.48-3.62-12.03-8.88-1.01-3.44-.3-7.42,2.28-9.86,1.09-1.1,2.69-2.23,4.18-2.52.35-.01-.04.37-.62.96-2.3,2.35-1.86,6.64.52,8.77,3.85,3.57,9.89,3.92,13.42,7.87,4.99,5.72,0,15.37-6.97,16.52l-.02-.03Z"/>
    <path class="st3" d="M30.08,95.5c-.29-.1-.42-.27-.48-.56-.09-.92-.02-3.3-.04-6.42,0-6.2,0-18.03,0-23.18.02-1.63-.22-2.17,1.45-2.27.46-.03.95-.04,1.45-.04,1.2,0,2.95-.06,4,.13.8.16.8.59.8,1.5-.09,5.67.18,25.75-.1,30.42-.1.24-.3.38-.7.47-.62.14-1.84.13-3.15.13-1.39,0-2.59,0-3.13-.15l-.09-.03ZM41.9,82.39c-.04-.16.13-.41.42-.76.92-1.05,1.82-2.31,2.21-3.72,1.28-4.87,1.1-11.41-3.53-14.4-.12-.1-.54-.45-.06-.45,7.8.44,14.06,6.31,10.59,14.28-1.44,3-4.8,4.68-7.97,5.14-.92.15-1.53.16-1.63-.05l-.02-.04Z"/>
    <path class="st3" d="M58.83,95.52c-.26-.09-.38-.23-.43-.47-.1-.87-.02-3.3-.05-6.5,0-6.21,0-18.28,0-23.36.03-1.53-.23-2.02,1.4-2.1.46-.03.97-.04,1.47-.04,1.21,0,3.01-.06,4.07.11.78.15.75.57.75,1.49-.08,5.69.15,25.78-.08,30.47-.09.24-.28.38-.67.46-.61.13-1.85.11-3.2.12-1.43,0-2.65.01-3.17-.14l-.08-.03ZM76.54,65.83c-1.28-1.35-2.58-2.18-4.27-2.72-.19-.08-.25-.13-.12-.15.74-.03,5.74-.01,7.02,0,.23.01.49.04.51.32.05.86.03,6.31,0,7.15-.06.28-.26-.34-.34-.47-.57-1.45-1.6-2.84-2.68-3.98l-.14-.14ZM74.12,74.03c.13,2.52.01,10.41.04,11.64-.03.29-.12.04-.26-.23-.92-2.14-3.08-4.2-5.14-5.15-1.05-.5.78-.86,1.32-1.36,1.7-1.17,3.29-2.94,4.02-4.86l.02-.03ZM77.57,92.06c1.56-1.59,2.55-3.11,3.34-5,.11-.2.17-.24.19-.06.04.94.01,6.29.02,7.97.04.65-.2.86-.84.83-1.51,0-5.91,0-7.6,0-.19,0-.7,0-.47-.14,1.91-.72,3.78-1.87,5.22-3.45l.15-.16Z"/>
    <path class="st3" d="M89.39,70.53c-.11-.99-.01-3.26-.04-4.53.05-.76-.14-2.44.14-2.89.18-.23,1.45-.12,2.03-.14,1.62.02,3.89-.03,5.39.02.27.04-.33.24-.44.28-3.2,1.05-5.75,4.31-7.05,7.25h-.02ZM98.54,95.52c-.26-.09-.38-.23-.43-.47-.1-.87-.02-3.3-.05-6.5,0-6.21,0-18.28,0-23.36.03-1.53-.23-2.02,1.4-2.1.46-.03.97-.04,1.47-.04,1.21,0,3.01-.06,4.07.11.78.15.75.57.75,1.49-.08,5.69.15,25.78-.08,30.47-.09.24-.28.38-.67.46-.61.13-1.85.11-3.2.12-1.43,0-2.65.01-3.17-.14l-.08-.03ZM114.38,70.51c-1.21-2.98-3.81-6.22-6.98-7.24-.12-.05-.77-.25-.47-.28,2.03.06,5.43-.2,7.4.1.26.55.06,2.34.12,3.19-.04,1.21.08,3.3-.05,4.25l-.03-.02Z"/>
    <path class="st3" d="M134.93,96.44c3.52-3.46,4.26-10.23-.76-12.83-4.23-2.41-10.48-3.62-12.03-8.88-1.01-3.44-.3-7.42,2.28-9.86,1.09-1.1,2.69-2.23,4.18-2.52.35-.01-.04.37-.62.96-2.3,2.35-1.86,6.64.52,8.77,3.85,3.57,9.89,3.92,13.42,7.87,4.99,5.72,0,15.37-6.97,16.52l-.02-.03Z"/>
    <path class="st3" d="M151.45,95.52c-.26-.09-.38-.23-.43-.47-.1-.87-.02-3.3-.05-6.5,0-6.21,0-18.28,0-23.36.03-1.53-.23-2.02,1.4-2.1.46-.03.97-.04,1.47-.04,1.21,0,3.01-.06,4.07.11.78.15.75.57.75,1.49-.08,5.69.15,25.78-.08,30.47-.09.24-.28.38-.67.46-.61.13-1.85.11-3.2.12-1.43,0-2.65.01-3.17-.14l-.08-.03Z"/>
    <path class="st3" d="M182.74,95.67c-.47-.21-.65-.63-.86-1.1-1.59-3.97-7.15-16.84-8.5-20.64-.16-1.12.23-1.71.69-3.08.87-2.3,2.29-6.14,2.85-7.53.41-.98.56-1.01.83-.44,1.7,4.23,12,27.8,13.69,32.57.02.33-.77.42-1.2.43-1.53,0-5.88.21-7.41-.16l-.09-.03Z"/>
    <path class="st3" d="M198.93,95.51c-.24-.09-.35-.24-.4-.48-.09-.87-.02-3.29-.04-6.5,0-6.2,0-18.04,0-23.2.02-1.64-.22-2.18,1.45-2.27.46-.03.95-.04,1.45-.04,1.2,0,2.95-.06,4,.13.8.16.8.59.8,1.52-.12,5.71.23,25.99-.13,30.43-.12.23-.35.36-.78.44-.7.13-2.1.12-3.47.14-1.29,0-2.33.02-2.79-.13l-.08-.03ZM212.23,95.66c3.32-.95,6.2-4.25,7.37-7.26.11-.24.17-.33.2-.16.03.2.02.81.02,1.56,0,1.47,0,3.16,0,4.63.1,1.5-.3,1.29-1.44,1.29-1.86-.04-4.5.08-6.19-.05l.03-.02Z"/>
    <path class="st3" d="M228.7,95.52c-.26-.09-.38-.23-.43-.47-.1-.87-.02-3.3-.05-6.5,0-6.21,0-18.28,0-23.36.03-1.53-.23-2.02,1.4-2.1.46-.03.97-.04,1.47-.04,1.21,0,3.01-.06,4.07.11.78.15.75.57.75,1.49-.08,5.69.15,25.78-.08,30.47-.09.24-.28.38-.67.46-.61.13-1.85.11-3.2.12-1.43,0-2.65.01-3.17-.14l-.08-.03Z"/>
    <path class="st3" d="M256.47,96.44c3.52-3.46,4.26-10.23-.76-12.83-4.23-2.41-10.48-3.62-12.03-8.88-1.01-3.44-.3-7.42,2.28-9.86,1.09-1.1,2.69-2.23,4.18-2.52.35-.01-.04.37-.62.96-2.3,2.35-1.86,6.64.52,8.77,3.85,3.57,9.89,3.92,13.42,7.87,4.99,5.72,0,15.37-6.97,16.52l-.02-.03Z"/>
    <path class="st3" d="M272.46,70.54c-.08-1.32,0-3.84-.03-5.38.03-.58-.08-1.91.11-2.06,2.02-.3,5.37-.04,7.44-.1.29.03-.37.23-.48.28-3.2,1.05-5.71,4.21-7.03,7.26h-.02ZM281.59,95.52c-.26-.09-.38-.23-.43-.47-.1-.87-.02-3.3-.05-6.5,0-6.21,0-18.28,0-23.36.03-1.53-.23-2.02,1.4-2.1.46-.03.97-.04,1.47-.04,1.21,0,3.01-.06,4.07.11.78.15.75.57.75,1.49-.08,5.69.15,25.78-.08,30.47-.09.24-.28.38-.67.46-.61.13-1.85.11-3.2.12-1.43,0-2.65.01-3.17-.14l-.08-.03ZM297.43,70.51c-1.24-3.08-3.94-6.35-7.23-7.34-.27-.1-.38-.16-.23-.19.18-.02.66-.01,1.28-.01,1.8.06,4.38-.12,6.08.08.18.1.16.38.17.96-.04,1.9.08,4.82-.05,6.52l-.03-.02Z"/>
    <path class="st3" d="M306.43,95.5c-.29-.1-.42-.27-.48-.56-.09-.92-.02-3.3-.04-6.42,0-6.2,0-18.03,0-23.18.02-1.63-.22-2.17,1.45-2.27.46-.03.95-.04,1.45-.04,1.2,0,2.95-.06,4,.13.8.16.8.59.8,1.5-.09,5.67.18,25.75-.1,30.42-.1.24-.3.38-.7.47-.62.14-1.84.13-3.15.13-1.39,0-2.59,0-3.13-.15l-.09-.03Z"/>
    <path class="st3" d="M322.48,95.53c-.24-.09-.33-.24-.37-.47-.07-.87-.01-3.3-.03-6.51,0-6.22,0-18.3,0-23.39.03-1.54-.23-2.03,1.4-2.1.46-.03.97-.04,1.47-.04,1.21,0,3.01-.06,4.07.12.78.15.75.58.75,1.5-.1,5.73.19,26.01-.11,30.47-.11.22-.33.35-.75.42-.73.13-2.29.11-3.75.13-1.24,0-2.17.02-2.6-.11l-.07-.03ZM335.79,95.65c3.36-.94,6.18-4.16,7.38-7.25.11-.26.17-.35.2-.18.02.21.01.82.01,1.58,0,1.48,0,3.17,0,4.65,0,1.25.08,1.27-1,1.25-2.02-.03-4.77.07-6.63-.04l.03-.02Z"/>
    <path class="st3" d="M352.33,95.5c-.29-.1-.42-.27-.48-.56-.09-.92-.02-3.3-.04-6.42,0-6.2,0-18.03,0-23.18.02-1.63-.22-2.17,1.45-2.27.46-.03.95-.04,1.45-.04,1.2,0,2.95-.06,4,.13.8.16.8.59.8,1.5-.09,5.67.18,25.75-.1,30.42-.1.24-.3.38-.7.47-.62.14-1.84.13-3.15.13-1.39,0-2.59,0-3.13-.15l-.09-.03Z"/>
    <path class="st3" d="M369.98,65.83c-1.26-1.37-2.76-2.24-4.34-2.78-.14-.07-.13-.11.05-.12.92-.02,5.37-.01,6.77,0,.54-.03.75.21.72.74,0,1.44.03,6.05-.02,6.74-.03.14-.08.08-.18-.09-.66-1.59-1.58-3-2.86-4.33l-.14-.15Z"/>
    <path class="st3" d="M367.58,74.02c.13,3.07.08,8.43.02,11.75-.08.14-.41-.7-.51-.86-1.02-1.99-3.13-3.74-5.08-4.75-.48-.47.97-.81,1.48-1.26,1.72-1.17,3.28-2.94,4.07-4.85l.02-.03Z"/>
    <path class="st3" d="M371.08,91.99c1.49-1.52,2.51-3.12,3.28-4.92.11-.19.17-.22.2-.05.06.91.02,6.27.02,7.93.04.63-.25.91-.88.87-1.72-.02-6.16.06-8.01-.03-.49-.06,1.02-.47,2.14-1.15,1.1-.62,2.08-1.46,2.96-2.36l.28-.29Z"/>
  </g>
  <g>
    <path class="st5" d="M22.81,35.5c4.75-.48,5.64,7.05.99,7.68-5.42.74-6.19-7.16-.99-7.68h0Z"/>
    <path class="st1" d="M35.16,13.2c5.45-.86,6.44,7.11.77,7.22-4.85.09-5.05-6.54-.77-7.22Z"/>
  </g>
  <path class="st0" d="M3.57,85.82c4.75-.48,5.64,7.05.99,7.68-5.42.74-6.19-7.16-.99-7.68h0Z"/>
  <g>
    <path class="st4" d="M291.81.07c4.03-.41,4.78,5.98.84,6.52-4.6.63-5.25-6.08-.84-6.52h0Z"/>
    <path class="st7" d="M302.1.07c4.03-.41,4.78,5.98.84,6.52-4.6.63-5.25-6.08-.84-6.52h0Z"/>
  </g>
  <path class="st6" d="M332.78.07c4.03-.41,4.78,5.98.84,6.52-4.6.63-5.25-6.08-.84-6.52"/>
  <path class="st2" d="M343.15.07c4.03-.41,4.78,5.98.84,6.52-4.6.63-5.25-6.08-.84-6.52"/>
</svg>