<?xml version="1.0" encoding="UTF-8"?>
<svg xmlns="http://www.w3.org/2000/svg" viewBox="0 0 271.7 48">
  <path fill="#000" d="M270.42.58c1.58.56,1.22,2.16,1.27,5.17v5.06c0,8.88.04,27.59-.03,34.41.09,3.66-4.83,2.61-7.35,2.72-2.32-.13-3.94-.37-3.82-3.09.18-8.79-.41-33.04.23-42.89.77-2.43,7.66-1.89,9.56-1.42l.13.05h.01ZM254.48,47.54c-.91.32-3,.33-5.29.35-3.73,0-7.3.22-8.56-3.62-2.39-5.53-8.19-19.06-10.61-24.85-.5-1.3-.91-2.59-.95-3.9-.04-3.47,1.73-7.01,2.86-10.37.68-1.72,1.14-3.45,2.08-4.86,1.14-1.32,1.87,2.13,3.65,5.78,2.53,5.78,4.92,11.27,7.55,17.25,3.26,7.55,7.32,16.52,9.88,22.7.21.62.22,1.24-.49,1.5Z"/>
</svg>
