<?xml version="1.0" encoding="UTF-8"?>
<svg id="Layer_1" xmlns="http://www.w3.org/2000/svg" version="1.1" xmlns:xlink="http://www.w3.org/1999/xlink" viewBox="0 0 320.05 86.36">
  <!-- Generator: Adobe Illustrator 30.0.0, SVG Export Plug-In . SVG Version: 2.1.1 Build 123)  -->
  <defs>
    <style>
      .st0 {
        fill: url(#linear-gradient2);
      }

      .st1 {
        fill: url(#linear-gradient10);
      }

      .st2 {
        fill: url(#linear-gradient1);
      }

      .st3 {
        fill: url(#linear-gradient9);
      }

      .st4 {
        fill: url(#linear-gradient8);
      }

      .st5 {
        fill: url(#linear-gradient11);
      }

      .st6 {
        fill: url(#linear-gradient12);
      }

      .st7 {
        fill: url(#linear-gradient7);
      }

      .st8 {
        fill: url(#linear-gradient4);
      }

      .st9 {
        fill: url(#linear-gradient5);
      }

      .st10 {
        fill: url(#linear-gradient3);
      }

      .st11 {
        fill: url(#linear-gradient6);
      }

      .st12 {
        fill: url(#linear-gradient13);
      }

      .st13 {
        fill: url(#linear-gradient);
      }
    </style>
    <linearGradient id="linear-gradient" x1="50.08" y1="294.81" x2="50.08" y2="255.46" gradientTransform="translate(0 321.18) scale(1 -1)" gradientUnits="userSpaceOnUse">
      <stop offset="0" stop-color="#cfa099"/>
      <stop offset=".35" stop-color="#a4615c"/>
      <stop offset=".7" stop-color="#753432"/>
      <stop offset="1" stop-color="#44201f"/>
    </linearGradient>
    <linearGradient id="linear-gradient1" x1="66.39" y1="291.94" x2="66.39" y2="252.86" gradientTransform="translate(0 321.18) scale(1 -1)" gradientUnits="userSpaceOnUse">
      <stop offset="0" stop-color="#cfa099"/>
      <stop offset=".35" stop-color="#a4615c"/>
      <stop offset=".7" stop-color="#753432"/>
      <stop offset="1" stop-color="#44201f"/>
    </linearGradient>
    <linearGradient id="linear-gradient2" x1="91" y1="283.43" x2="91" y2="243.52" gradientTransform="translate(0 321.18) scale(1 -1)" gradientUnits="userSpaceOnUse">
      <stop offset="0" stop-color="#cfa099"/>
      <stop offset=".35" stop-color="#a4615c"/>
      <stop offset=".7" stop-color="#753432"/>
      <stop offset="1" stop-color="#44201f"/>
    </linearGradient>
    <linearGradient id="linear-gradient3" x1="118.89" y1="280.88" x2="118.89" y2="238.9" gradientTransform="translate(0 321.18) scale(1 -1)" gradientUnits="userSpaceOnUse">
      <stop offset="0" stop-color="#cfa099"/>
      <stop offset=".35" stop-color="#a4615c"/>
      <stop offset=".7" stop-color="#753432"/>
      <stop offset="1" stop-color="#44201f"/>
    </linearGradient>
    <linearGradient id="linear-gradient4" x1="145.91" y1="277.94" x2="145.91" y2="236.83" gradientTransform="translate(0 321.18) scale(1 -1)" gradientUnits="userSpaceOnUse">
      <stop offset="0" stop-color="#cfa099"/>
      <stop offset=".35" stop-color="#a4615c"/>
      <stop offset=".7" stop-color="#753432"/>
      <stop offset="1" stop-color="#44201f"/>
    </linearGradient>
    <linearGradient id="linear-gradient5" x1="167.62" y1="278.35" x2="167.62" y2="236.95" gradientTransform="translate(0 321.18) scale(1 -1)" gradientUnits="userSpaceOnUse">
      <stop offset="0" stop-color="#cfa099"/>
      <stop offset=".35" stop-color="#a4615c"/>
      <stop offset=".7" stop-color="#753432"/>
      <stop offset="1" stop-color="#44201f"/>
    </linearGradient>
    <linearGradient id="linear-gradient6" x1="182.72" y1="278.3" x2="182.72" y2="237.7" gradientTransform="translate(0 321.18) scale(1 -1)" gradientUnits="userSpaceOnUse">
      <stop offset="0" stop-color="#cfa099"/>
      <stop offset=".35" stop-color="#a4615c"/>
      <stop offset=".7" stop-color="#753432"/>
      <stop offset="1" stop-color="#44201f"/>
    </linearGradient>
    <linearGradient id="linear-gradient7" x1="207.01" y1="283.99" x2="207.01" y2="240.79" gradientTransform="translate(0 321.18) scale(1 -1)" gradientUnits="userSpaceOnUse">
      <stop offset="0" stop-color="#cfa099"/>
      <stop offset=".35" stop-color="#a4615c"/>
      <stop offset=".7" stop-color="#753432"/>
      <stop offset="1" stop-color="#44201f"/>
    </linearGradient>
    <linearGradient id="linear-gradient8" x1="219.9" y1="283.16" x2="219.9" y2="243.28" gradientTransform="translate(0 321.18) scale(1 -1)" gradientUnits="userSpaceOnUse">
      <stop offset="0" stop-color="#cfa099"/>
      <stop offset=".35" stop-color="#a4615c"/>
      <stop offset=".7" stop-color="#753432"/>
      <stop offset="1" stop-color="#44201f"/>
    </linearGradient>
    <linearGradient id="linear-gradient9" x1="239.73" y1="289.59" x2="239.73" y2="248.47" gradientTransform="translate(0 321.18) scale(1 -1)" gradientUnits="userSpaceOnUse">
      <stop offset="0" stop-color="#cfa099"/>
      <stop offset=".35" stop-color="#a4615c"/>
      <stop offset=".7" stop-color="#753432"/>
      <stop offset="1" stop-color="#44201f"/>
    </linearGradient>
    <linearGradient id="linear-gradient10" x1="38.42" y1="5744.4" x2="38.42" y2="5755.72" gradientTransform="translate(0 -5735.57)" gradientUnits="userSpaceOnUse">
      <stop offset="0" stop-color="#f5f5f4"/>
      <stop offset=".22" stop-color="#eeedec"/>
      <stop offset=".48" stop-color="#dad9d6"/>
      <stop offset=".72" stop-color="#c7c5c1"/>
      <stop offset="1" stop-color="#a8a59e"/>
    </linearGradient>
    <linearGradient id="linear-gradient11" x1="8.07" y1="3094" x2="8.07" y2="3106.55" gradientTransform="translate(0 -3063.57)" gradientUnits="userSpaceOnUse">
      <stop offset="0" stop-color="#666"/>
      <stop offset=".5" stop-color="#383838"/>
      <stop offset=".81" stop-color="#1c1c1c"/>
      <stop offset="1" stop-color="#111"/>
    </linearGradient>
    <linearGradient id="linear-gradient12" x1="24.46" y1="315.12" x2="24.46" y2="271.22" gradientTransform="translate(0 321.18) scale(1 -1)" gradientUnits="userSpaceOnUse">
      <stop offset="0" stop-color="#cfa099"/>
      <stop offset=".35" stop-color="#a4615c"/>
      <stop offset=".7" stop-color="#753432"/>
      <stop offset="1" stop-color="#44201f"/>
    </linearGradient>
    <linearGradient id="linear-gradient13" x1="280.62" y1="-3672.21" x2="294.31" y2="-3730.29" gradientTransform="translate(0 -3671) scale(1 -1)" gradientUnits="userSpaceOnUse">
      <stop offset="0" stop-color="#f1f1f0"/>
      <stop offset=".21" stop-color="#e6e5e3"/>
      <stop offset=".42" stop-color="#c3c1bc"/>
      <stop offset=".53" stop-color="#aba8a1"/>
      <stop offset=".65" stop-color="#8d8980"/>
      <stop offset=".93" stop-color="#5f5b55"/>
    </linearGradient>
  </defs>
  <path class="st13" d="M50.19,67.01c-4.57-1.07-8.35-6.57-9.63-10.19-3.83-11.09,6.02-20.19,17.88-19.3,1.23.09,2.41.37,1.88,1.58-4.1,6.3-7.1,13.73-9.03,20.85-.5,1.89-1.07,4.01-.75,5.99.06.51.02.89-.21,1.04-.03.02-.07.04-.1.06-.02,0-.03-.01-.05-.02,0,0,0,0,0,0Z"/>
  <path class="st2" d="M55.91,69.14c.58-.87,2.01-1.5,2.5-2.53,2.39-3.74,5.05-12.48,6.28-16.81.7-2.64,1.68-5.85,1.62-8.49-.03-.97.02-1.85,1.41-.9,14.8,9.26,11.65,30.65-9.29,29.4-.85-.13-1.92-.03-2.5-.59,0,0,0-.09,0-.09Z"/>
  <path class="st0" d="M93.92,75.35c.49.75,1.16,1.31,2.13,2.06.92.76,2.28,1.48,1.12,1.92-24.95,1.29-14.84-19.33-11.56-31.49.3-1.14,1.08-1.44,2.4-1.73,1.81-.43,4.98-.83,6.37-1.49,1.85-1.06,5.18-4.92,6.83-5.81-.42,2.22-4.59,21.83-5.9,28.26-.75,4.46-1.75,6.42-1.42,8.16.03.04.05.08.08.12-.01,0-.02,0-.04,0Z"/>
  <path class="st10" d="M117.6,52.55c-.1.7-.5,1.03-.89,1.61-6.39,8.74,14.48,11.11,15.77,19.04,1.56,5.76-6.2,11.53-13.44,10.51-.43-.18-.6-.21-.53-.71.34-.64.85-1.18,1.4-1.71,7.08-7.02-7.94-10.7-13.01-16.34-4.52-4.93.25-11.23,6.1-12.5,1.18-.28,3.89-.88,4.6,0,0,.04.02.08.03.13,0,0-.01-.02-.02-.02Z"/>
  <path class="st8" d="M141.81,56.68c1.88-.6,5.53-.3,7.69-.11,2.29.16,3.45,1.2,3.38,3.16-.13,6.66.07,18.39-.5,24.36-.87,2.93-6.41,1.85-9.3,1.78-2.88-.19-4.36-1.24-4.11-3.55.17-3.98.73-12.64,1.04-18.63.22-2.72-.04-6.56,1.65-6.95.05-.02.1-.03.15-.05,0,0,0,0-.01,0Z"/>
  <path class="st9" d="M172.99,69.15c-2.8,4.5-6.29,11.5.91,13.65.64.25,2.48.36,1.64,1.09-19.58,8.96-21.76-12.95-3.73-14.93.36-.05.66-.07.87-.05.29.08.28.14.28.14,0,.03.02.07.03.1Z"/>
  <path class="st11" d="M191.92,83.16c-1.7.53-5.98.77-8.16.99-1.99.05-4.29.76-4.55-1.14-.34-3.98-1.26-17.33-1.64-22.09-.02-2.26-1.65-3.68-3.67-4.69-.55-.3-1.33-.96-.76-1.41,5.16-2.67,15.29.55,16.98,6.69.57,3.62,1.38,11.86,2.04,17.25.03,1.21.82,3.6-.09,4.34-.05.02-.1.04-.14.06Z"/>
  <path class="st7" d="M210.88,64.58c-2.08,4.43-4.79,11.61,1.85,13.3.83.24,1.71.16,2.42.46.13.11.23.08.2.37-.77,1.07-2.64,1.62-4.01,2.26-17.65,6.33-15.85-14.59-.75-16.52.1.05.19.09.29.14Z"/>
  <path class="st4" d="M230.94,76.15c-1.5.81-5.52,1.47-7.56,1.98-2.07.31-4.28,1.42-4.83-.51-.87-3.99-3.54-17.38-4.45-21.7-.37-2.02-2.14-3.4-4.02-4.05-.51-.27-1.78-.53-1.53-1.25.28-.53,1.83-1.01,3.08-1.26,5.76-1.25,12.72.44,14.92,6.3.86,3.62,3.42,12.82,4.49,18.29.12.9.47,1.46-.05,2.14-.02.02-.04.04-.06.06Z"/>
  <path class="st3" d="M250.83,71.52c-1.01.65-2.96,1.31-5.01,1.92-3.2.82-6.84,2.33-7.66-.41-1.88-6.67-8.02-29.27-10.35-38.01-.75-2.42.78-3.22,3.14-4.07,1.96-.66,4.16-1.39,6.21-1.49,2.23-.09,2.34,1.65,3.39,4.68,3.17,9.83,6.33,19.66,9.5,29.49.42,2.3,3.16,6.59.9,7.78-.04.03-.09.06-.13.09Z"/>
  <path class="st1" d="M39.89,8.5c8.46,2.6,4.85,14.83-3.95,10.82-7.48-3.61-2.71-13.02,3.95-10.82Z"/>
  <path class="st5" d="M10.5,31.39c8,3.65,4.37,14.4-3.99,10.9-9.76-4.34-4.75-15.11,3.99-10.9Z"/>
  <path class="st6" d="M14.25,50.54c6.05-.22,10.8-5.46,10.61-10.92-.53-5.84-6.18-10.36-9.54-15.25-2.46-3.4-4.24-7.01-3.65-11C12.8,4.91,21.04-.49,29.64,1.11c.64.13,1.82.72.71.93-2.96.03-5.59,1.9-6.93,4.51-6.99,13.03,21.38,22.52,12.03,38.04-2.2,3.67-6.22,6.21-10.85,7.04-3.28.52-7.12.64-10.35-1.08"/>
  <path class="st12" d="M294.02.77c1.77-.42,2.27,1.14,3.89,3.68.88,1.44,1.76,2.88,2.64,4.31,4.64,7.57,14.46,23.5,17.94,29.36,2.02,3.07-3.99,5.48-6.76,7.16-2.67,1.37-4.61,2.16-5.79-.3-4.06-7.8-16.34-28.72-20.47-37.69-.42-2.51,6.36-5.77,8.38-6.49.05-.01.1-.02.15-.03,0,0,0,0,0,0,0,0,0,0,0,0ZM300.45,50.99c-.89.82-3.27,2.06-5.89,3.37-4.28,2.11-8.36,4.21-11.38,1.35-5.1-3.74-16.83-13.48-21.47-17.89-1.02-.99-1.93-2.02-2.45-3.23-1.3-3.21-.76-7.24-.89-10.82.04-1.87-.15-3.66.24-5.36.62-1.69,2.67,1.19,5.92,3.76,4.87,4.19,9.61,8.07,14.95,12.16,6.67,5.21,15.17,10.99,20.95,14.94.52.43.82.97.14,1.62-.04.03-.08.06-.13.09Z"/>
</svg>