<?xml version="1.0" encoding="UTF-8"?>
<svg id="Layer_1" data-name="Layer 1" xmlns="http://www.w3.org/2000/svg" viewBox="0 0 278.45 37.89">
  <defs>
    <style>
      .cls-1 {
        fill: #be9153;
      }

      .cls-2 {
        fill: #fff;
      }

      .cls-3 {
        fill: #565656;
      }
    </style>
  </defs>
  <rect class="cls-2" x="160.8" y=".38" width="8.62" height="36.72"/>
  <rect class="cls-2" x="221.87" y=".38" width="8.62" height="36.72"/>
  <rect class="cls-2" x="269.83" y=".38" width="8.62" height="36.72"/>
  <path class="cls-2" d="M192.27,37.09l-9.73-24.58c.87-4.3,2.89-8.35,4.3-12.51l15.92,37.09h-10.49Z"/>
  <path class="cls-2" d="M7.94.74c-2.15.95-2.52,3.95-2.15,6.1,1.66,9.66,21.46,6.21,19.29,20.97-.6,4.11-4.82,8.53-8.8,9.57-.37.1-1.32.38-1.22-.28,2.07-.62,3.24-4.21,3.37-6.19.66-9.92-13.34-8.43-17.01-15.95C-.99,10.01.71,4.24,5.19,1.19c.63-.43,2.55-1.68,2.75-.44h0Z"/>
  <path class="cls-2" d="M65.27,33.16c.3,1.66,2.2,3.05,3.75,3.37-16.02,6.67-11.81-13.29-12.39-22.44,2.82-.72,4.94-2.31,6.71-4.6l1.94-3.87v27.54h-.01Z"/>
  <rect class="cls-2" x="94.11" y="13.86" width="8.62" height="23.23"/>
  <path class="cls-2" d="M128.96,37.09h-8.62v-19.67c0-.49-1.17-2.16-1.67-2.45l-2.82-.92c2.95-1.72,8.01-.65,10.5,1.48.71.61,2.61,3.34,2.61,4.13v17.42h0Z"/>
  <path class="cls-2" d="M155.18,37.09h-8.62v-19.67c0-.49-1.17-2.16-1.67-2.45l-2.82-.92c2.95-1.72,8.01-.65,10.5,1.48.71.61,2.61,3.34,2.61,4.13v17.42h0Z"/>
  <path class="cls-2" d="M78.38,13.49c-5.66,7.51,5.06,8.37,8.8,11.62,5.91,5.15-.1,12.75-6.55,12.73,7.52-9.51-6.29-9.43-9.3-14.11s1.98-10.45,7.06-10.24h0Z"/>
  <path class="cls-2" d="M38.29,13.49c-.67,1.16-1.02,2.18-1.14,3.54-.38,4.21-.45,13.49,0,17.63.12,1.06.47,2.14,1.12,3,.31.97-4.26-1.4-4.69-1.68-9.31-6.05-6.23-20.93,4.69-22.48h.01Z"/>
  <path class="cls-2" d="M42.41,37.84c-.08-.07.85-1.47.95-1.86.53-2.07.44-19.29-.17-21.2-.14-.42-.46-.79-.77-1.1,1.36-.48,3.13.56,4.31,1.31,9.68,6.1,6.92,20.86-4.32,22.86h0Z"/>
  <path class="cls-2" d="M238.73,18.36c-.76,1.15-.18.59.55.76,5.48,1.3,10.13,3.32,9.56,9.92-.51,5.88-6.04,7.95-11.23,8.05l2.7-2.73c2.13-5.46,2.24-13.35-4.2-15.81.17-.34.78-.31,1.12-.56.51-.36,1.24-.45,1.5.37Z"/>
  <path class="cls-2" d="M237.23.75c5.06.86,10.26,2.81,10.35,8.87.07,4.95-3.99,8.72-8.85,8.74-.49,0-1.24.18-1.5-.37,4.33-3.18,4.22-13.95-.75-16.86-.34-.36-.09-.48.75-.37h0Z"/>
  <path class="cls-2" d="M143.19,24.73c-3.12,3.78-5.19,10.33,1.5,11.42-14.27,7.36-15.01-11.35-1.5-11.42Z"/>
  <path class="cls-2" d="M116.97,24.73c-2.99,3.64-4.97,10.46,1.5,11.42-14.11,7.36-14.82-11.26-1.5-11.42Z"/>
  <path class="cls-1" d="M218.87,13.12c-.1.6.21,1.75-.06,2.19-.29.47-8.56,3.89-10.06,4.75-.37.21-.96,0-.74.74.17.56,10.48,3.84,10.82,4.36.28.43-.07,1.93.05,2.57-1.73-1.34-13.47-5.4-14.05-6.36-.21-.35-.33-1.14-.13-1.46l14.18-6.79h0Z"/>
  <path class="cls-2" d="M17.96.83c5.81-1.13,6.96,7.99,1.36,8.52S12.92,1.81,17.96.83Z"/>
  <path class="cls-1" d="M265.67,21.7l-13.82,5.66c.1-.6-.21-1.74.06-2.19.31-.51,11.44-4.1,10.8-4.93-1.34-.61-10.49-4.43-10.8-4.93-.27-.44.04-1.59-.06-2.19,4.69,2.09,9.5,4.32,13.8,6.99l.02,1.59h0Z"/>
  <path class="cls-2" d="M1.33,33.22c-3.96-3.78,1.77-9.97,5.84-6.4,4.07,3.57-1.59,10.45-5.84,6.4Z"/>
  <path class="cls-2" d="M97,.46c5.81-1.34,7.19,6.61,2.75,7.99-6.03,1.88-7.66-6.86-2.75-7.99Z"/>
  <path class="cls-3" d="M237.23.75l-.75.37c-.45-.26-.98-.36-1.5-.38v-.37c.89-.36,1.69.28,2.25.37h0Z"/>
</svg>