<?xml version="1.0" encoding="UTF-8"?>
<svg id="Layer_1" xmlns="http://www.w3.org/2000/svg" version="1.1" xmlns:xlink="http://www.w3.org/1999/xlink" viewBox="0 0 271.7 48">
  <!-- Generator: Adobe Illustrator 30.0.0, SVG Export Plug-In . SVG Version: 2.1.1 Build 123)  -->
  <defs>
    <style>
      .st0 {
        fill: url(#linear-gradient2);
      }

      .st1 {
        fill: url(#linear-gradient10);
      }

      .st2 {
        fill: url(#linear-gradient1);
      }

      .st3 {
        fill: url(#linear-gradient9);
      }

      .st4 {
        fill: url(#linear-gradient8);
      }

      .st5 {
        fill: url(#linear-gradient12);
      }

      .st6 {
        fill: url(#linear-gradient7);
      }

      .st7 {
        fill: url(#linear-gradient4);
      }

      .st8 {
        fill: url(#linear-gradient5);
      }

      .st9 {
        fill: url(#linear-gradient3);
      }

      .st10 {
        fill: url(#linear-gradient6);
      }

      .st11 {
        fill: url(#linear-gradient13);
      }

      .st12 {
        fill: url(#linear-gradient11);
        stroke: #000;
        stroke-miterlimit: 10;
        stroke-opacity: .5;
        stroke-width: .1px;
      }

      .st13 {
        fill: url(#linear-gradient);
      }
    </style>
    <linearGradient id="linear-gradient" x1="-6122.41" y1="200.96" x2="-6122.41" y2="202.24" gradientTransform="translate(63164.5 -4810.02) scale(10.31 24.01)" gradientUnits="userSpaceOnUse">
      <stop offset="0" stop-color="#e6bcb9"/>
      <stop offset=".14" stop-color="#be7877"/>
      <stop offset=".29" stop-color="#9a5151"/>
      <stop offset=".49" stop-color="#854343"/>
      <stop offset=".7" stop-color="#6d3333"/>
      <stop offset="1" stop-color="#4c1c1c"/>
    </linearGradient>
    <linearGradient id="linear-gradient1" x1="-6138.08" y1="198.17" x2="-6138.08" y2="199.45" gradientTransform="translate(64878.65 -4822.71) scale(10.56 24.41)" gradientUnits="userSpaceOnUse">
      <stop offset="0" stop-color="#e6bcb9"/>
      <stop offset=".14" stop-color="#be7877"/>
      <stop offset=".29" stop-color="#9a5151"/>
      <stop offset=".49" stop-color="#854343"/>
      <stop offset=".71" stop-color="#6d3333"/>
      <stop offset="1" stop-color="#4c1c1c"/>
    </linearGradient>
    <linearGradient id="linear-gradient2" x1="-6233.72" y1="156.51" x2="-6233.72" y2="157.79" gradientTransform="translate(77440.43 -5077.97) scale(12.41 32.48)" gradientUnits="userSpaceOnUse">
      <stop offset="0" stop-color="#e6bcb9"/>
      <stop offset=".25" stop-color="#be7877"/>
      <stop offset=".4" stop-color="#9a5151"/>
      <stop offset=".56" stop-color="#854343"/>
      <stop offset=".75" stop-color="#6d3333"/>
      <stop offset="1" stop-color="#4c1c1c"/>
    </linearGradient>
    <linearGradient id="linear-gradient3" x1="-6426.99" y1="199.44" x2="-6426.99" y2="200.73" gradientTransform="translate(123565.99 -4814.05) scale(19.21 24.23)" gradientUnits="userSpaceOnUse">
      <stop offset="0" stop-color="#e6bcb9"/>
      <stop offset=".14" stop-color="#be7877"/>
      <stop offset=".29" stop-color="#9a5151"/>
      <stop offset=".48" stop-color="#854343"/>
      <stop offset=".7" stop-color="#6d3333"/>
      <stop offset="1" stop-color="#4c1c1c"/>
    </linearGradient>
    <linearGradient id="linear-gradient4" x1="-5995.84" y1="207.35" x2="-5995.84" y2="208.63" gradientTransform="translate(52110.85 -4780.65) scale(8.67 23.15)" gradientUnits="userSpaceOnUse">
      <stop offset="0" stop-color="#e6bcb9"/>
      <stop offset=".14" stop-color="#be7877"/>
      <stop offset=".29" stop-color="#9a5151"/>
      <stop offset=".47" stop-color="#854343"/>
      <stop offset=".67" stop-color="#6d3333"/>
      <stop offset="1" stop-color="#4c1c1c"/>
    </linearGradient>
    <linearGradient id="linear-gradient5" x1="-6114.28" y1="340.32" x2="-6114.28" y2="341.6" gradientTransform="translate(62632.56 -4467.37) scale(10.22 13.21)" gradientUnits="userSpaceOnUse">
      <stop offset="0" stop-color="#e6bcb9"/>
      <stop offset=".14" stop-color="#be7877"/>
      <stop offset=".29" stop-color="#9a5151"/>
      <stop offset=".53" stop-color="#854343"/>
      <stop offset=".8" stop-color="#6d3333"/>
      <stop offset="1" stop-color="#4c1c1c"/>
    </linearGradient>
    <linearGradient id="linear-gradient6" x1="-6180.55" y1="201.41" x2="-6180.55" y2="202.69" gradientTransform="translate(70306.74 -4805.77) scale(11.35 23.95)" gradientUnits="userSpaceOnUse">
      <stop offset="0" stop-color="#e6bcb9"/>
      <stop offset=".14" stop-color="#be7877"/>
      <stop offset=".32" stop-color="#9a5151"/>
      <stop offset=".5" stop-color="#854343"/>
      <stop offset=".69" stop-color="#6d3333"/>
      <stop offset="1" stop-color="#4c1c1c"/>
    </linearGradient>
    <linearGradient id="linear-gradient7" x1="-6111.41" y1="342.93" x2="-6111.41" y2="344.2" gradientTransform="translate(62390.93 -4463.84) scale(10.18 13.1)" gradientUnits="userSpaceOnUse">
      <stop offset="0" stop-color="#e6bcb9"/>
      <stop offset=".14" stop-color="#be7877"/>
      <stop offset=".29" stop-color="#9a5151"/>
      <stop offset=".52" stop-color="#854343"/>
      <stop offset=".74" stop-color="#6d3333"/>
      <stop offset="1" stop-color="#4c1c1c"/>
    </linearGradient>
    <linearGradient id="linear-gradient8" x1="-6178.52" y1="202.19" x2="-6178.52" y2="203.47" gradientTransform="translate(70130.14 -4802.12) scale(11.32 23.84)" gradientUnits="userSpaceOnUse">
      <stop offset="0" stop-color="#e6bcb9"/>
      <stop offset=".14" stop-color="#be7877"/>
      <stop offset=".36" stop-color="#9a5151"/>
      <stop offset=".56" stop-color="#854343"/>
      <stop offset=".77" stop-color="#6d3333"/>
      <stop offset="1" stop-color="#4c1c1c"/>
    </linearGradient>
    <linearGradient id="linear-gradient9" x1="-6016.03" y1="147.23" x2="-6016.03" y2="148.51" gradientTransform="translate(53870.77 -5162.02) scale(8.92 35.07)" gradientUnits="userSpaceOnUse">
      <stop offset="0" stop-color="#e6bcb9"/>
      <stop offset=".19" stop-color="#be7877"/>
      <stop offset=".36" stop-color="#9a5151"/>
      <stop offset=".58" stop-color="#854343"/>
      <stop offset=".77" stop-color="#6d3333"/>
      <stop offset="1" stop-color="#4c1c1c"/>
    </linearGradient>
    <linearGradient id="linear-gradient10" x1="22.23" y1="4707.86" x2="22.23" y2="4718.81" gradientTransform="translate(0 -4705.57)" gradientUnits="userSpaceOnUse">
      <stop offset="0" stop-color="#f5f5f4"/>
      <stop offset=".22" stop-color="#eeedec"/>
      <stop offset=".48" stop-color="#dad9d6"/>
      <stop offset=".72" stop-color="#c7c5c1"/>
      <stop offset="1" stop-color="#a8a59e"/>
    </linearGradient>
    <linearGradient id="linear-gradient11" x1="6.7" y1="2066.98" x2="6.7" y2="2078.53" gradientTransform="translate(0 -2033.57)" gradientUnits="userSpaceOnUse">
      <stop offset="0" stop-color="#666"/>
      <stop offset=".5" stop-color="#383838"/>
      <stop offset=".81" stop-color="#1c1c1c"/>
      <stop offset="1" stop-color="#111"/>
    </linearGradient>
    <linearGradient id="linear-gradient12" x1="-3306.91" y1="-6.24" x2="-3306.91" y2="-5.96" gradientTransform="translate(367479.73 1063.46) scale(111.12 170.15)" gradientUnits="userSpaceOnUse">
      <stop offset="0" stop-color="#e6bcb9"/>
      <stop offset=".14" stop-color="#be7877"/>
      <stop offset=".29" stop-color="#9a5151"/>
      <stop offset=".46" stop-color="#854343"/>
      <stop offset=".66" stop-color="#6d3333"/>
      <stop offset="1" stop-color="#4c1c1c"/>
    </linearGradient>
    <linearGradient id="linear-gradient13" x1="246.84" y1="-2906.48" x2="260.85" y2="-2965.91" gradientTransform="translate(0 -2912.18) scale(1 -1)" gradientUnits="userSpaceOnUse">
      <stop offset="0" stop-color="#f1f1f0"/>
      <stop offset=".21" stop-color="#e6e5e3"/>
      <stop offset=".42" stop-color="#c3c1bc"/>
      <stop offset=".53" stop-color="#aba8a1"/>
      <stop offset=".65" stop-color="#8d8980"/>
      <stop offset=".93" stop-color="#5f5b55"/>
    </linearGradient>
  </defs>
  <path class="st13" d="M48.93,47.32c-3.67.55-8.02-3.17-10.1-6.02-6.3-8.69-2.1-21.11,8.05-24.5,1.04-.35,2.1-.49,2.02.83-1.48,7.33-1.62,15.34-1.09,22.68.15,1.95.31,4.13,1.09,5.88.18.46.26.83.13,1.05l-.06.09h-.04Z"/>
  <path class="st2" d="M53.76,47.42c.21-1.01,1.13-2.07,1.24-3.2.86-4.31.68-13.44.5-17.93-.15-2.72-.22-6.08-1.01-8.56-.3-.91-.51-1.76.92-1.3,15.17,4.44,16.4,25.84.41,30.83-.67.14-1.45.58-2.03.24l-.03-.08h-.01.01Z"/>
  <path class="st0" d="M84.45,43.35c.51.63,1.13,1.05,2.02,1.59.85.56,2.03,1.01,1.18,1.67-19.06,6.49-15.39-15.36-15.3-28.15,0-1.18.6-1.67,1.67-2.27,1.46-.87,4.12-1.99,5.2-2.95,1.39-1.45,3.59-5.94,4.92-7.14.04,2.26,0,22.31.03,28.87.15,4.52-.32,6.64.23,8.28l.08.1h-.03Z"/>
  <path class="st9" d="M100.88,16.8c0,.71-.31,1.09-.58,1.72-4.35,9.42,13.73,9.14,15.25,17.17,1.62,5.62-4.26,11.94-10.05,11.82-.36-.13-.5-.13-.49-.64.21-.68.56-1.27.95-1.87,5.1-7.83-7.5-9.73-12.58-14.3-4.49-4.06-1.54-11.14,3.45-13.32.99-.46,3.3-1.45,4.03-.68l.04.12h-.03v-.02Z"/>
  <path class="st7" d="M122.58,18.58c1.63-.71,4.88-.55,6.79-.41,2.03.1,3.07,1.13,3.03,3.09-.03,6.66.26,18.39-.13,24.36-.67,2.93-5.11,1.98-7.43,2.05-2.31-.06-3.54-1.01-3.45-3.34-.05-3.98,0-12.66-.03-18.66.06-2.73-.37-6.55,1.1-7.03l.13-.06h-.01Z"/>
  <path class="st8" d="M149.55,31.1c-2.61,4.35-5.6,11.18.13,13.68.51.28,1.98.5,1.27,1.18-15.76,8.15-17.75-13.64-2.39-15.11.31-.03.56-.04.74,0,.24.1-.03-.08.23.15v.09h.02Z"/>
  <path class="st10" d="M164.13,46.65c-1.4.33-4.84.13-6.6.17-1.6-.13-3.48.42-3.58-1.5-.04-3.99,0-17.38-.03-22.15.13-2.25-1.21-3.79-2.94-4.92-.47-.33-1.13-1.04-.6-1.45,4.77-2.43,13.55,1.8,14.31,8.14.13,3.66,0,11.94.03,17.37-.09,1.21.32,3.67-.47,4.3l-.1.05h-.02Z"/>
  <path class="st6" d="M181.82,31.07c-2.44,3.98-5.54,10.59-.5,13.41.62.39,1.33.47,1.85.9.09.13.17.12.1.4-.77.9-2.32,1.1-3.49,1.49-14.62,3.52-11.22-16.99,1.82-16.39l.22.19h0Z"/>
  <path class="st4" d="M195.91,46.61c-1.32.42-4.56.15-6.24.22-1.67-.14-3.58.5-3.7-1.5-.05-4.08,0-17.74-.03-22.15.04-2.05-1.24-3.76-2.76-4.75-.4-.36-1.46-.85-1.12-1.51.33-.47,1.76-.65,2.89-.65,5.26-.12,10.91,3.18,11.5,9.4-.03,3.72.19,13.27-.03,18.83-.08.9.08,1.53-.45,2.07l-.1.06h.03v-.02Z"/>
  <path class="st3" d="M212.16,47.53c-.92.31-2.55.37-4.25.37-2.62-.13-5.72.37-5.78-2.49-.05-6.93-.05-30.35,0-39.39-.08-2.53,1.48-2.91,3.8-3.07,1.91-.09,4.07-.15,5.9.37,1.99.59,1.59,2.28,1.66,5.49v30.98c-.24,2.32.78,7.24-1.21,7.69l-.13.05h.01Z"/>
  <path class="st1" d="M21.07,1.76c8.25-1.36,9.75,11.27,1.16,11.45-7.34.15-7.64-10.37-1.16-11.45Z"/>
  <path class="st12" d="M6.29,33.44c7.25-.71,8.6,10.51,1.51,11.45-8.28,1.1-9.44-10.67-1.51-11.45h0Z"/>
  <path class="st5" d="M17.8,47.86c4.11-2.77,5.76-9.1,3.63-13.62-2.53-4.7-8.48-6.02-12.96-8.43-3.21-1.64-6.07-3.68-7.42-7.16C-1.94,11.36,1.63,2.9,9.41.24c.58-.19,1.81-.24,1,.44-2.4,1.37-3.62,4.13-3.5,6.87.42,13.41,26.12,9.41,24.16,26.66-.42,3.98-2.55,7.69-5.58,10.26-2.18,1.76-4.83,3.45-7.69,3.41"/>
  <path class="st11" d="M270.42.58c1.58.56,1.22,2.16,1.27,5.17v5.06c0,8.88.04,27.59-.03,34.41.09,3.66-4.83,2.61-7.35,2.72-2.32-.13-3.94-.37-3.82-3.09.18-8.79-.41-33.04.23-42.89.77-2.43,7.66-1.89,9.56-1.42l.13.05h.01ZM254.48,47.54c-.91.32-3,.33-5.29.35-3.73,0-7.3.22-8.56-3.62-2.39-5.53-8.19-19.06-10.61-24.85-.5-1.3-.91-2.59-.95-3.9-.04-3.47,1.73-7.01,2.86-10.37.68-1.72,1.14-3.45,2.08-4.86,1.14-1.32,1.87,2.13,3.65,5.78,2.53,5.78,4.92,11.27,7.55,17.25,3.26,7.55,7.32,16.52,9.88,22.7.21.62.22,1.24-.49,1.5l-.1.04h-.01v-.02Z"/>
</svg>