<?xml version="1.0" encoding="UTF-8"?>
<svg id="Layer_1" data-name="Layer 1" xmlns="http://www.w3.org/2000/svg" viewBox="0 0 215.51 37.98">
  <polygon points="169.72 37.21 160.85 37.21 160.85 .83 161.21 .48 169.36 .48 169.72 .83 169.72 37.21"/>
  <polygon points="215.51 .48 215.51 37.21 206.88 37.21 206.88 .83 207.24 .48 215.51 .48"/>
  <path d="M202.57,37.21h-10.07l-10.06-24.23c.94-4.43,3.17-8.57,4.31-12.98l15.82,37.21Z"/>
  <path d="M7.9.48c-1.54,2.09-2.44,3.32-2.15,6.08.98,9.59,20.64,7.3,19.65,19.8-.38,4.87-4.85,10.92-10.06,10.98,2.48-2.14,3.53-6.12,2.82-9.25-1.2-5.25-10.7-6.62-14.44-9.96C-2.31,12.73-.06,2.28,7.9.48Z"/>
  <path d="M65.68,34.23c.23,1.04,2.39,1.99,3.36,2.27.1.61-.05.37-.34.5-.41.18-1.36.47-1.82.58-14.13,3.22-9.24-15.48-10.04-23.34l5.18-2.85,3.66-5.9v28.74Z"/>
  <rect x="93.97" y="14.07" width="8.63" height="23.14"/>
  <path d="M128.73,37.21h-8.63v-19.92c0-.19-1.15-1.7-1.45-1.9-.85-.58-2.07-.52-2.86-1.2,2.78-1.67,7.76-.69,10.18,1.32.51.42,2.76,3.29,2.76,3.69v18.01Z"/>
  <path d="M155.34,37.21h-8.63v-19.68c0-.18-1.17-1.94-1.44-2.14l-3.11-1.31c3.02-1.34,8.1-.68,10.55,1.54.49.45,2.63,3.37,2.63,3.82v17.77Z"/>
  <path d="M78.62,13.6c-6.67,7.96,7.18,8.46,10.12,13.42s-2.29,10.7-7.41,10.82c-.21,0-.69-.07-.79-.27,7.88-8.64-6.25-9.09-9.31-13.87s2.45-10.55,7.39-10.1Z"/>
  <path d="M42.18,37.92c.36-.63.9-1.14,1.13-1.85.95-2.86.71-12.09.55-15.45-.07-1.49-.22-4.02-.55-5.42s-1.69-2.3,1.18-1.17c12.31,4.82,10.37,21.88-2.32,23.89Z"/>
  <path d="M38.35,37.68c-3.45-.05-6.77-2.66-8.49-5.5-4.51-7.46-.22-16.92,8.25-18.59-1.41,5.42-1.49,11.68-1.21,17.3.07,1.33.24,3.94.6,5.13.23.75.72.98.85,1.66Z"/>
  <path d="M143.35,24.81c-2.03,2.64-4.72,7.84-1.18,10.36.7.5,1.31.57,2.03.85.28.11.45-.18.35.47-14.51,6.64-14.14-11.89-1.2-11.68Z"/>
  <path d="M116.74,24.81c-2.31,3.3-5.11,8.86.07,11.02.62.26,1.55-.08,1.37.66-2.41.79-4.4,1.78-7.05,1.41-1.96-.27-3.68-1.99-3.96-3.94-.79-5.64,4.36-9.25,9.57-9.16Z"/>
  <path d="M3.53,25.81c1.18-.17,2.62.4,3.53,1.15,4.23,3.47-.37,9.81-4.99,6.87-3.36-2.13-2.45-7.45,1.46-8.02Z"/>
  <path d="M17.91,1.01c6.08-1.03,7.19,8.55.86,8.68-5.41.11-5.64-7.87-.86-8.68Z"/>
  <path d="M97.51.54c6.01-.75,6.97,9.06-.3,8.29-4.25-.45-4.54-7.69.3-8.29Z"/>
</svg>