<svg xmlns="http://www.w3.org/2000/svg" width="140" height="140" viewBox="1 1 22.4 22.4" fill="none" stroke="#7A3A38" stroke-width="1.5" stroke-linecap="round" stroke-linejoin="round">
<path d="M6.3 15H11.7C13.8 15 15.4 16 16 17.6C16.5 18.9 16.4 20.1 16.2 21C15.7 23 13.3 23.6 9 23.6C4.7 23.6 2.3 23 1.8 21C1.6 20.1 1.5 18.9 2 17.6C2.6 16 4.2 15 6.3 15Z" transform="translate(0 -0.3)" />
<circle cx="9" cy="7" r="4" />
<path d="M23 21v-2a4 4 0 0 0-3-3.87" />
<path d="M16 3.13a4 4 0 0 1 0 7.75" />
</svg>
