<?xml version="1.0" encoding="UTF-8"?>
<svg id="Layer_1"
     xmlns="http://www.w3.org/2000/svg"
     xmlns:xlink="http://www.w3.org/1999/xlink"
     viewBox="0 0 332.64 195.12"
     overflow="visible">
  <defs>
    <style>
      .st0 { fill: url(#linear-gradient2); }
      .st1 { fill: url(#linear-gradient1); }
      .st2 { fill: url(#linear-gradient3); }
      .st3 { fill: url(#linear-gradient); }
    </style>

    <linearGradient id="linear-gradient"
      x1="-785.36" y1="636.26" x2="-785.36" y2="635.26"
      gradientTransform="translate(87326.34 108286.52) scale(111.12 -170.15)"
      gradientUnits="userSpaceOnUse">
      <stop offset="0" stop-color="#e6bcb9"/>
      <stop offset=".14" stop-color="#be7877"/>
      <stop offset=".29" stop-color="#9a5151"/>
      <stop offset=".43" stop-color="#854343"/>
      <stop offset=".57" stop-color="#6d3333"/>
      <stop offset=".71" stop-color="#4c1c1c"/>
      <stop offset=".86" stop-color="#391212"/>
      <stop offset="1" stop-color="#2e0d0d"/>
    </linearGradient>

    <linearGradient id="linear-gradient1"
      x1="23.93" y1="1026.77" x2="23.93" y2="1066.01"
      gradientTransform="translate(0 -882)"
      gradientUnits="userSpaceOnUse">
      <stop offset="0" stop-color="#666"/>
      <stop offset=".5" stop-color="#383838"/>
      <stop offset=".81" stop-color="#1c1c1c"/>
      <stop offset="1" stop-color="#111"/>
    </linearGradient>

    <linearGradient id="linear-gradient2"
      x1="217" y1="1747.61" x2="319.18" y2="1966.81"
      gradientTransform="translate(0 -1764)"
      gradientUnits="userSpaceOnUse">
      <stop offset="0" stop-color="#757575"/>
      <stop offset=".21" stop-color="#4c4c4c"/>
      <stop offset=".45" stop-color="#353535"/>
      <stop offset=".73" stop-color="#1e1e1e"/>
      <stop offset="1" stop-color="#0c0c0c"/>
    </linearGradient>

    <linearGradient id="linear-gradient3"
      x1="79.28" y1="-2508.86" x2="79.28" y2="-2544.04"
      gradientTransform="translate(0 -2474) scale(1 -1)"
      gradientUnits="userSpaceOnUse">
      <stop offset="0" stop-color="#f5f5f4"/>
      <stop offset=".22" stop-color="#eeedec"/>
      <stop offset=".48" stop-color="#dad9d6"/>
      <stop offset=".72" stop-color="#c7c5c1"/>
      <stop offset="1" stop-color="#a8a59e"/>
    </linearGradient>

    <!-- kokkulepitud drop-shadow: väike blur + lähedane offset -->
    <filter id="shadow-all"
            x="-60" y="-40" width="460" height="300"
            filterUnits="userSpaceOnUse" color-interpolation-filters="sRGB">
      <feGaussianBlur in="SourceAlpha" stdDeviation="1.25" result="blur"/>
      <feOffset in="blur" dx="5" dy="6" result="offsetBlur"/>
      <feColorMatrix in="offsetBlur" type="matrix"
        values="0 0 0 0 0
                0 0 0 0 0
                0 0 0 0 0
                0 0 0 0.80 0"
        result="shadow"/>
      <feMerge><feMergeNode in="shadow"/></feMerge>
    </filter>
  </defs>

  <!-- varju koopiad (must) -->
  <g filter="url(#shadow-all)" aria-hidden="true" fill="#000">
    <path d="M63.43,194.86c14.63-9.87,20.55-32.44,12.96-48.55-9.03-16.76-30.23-21.45-46.18-30.04-11.43-5.84-21.63-13.15-26.45-25.52-10.68-25.99,2.06-56.14,29.76-65.58,2.05-.7,6.46-.85,3.59,1.54-8.55,4.89-12.89,14.74-12.47,24.47,1.53,47.78,93.1,33.55,86.1,94.99-1.53,14.18-9.09,27.4-19.91,36.53-7.76,6.26-17.19,12.3-27.38,12.17"/>
    <path d="M22.57,144.88c24.06-2.42,28.53,35.69,5,38.88-27.44,3.73-31.31-36.25-5-38.88h0Z"/>
    <path d="M327.35,1.9c6.41,2.28,4.98,8.8,5.19,21.04v20.56c0,36.14.16,112.3-.11,140.07.37,14.89-19.71,10.6-30,11.08-9.49-.53-16.06-1.54-15.58-12.61.74-35.77-1.7-134.45.95-174.57,3.13-9.86,31.27-7.68,39-5.78l.53.21h.02,0ZM261.16,193.63c-3.71,1.32-12.24,1.38-21.57,1.43-15.26,0-29.78.9-34.92-14.73-9.75-22.52-33.39-77.59-43.3-101.12-2.07-5.3-3.71-10.55-3.87-15.9-.16-14.1,7.05-28.51,11.66-42.24,2.76-7,4.66-14.04,8.48-19.82,4.66-5.41,7.63,8.69,14.89,23.53,10.33,23.53,20.09,45.84,30.79,70.22,13.3,30.74,29.84,67.25,40.33,92.42.85,2.49.9,5.09-2.01,6.09l-.42.16h0l-.05-.05h-.01Z"/>
    <path d="M75.38,33.18c27.75-4.37,32.82,36.21,3.92,36.76-24.7.47-25.74-33.32-3.92-36.76Z"/>
  </g>

  <!-- originaal kujundid peal (puhtad, ilma stroke’ideta) -->
  <path class="st3" d="M63.43,194.86c14.63-9.87,20.55-32.44,12.96-48.55-9.03-16.76-30.23-21.45-46.18-30.04-11.43-5.84-21.63-13.15-26.45-25.52-10.68-25.99,2.06-56.14,29.76-65.58,2.05-.7,6.46-.85,3.59,1.54-8.55,4.89-12.89,14.74-12.47,24.47,1.53,47.78,93.1,33.55,86.1,94.99-1.53,14.18-9.09,27.4-19.91,36.53-7.76,6.26-17.19,12.3-27.38,12.17"/>
  <path class="st1" d="M22.57,144.88c24.06-2.42,28.53,35.69,5,38.88-27.44,3.73-31.31-36.25-5-38.88h0Z"/>
  <path class="st0" d="M327.35,1.9c6.41,2.28,4.98,8.8,5.19,21.04v20.56c0,36.14.16,112.3-.11,140.07.37,14.89-19.71,10.6-30,11.08-9.49-.53-16.06-1.54-15.58-12.61.74-35.77-1.7-134.45.95-174.57,3.13-9.86,31.27-7.68,39-5.78l.53.21h.02,0ZM261.16,193.63c-3.71,1.32-12.24,1.38-21.57,1.43-15.26,0-29.78.9-34.92-14.73-9.75-22.52-33.39-77.59-43.3-101.12-2.07-5.3-3.71-10.55-3.87-15.9-.16-14.1,7.05-28.51,11.66-42.24,2.76-7,4.66-14.04,8.48-19.82,4.66-5.41,7.63,8.69,14.89,23.53,10.33,23.53,20.09,45.84,30.79,70.22,13.3,30.74,29.84,67.25,40.33,92.42.85,2.49.9,5.09-2.01,6.09l-.42.16h0l-.05-.05h-.01Z"/>
  <path class="st2" d="M75.38,33.18c27.75-4.37,32.82,36.21,3.92,36.76-24.7.47-25.74-33.32-3.92-36.76Z"/>
</svg>
