<?xml version="1.0" encoding="UTF-8"?>
<svg id="Layer_1" xmlns="http://www.w3.org/2000/svg" version="1.1" xmlns:xlink="http://www.w3.org/1999/xlink" viewBox="0 0 291 195.73">
  <!-- Generator: Adobe Illustrator 29.5.0, SVG Export Plug-In . SVG Version: 2.1.0 Build 137)  -->
  <defs>
    <style>
      .st0 {
        fill: url(#linear-gradient2);
      }

      .st1 {
        fill: url(#linear-gradient1);
      }

      .st2 {
        fill: url(#linear-gradient4);
      }

      .st3 {
        fill: url(#linear-gradient3);
      }

      .st4 {
        fill: url(#linear-gradient);
      }
    </style>
    <linearGradient id="linear-gradient" x1="38.57" y1="3606.57" x2="38.57" y2="3726.27" gradientTransform="translate(0 -3528)" gradientUnits="userSpaceOnUse">
      <stop offset="0" stop-color="#003c6a"/>
      <stop offset="0" stop-color="#003965"/>
      <stop offset="0" stop-color="#003761"/>
      <stop offset="0" stop-color="#cecece"/>
      <stop offset="0" stop-color="#dadada"/>
      <stop offset="0" stop-color="silver"/>
      <stop offset="0" stop-color="#737373"/>
      <stop offset="0" stop-color="#909090"/>
      <stop offset="0" stop-color="#a1a1a1"/>
      <stop offset="0" stop-color="#999"/>
      <stop offset="0" stop-color="#a8a8a8"/>
      <stop offset=".17" stop-color="#2f2f2f"/>
      <stop offset="1" stop-color="#383838"/>
    </linearGradient>
    <linearGradient id="linear-gradient1" x1="19.26" y1="3689.21" x2="6.01" y2="3712.16" gradientTransform="translate(0 -3528)" gradientUnits="userSpaceOnUse">
      <stop offset="0" stop-color="#003c6a"/>
      <stop offset="0" stop-color="#003965"/>
      <stop offset="0" stop-color="#003761"/>
      <stop offset="0" stop-color="#a0a0a0"/>
      <stop offset=".9" stop-color="#1b1b1b"/>
      <stop offset="1" stop-color="#0c0c0c"/>
    </linearGradient>
    <linearGradient id="linear-gradient2" x1="63.41" y1="3612.15" x2="50.15" y2="3635.14" gradientTransform="translate(0 -3528)" gradientUnits="userSpaceOnUse">
      <stop offset="0" stop-color="#003c6a"/>
      <stop offset="0" stop-color="#003965"/>
      <stop offset="0" stop-color="#003761"/>
      <stop offset="0" stop-color="#c9c9c9"/>
      <stop offset="1" stop-color="#606060"/>
    </linearGradient>
    <linearGradient id="linear-gradient3" x1="51.79" y1="-781.86" x2="97.73" y2="-781.86" gradientTransform="translate(0 -684) scale(1 -1)" gradientUnits="userSpaceOnUse">
      <stop offset="0" stop-color="#003c6a"/>
      <stop offset="0" stop-color="#003965"/>
      <stop offset="0" stop-color="#003761"/>
      <stop offset="0" stop-color="#4851fa"/>
      <stop offset="1" stop-color="#a133e1"/>
    </linearGradient>
    <linearGradient id="linear-gradient4" x1="113.01" y1="-781.87" x2="218.73" y2="-781.87" gradientTransform="translate(0 -684) scale(1 -1)" gradientUnits="userSpaceOnUse">
      <stop offset="0" stop-color="#003c6a"/>
      <stop offset="0" stop-color="#003965"/>
      <stop offset="0" stop-color="#003761"/>
      <stop offset="0" stop-color="#4851fa"/>
      <stop offset="1" stop-color="#a133e1"/>
    </linearGradient>
  </defs>
  <g>
    <path class="st4" d="M27.55,79.79c-8.52,3.2-11.66,12.49-10.16,21.05,4.75,27.18,55.96,20.25,59.57,54.43,1.44,13.68-5.94,27-17.06,34.5-4.5,3.04-10.34,6.39-15.85,5.9,8.4-5.13,12.22-16.69,11.16-26.17-2.82-25.35-44.15-20.73-53-46-7.14-20.39,3.58-38.96,23.78-44.93l1.55,1.21h0Z"/>
    <path class="st1" d="M12.38,159.24c13.51-1.34,16.64,25,3.47,26.77-19.08,2.57-21.77-24.96-3.47-26.77Z"/>
    <path class="st0" d="M52.74,82.63c15.33-3.13,23.87,15.01,11.82,23.82-10.86,7.95-25.8-3.9-19.79-16.79,1.29-2.77,4.95-6.42,7.97-7.04h0Z"/>
  </g>
  <path class="st3" d="M285.77,194.53c-6.17,1.55-11.49.94-19.2,1.13-6.39-.36-20.42,1.22-22.14-3.86-1.74-35.73-.09-142.83-.61-181.37.1-5.1.41-7.78,4.77-9.03,6.88-1.64,17.88-1.39,25.64-1.19,3.98.2,7.77.23,11.41,1.49,3.8,1.44,3.81,4.45,3.9,9.87.02,8.03,0,15.77,0,24v117.21c-.01,15.24.03,27.64-.02,34.53,0,3.02-.3,6.27-3.67,7.18l-.09.03h.01Z"/>
  <path class="st2" d="M216.76,194.79c-3.77.99-8.07.8-12.08.91-7.02.03-16.35.06-23.33-.02-5.82-.1-10.07-.37-12.82-1.45-4.39-1.64-5.72-6.09-7.55-10.16-9.86-23.71-34.75-83.24-45.38-108.93-1.49-3.71-2.61-7.31-2.59-11.14.4-9.51,4.74-18.53,7.96-28.69C123.08,30.11,132.45-1.57,137.3.06c1.68.55,3.08,4.64,5.37,10,17.44,41.53,43.69,104.02,61.51,146.48,6.02,14.37,10.87,25.84,13.45,32.07.84,2.18,2.33,5.25-.8,6.16l-.08.03h.01Z"/>
</svg>