<?xml version="1.0" encoding="UTF-8"?>
<svg id="Layer_1" xmlns="http://www.w3.org/2000/svg" version="1.1" xmlns:xlink="http://www.w3.org/1999/xlink" viewBox="0 0 349.74 209.43">
  <!-- Generator: Adobe Illustrator 29.5.0, SVG Export Plug-In . SVG Version: 2.1.0 Build 137)  -->
  <defs>
    <style>
      .st0 {
        fill: url(#linear-gradient2);
      }

      .st0, .st1, .st2 {
        stroke: #000;
        stroke-miterlimit: 10;
        stroke-opacity: .5;
        stroke-width: .1px;
      }

      .st1 {
        fill: url(#linear-gradient1);
      }

      .st2 {
        fill: url(#linear-gradient);
      }

      .st3 {
        filter: url(#drop-shadow-1);
      }

      .st4 {
        fill: url(#linear-gradient3);
      }
    </style>
    <filter id="drop-shadow-1" x="-8.51" y="-8.98" width="368" height="230">
      <feOffset dx="7" dy="7"/>
      <feGaussianBlur result="blur" stdDeviation="5.67"/>
      <feFlood flood-color="#000" flood-opacity=".75"/>
      <feComposite in2="blur" operator="in"/>
      <feComposite in="SourceGraphic"/>
    </filter>
    <linearGradient id="linear-gradient" x1="26.47" y1="-816.65" x2="26.47" y2="-855.95" gradientTransform="translate(0 -670) scale(1 -1)" gradientUnits="userSpaceOnUse">
      <stop offset="0" stop-color="#666"/>
      <stop offset=".5" stop-color="#383838"/>
      <stop offset=".81" stop-color="#1c1c1c"/>
      <stop offset="1" stop-color="#111"/>
    </linearGradient>
    <linearGradient id="linear-gradient1" x1="8.56" y1="1762.95" x2="116.48" y2="1996.87" gradientTransform="translate(0 -1760.81)" gradientUnits="userSpaceOnUse">
      <stop offset="0" stop-color="#f9eceb"/>
      <stop offset=".25" stop-color="#e0b0af"/>
      <stop offset=".5" stop-color="#b17c7c"/>
      <stop offset=".75" stop-color="#a27777"/>
      <stop offset="1" stop-color="#95706f"/>
    </linearGradient>
    <linearGradient id="linear-gradient2" x1="219.5" y1="-1537.52" x2="321.68" y2="-1756.72" gradientTransform="translate(0 -1552) scale(1 -1)" gradientUnits="userSpaceOnUse">
      <stop offset="0" stop-color="#757575"/>
      <stop offset=".21" stop-color="#4c4c4c"/>
      <stop offset=".45" stop-color="#353535"/>
      <stop offset=".73" stop-color="#1e1e1e"/>
      <stop offset="1" stop-color="#0c0c0c"/>
    </linearGradient>
    <linearGradient id="linear-gradient3" x1="81.83" y1="3586.88" x2="81.83" y2="3622.04" gradientTransform="translate(0 -3550.19)" gradientUnits="userSpaceOnUse">
      <stop offset="0" stop-color="#f5f5f4"/>
      <stop offset=".22" stop-color="#eeedec"/>
      <stop offset=".48" stop-color="#dad9d6"/>
      <stop offset=".72" stop-color="#c7c5c1"/>
      <stop offset="1" stop-color="#a8a59e"/>
    </linearGradient>
  </defs>
  <g class="st3">
    <path class="st2" d="M25.25,146.73c10.16-.97,19.12,7.16,20.15,17.13,2.35,15.88-13.92,27.15-28.03,19.78-16.71-8.99-11.52-35.14,7.48-36.87l.4-.03h0Z"/>
    <path class="st1" d="M40.82,27.9c-.47.91-2.15,1.53-3.1,2.27-11.49,7.62-13.37,25.47-7.03,37.35,4.25,7.85,11.27,12.94,19.77,17.5,21.52,11.55,52.15,17.6,60.82,43.69,7.82,23.71-5.43,50.12-26.15,62.14-4.91,2.96-11.03,6.22-16.82,6.06-1.78-.51,1.45-2.5,3.04-4.29,7.64-7.99,11.14-19.7,10.81-30.62-1.01-42.42-73.51-33-78.73-79.09-3.43-17.64,2.98-35.82,17.15-46.94,3.21-2.64,16.27-11.27,20.28-8.63.04.06.04.19.06.26-.03.18.03-.08-.06.22l-.04.08Z"/>
    <path class="st0" d="M329.85,3.81c6.41,2.28,4.98,8.8,5.19,21.04v20.56c0,36.14.16,112.3-.11,140.07.37,14.89-19.71,10.6-30,11.08-9.49-.53-16.06-1.54-15.58-12.61.74-35.77-1.7-134.45.95-174.57,3.13-9.86,31.27-7.68,39-5.78l.53.21h.02,0ZM263.66,195.54c-3.71,1.32-12.24,1.38-21.57,1.43-15.26,0-29.78.9-34.92-14.73-9.75-22.52-33.39-77.59-43.3-101.12-2.07-5.3-3.71-10.55-3.87-15.9-.16-14.1,7.05-28.51,11.66-42.24,2.76-7,4.66-14.04,8.48-19.82,4.66-5.41,7.63,8.69,14.89,23.53,10.33,23.53,20.09,45.84,30.79,70.22,13.3,30.74,29.84,67.25,40.33,92.42.85,2.49.9,5.09-2.01,6.09l-.42.16h0l-.05-.05h-.01Z"/>
    <path class="st4" d="M78.39,35.01c14.04-2.58,26.44,10.54,21.98,24.27-4.48,14.26-25.99,16.83-34.53,4.93-8.13-11.02-1.17-27.05,12.35-29.17l.2-.04h0Z"/>
  </g>
</svg>