<?xml version="1.0" encoding="UTF-8"?>
<svg id="Layer_1" xmlns="http://www.w3.org/2000/svg" version="1.1" xmlns:xlink="http://www.w3.org/1999/xlink" viewBox="0 0 291 195.73">
  <!-- Generator: Adobe Illustrator 29.5.0, SVG Export Plug-In . SVG Version: 2.1.0 Build 137)  -->
  <defs>
    <style>
      .st0 {
        fill: url(#linear-gradient2);
      }

      .st1 {
        fill: url(#linear-gradient1);
      }

      .st2 {
        fill: url(#linear-gradient4);
      }

      .st3 {
        fill: url(#linear-gradient5);
      }

      .st4 {
        fill: url(#linear-gradient3);
      }

      .st5 {
        fill: url(#linear-gradient);
      }
    </style>
    <linearGradient id="linear-gradient" x1="51.43" y1="-781.86" x2="97.37" y2="-781.86" gradientTransform="translate(0 -684) scale(1 -1)" gradientUnits="userSpaceOnUse">
      <stop offset="0" stop-color="#003c6a"/>
      <stop offset="0" stop-color="#003965"/>
      <stop offset="0" stop-color="#003761"/>
      <stop offset="0" stop-color="#4851fa"/>
      <stop offset="1" stop-color="#a133e1"/>
    </linearGradient>
    <linearGradient id="linear-gradient1" x1="116.19" y1="-781.87" x2="221.91" y2="-781.87" gradientTransform="translate(0 -684) scale(1 -1)" gradientUnits="userSpaceOnUse">
      <stop offset="0" stop-color="#003c6a"/>
      <stop offset="0" stop-color="#003965"/>
      <stop offset="0" stop-color="#003761"/>
      <stop offset="0" stop-color="#4851fa"/>
      <stop offset="1" stop-color="#a133e1"/>
    </linearGradient>
    <linearGradient id="linear-gradient2" x1="16.68" y1="-842.62" x2="11.64" y2="-851.35" gradientTransform="translate(0 -684) scale(1 -1)" gradientUnits="userSpaceOnUse">
      <stop offset="0" stop-color="#003c6a"/>
      <stop offset="0" stop-color="#003965"/>
      <stop offset="0" stop-color="#003761"/>
      <stop offset="0" stop-color="#fff"/>
      <stop offset="1" stop-color="#ccc"/>
    </linearGradient>
    <linearGradient id="linear-gradient3" x1="39.21" y1="-762.57" x2="39.21" y2="-882.27" gradientTransform="translate(0 -684) scale(1 -1)" gradientUnits="userSpaceOnUse">
      <stop offset="0" stop-color="#003c6a"/>
      <stop offset="0" stop-color="#003965"/>
      <stop offset="0" stop-color="#003761"/>
      <stop offset="0" stop-color="#fff"/>
      <stop offset=".21" stop-color="#fcfcfc"/>
      <stop offset=".31" stop-color="#f5f5f5"/>
      <stop offset=".32" stop-color="#f4f4f4"/>
      <stop offset=".4" stop-color="#eee"/>
      <stop offset=".51" stop-color="#dfdfdf"/>
      <stop offset=".67" stop-color="#c6c6c6"/>
      <stop offset=".81" stop-color="#a4a4a4"/>
      <stop offset=".99" stop-color="#777"/>
      <stop offset="1" stop-color="#5b5b5b"/>
    </linearGradient>
    <linearGradient id="linear-gradient4" x1="20.28" y1="-844.88" x2="6.63" y2="-868.52" gradientTransform="translate(0 -684) scale(1 -1)" gradientUnits="userSpaceOnUse">
      <stop offset="0" stop-color="#003c6a"/>
      <stop offset="0" stop-color="#003965"/>
      <stop offset="0" stop-color="#003761"/>
      <stop offset="0" stop-color="#e8e8e8"/>
      <stop offset=".74" stop-color="#777"/>
      <stop offset="1" stop-color="#474747"/>
    </linearGradient>
    <linearGradient id="linear-gradient5" x1="64.05" y1="-768.15" x2="50.79" y2="-791.14" gradientTransform="translate(0 -684) scale(1 -1)" gradientUnits="userSpaceOnUse">
      <stop offset="0" stop-color="#003c6a"/>
      <stop offset="0" stop-color="#003965"/>
      <stop offset="0" stop-color="#003761"/>
      <stop offset="0" stop-color="#fff"/>
      <stop offset="1" stop-color="#e5e5e5"/>
    </linearGradient>
  </defs>
  <g>
    <path class="st5" d="M285.41,194.53c-6.17,1.55-11.49.94-19.2,1.13-6.39-.36-20.42,1.22-22.14-3.86-1.74-35.73-.09-142.83-.61-181.37.1-5.1.41-7.78,4.77-9.03,6.88-1.64,17.88-1.39,25.64-1.19,3.98.2,7.77.23,11.41,1.49,3.8,1.44,3.81,4.45,3.9,9.87.02,8.03,0,15.77,0,24v117.21c-.01,15.24.03,27.64-.02,34.53,0,3.02-.3,6.27-3.67,7.18l-.09.03h.01Z"/>
    <path class="st1" d="M219.94,194.79c-3.77.99-8.07.8-12.08.91-7.02.03-16.35.06-23.33-.02-5.82-.1-10.07-.37-12.82-1.45-4.39-1.64-5.72-6.09-7.55-10.16-9.86-23.71-34.75-83.24-45.38-108.93-1.49-3.71-2.61-7.31-2.59-11.14.4-9.51,4.74-18.53,7.96-28.69C126.26,30.11,135.63-1.57,140.48.06c1.68.55,3.08,4.64,5.37,10,17.44,41.53,43.69,104.02,61.51,146.48,6.02,14.37,10.87,25.84,13.45,32.07.84,2.18,2.33,5.25-.8,6.16l-.08.03h.01Z"/>
  </g>
  <path class="st0" d="M10.19,166.51c1.29-2.77,4.95-6.42,7.97-7.04"/>
  <g>
    <path class="st4" d="M28.19,79.79c-8.52,3.2-11.66,12.49-10.16,21.05,4.75,27.18,55.96,20.25,59.57,54.43,1.44,13.68-5.94,27-17.06,34.5-4.5,3.04-10.34,6.39-15.85,5.9,8.4-5.13,12.22-16.69,11.16-26.17-2.82-25.35-44.15-20.73-53-46-7.14-20.39,3.58-38.96,23.78-44.93l1.55,1.21h0Z"/>
    <path class="st2" d="M12.38,159.24c16.73-1.66,19.83,24.57,3.47,26.77-19.08,2.57-21.77-24.96-3.47-26.77Z"/>
    <path class="st3" d="M53.38,82.63c15.33-3.13,23.87,15.01,11.82,23.82-10.86,7.95-25.8-3.9-19.79-16.79,1.29-2.77,4.95-6.42,7.97-7.04h0Z"/>
  </g>
</svg>