<?xml version="1.0" encoding="UTF-8"?>
<svg xmlns="http://www.w3.org/2000/svg" viewBox="0 0 111.12 170.15" overflow="visible">
  <defs>
    <style>
      .st0 { fill: url(#linear-gradient2); }
      .st1 { fill: url(#red-vertical); }
      .st2 { fill: url(#linear-gradient); }
    </style>

    <linearGradient id="linear-gradient"
                    x1="24.12" y1="74.54"
                    x2="24.12" y2="35.3"
                    gradientTransform="translate(0 194.78) scale(1 -1)"
                    gradientUnits="userSpaceOnUse">
      <stop offset="0" stop-color="#303030"/>
      <stop offset=".47" stop-color="#111111"/>
      <stop offset="1" stop-color="#000000"/>
    </linearGradient>

    <linearGradient id="linear-gradient2"
                    x1="79.28" y1="2682.15"
                    x2="79.28" y2="2717.33"
                    gradientTransform="translate(0 -2672)"
                    gradientUnits="userSpaceOnUse">
      <stop offset="0" stop-color="#f5f5f4"/>
      <stop offset=".22" stop-color="#eeedec"/>
      <stop offset=".48" stop-color="#dad9d6"/>
      <stop offset=".72" stop-color="#c7c5c1"/>
      <stop offset="1" stop-color="#a8a59e"/>
    </linearGradient>

    <linearGradient id="red-vertical"
                    x1="0" y1="0"
                    x2="0" y2="1"
                    gradientUnits="objectBoundingBox">
      <stop offset="0"    stop-color="#cfa099"/>
      <stop offset="0.35" stop-color="#a4615c"/>
      <stop offset="0.7"  stop-color="#6a302f"/>
      <stop offset="1"    stop-color="#301413"/>
    </linearGradient>

    <filter id="shadow-all"
            x="-40" y="-40"
            width="260" height="260"
            filterUnits="userSpaceOnUse"
            color-interpolation-filters="sRGB">
      <feGaussianBlur in="SourceAlpha" stdDeviation="1.25" result="blur" />
      <feOffset in="blur" dx="5" dy="6" result="offsetBlur" />
      <feColorMatrix in="offsetBlur" type="matrix"
        values="0 0 0 0 0
                0 0 0 0 0
                0 0 0 0 0
                0 0 0 0.80 0"
        result="shadow" />
      <feMerge>
        <feMergeNode in="shadow" />
      </feMerge>
    </filter>
  </defs>

  <g filter="url(#shadow-all)" aria-hidden="true">
    <path
      d="M22.75,120.35c24.06-2.42,28.53,35.69,5,38.88-27.44,3.73-31.31-36.25-5-38.88h0Z"
      fill="#000000"/>
    <path
      d="M63.43,170.14c14.63-9.87,20.55-32.44,12.96-48.55-9.03-16.76-30.23-21.45-46.18-30.04-11.43-5.84-21.63-13.15-26.45-25.52C-6.92,40.04,5.82,9.89,33.52.45c2.05-.7,6.46-.85,3.59,1.54-8.55,4.89-12.89,14.74-12.47,24.47,1.53,47.78,93.1,33.55,86.1,94.99-1.53,14.18-9.09,27.4-19.91,36.53-7.76,6.26-17.19,12.3-27.38,12.17"
      fill="#000000"/>
    <path
      d="M75.38,8.47c27.75-4.37,32.82,36.21,3.92,36.76-24.7.47-25.74-33.32-3.92-36.76Z"
      fill="#000000"/>
  </g>

  <path class="st2"
        d="M22.75,120.35c24.06-2.42,28.53,35.69,5,38.88-27.44,3.73-31.31-36.25-5-38.88h0Z"/>
  <path class="st1"
        d="M63.43,170.14c14.63-9.87,20.55-32.44,12.96-48.55-9.03-16.76-30.23-21.45-46.18-30.04-11.43-5.84-21.63-13.15-26.45-25.52C-6.92,40.04,5.82,9.89,33.52.45c2.05-.7,6.46-.85,3.59,1.54-8.55,4.89-12.89,14.74-12.47,24.47,1.53,47.78,93.1,33.55,86.1,94.99-1.53,14.18-9.09,27.4-19.91,36.53-7.76,6.26-17.19,12.3-27.38,12.17"/>
  <path class="st0"
        d="M75.38,8.47c27.75-4.37,32.82,36.21,3.92,36.76-24.7.47-25.74-33.32-3.92-36.76Z"/>
</svg>
