<?xml version="1.0" encoding="UTF-8"?>
<svg id="Layer_1" xmlns="http://www.w3.org/2000/svg" version="1.1" xmlns:xlink="http://www.w3.org/1999/xlink" viewBox="0 0 77.89 117.15">
  <!-- Generator: Adobe Illustrator 29.5.0, SVG Export Plug-In . SVG Version: 2.1.0 Build 137)  -->
  <defs>
    <style>
      .st0 {
        fill: url(#linear-gradient2);
      }

      .st1 {
        fill: url(#linear-gradient1);
      }

      .st2 {
        fill: url(#linear-gradient);
      }
    </style>
    <linearGradient id="linear-gradient" x1="39.32" y1="-2839.14" x2="39.32" y2="-2958.84" gradientTransform="translate(0 -2839.14) scale(1 -1)" gradientUnits="userSpaceOnUse">
      <stop offset="0" stop-color="#003c6a"/>
      <stop offset="0" stop-color="#003965"/>
      <stop offset="0" stop-color="#003761"/>
      <stop offset="0" stop-color="#f4f4f4"/>
      <stop offset="0" stop-color="#f1f1f1"/>
      <stop offset="0" stop-color="#ebebeb"/>
      <stop offset="0" stop-color="#dadada"/>
      <stop offset="0" stop-color="silver"/>
      <stop offset="0" stop-color="#ecd9ba"/>
      <stop offset=".99" stop-color="#bfa177"/>
    </linearGradient>
    <linearGradient id="linear-gradient1" x1="22.76" y1="-2917.62" x2="1.11" y2="-2954.05" gradientTransform="translate(0 -2839.14) scale(1 -1)" gradientUnits="userSpaceOnUse">
      <stop offset="0" stop-color="#003c6a"/>
      <stop offset="0" stop-color="#ffffe1"/>
      <stop offset=".8" stop-color="#7c7967"/>
    </linearGradient>
    <linearGradient id="linear-gradient2" x1="64.17" y1="-2844.72" x2="39.08" y2="-2888.16" gradientTransform="translate(0 -2839.14) scale(1 -1)" gradientUnits="userSpaceOnUse">
      <stop offset="0" stop-color="#003c6a"/>
      <stop offset="0" stop-color="#003965"/>
      <stop offset="0" stop-color="#003761"/>
      <stop offset="0" stop-color="#c6bfaf"/>
      <stop offset=".85" stop-color="#e5e5df"/>
    </linearGradient>
  </defs>
  <path class="st2" d="M28.3,1.22c-8.52,3.2-11.66,12.49-10.16,21.05,4.75,27.18,55.96,20.25,59.57,54.43,1.44,13.68-5.94,27-17.06,34.5-4.5,3.04-10.34,6.39-15.85,5.9,8.4-5.13,12.22-16.69,11.16-26.17-2.82-25.35-44.15-20.73-53-46C-4.18,24.54,6.54,5.97,26.74,0l1.55,1.21h.01Z"/>
  <path class="st1" d="M12.38,80.67c16.73-1.66,19.83,24.57,3.47,26.77-19.08,2.57-21.77-24.96-3.47-26.77Z"/>
  <path class="st0" d="M53.49,4.06c15.33-3.13,23.87,15.01,11.82,23.82-10.86,7.95-25.8-3.9-19.79-16.79,1.29-2.77,4.95-6.42,7.97-7.04h0Z"/>
</svg>