<?xml version="1.0" encoding="UTF-8"?>
<svg id="Layer_1" data-name="Layer 1" xmlns="http://www.w3.org/2000/svg" xmlns:xlink="http://www.w3.org/1999/xlink" viewBox="0 0 125.92 185.81">
  <defs>
    <style>
      .cls-1 {
        fill: url(#linear-gradient-2);
      }

      .cls-2 {
        mask: url(#mask-1);
      }

      .cls-3 {
        fill: #fff;
      }

      .cls-4 {
        mask: url(#mask);
      }

      .cls-5 {
        opacity: .12;
        stroke-width: .6px;
      }

      .cls-5, .cls-6, .cls-7, .cls-8 {
        fill: none;
        stroke-linecap: round;
        stroke-linejoin: round;
      }

      .cls-5, .cls-8 {
        stroke: #eccbc9;
      }

      .cls-6 {
        opacity: .38;
        stroke-width: 1.6px;
      }

      .cls-6, .cls-7 {
        stroke: #8a4a46;
      }

      .cls-9 {
        fill: url(#linear-gradient-4);
      }

      .cls-10 {
        fill: url(#linear-gradient-3);
      }

      .cls-7 {
        opacity: .25;
      }

      .cls-8 {
        opacity: .35;
        stroke-width: 1.8px;
      }

      .cls-11 {
        fill: url(#linear-gradient);
      }

      .cls-12 {
        filter: url(#stroke-soft);
      }

      .cls-13 {
        filter: url(#shadow-all);
      }
    </style>
    <filter id="shadow-all" x="-40" y="-40" width="260" height="260">
      <feGaussianBlur in="SourceAlpha" result="blur" stdDeviation="1.25"/>
      <feOffset dx="5" dy="6" in="blur" result="offsetBlur"/>
      <feColorMatrix in="offsetBlur" result="shadow" values="0 0 0 0 0                 0 0 0 0 0                 0 0 0 0 0                 0 0 0 0.80 0"/>
      <feMerge>
        <feMergeNode in="shadow"/>
      </feMerge>
    </filter>
    <linearGradient id="linear-gradient" x1="30.01" y1="91.36" x2="30.01" y2="130.6" gradientTransform="translate(0 34.78)" gradientUnits="userSpaceOnUse">
      <stop offset="0" stop-color="#303030"/>
      <stop offset=".47" stop-color="#111"/>
      <stop offset="1" stop-color="#000"/>
    </linearGradient>
    <linearGradient id="linear-gradient-2" x1="-16.39" y1="170.93" x2="-16.39" y2="169.93" gradientTransform="translate(1883.1 29090.08) scale(111.12 -170.15)" gradientUnits="userSpaceOnUse">
      <stop offset="0" stop-color="#cfa099"/>
      <stop offset=".35" stop-color="#a4615c"/>
      <stop offset=".7" stop-color="#6a302f"/>
      <stop offset="1" stop-color="#301413"/>
    </linearGradient>
    <linearGradient id="linear-gradient-3" x1="85.18" y1="-2506.25" x2="85.18" y2="-2541.43" gradientTransform="translate(0 -2490.2) scale(1 -1)" gradientUnits="userSpaceOnUse">
      <stop offset="0" stop-color="#f5f5f4"/>
      <stop offset=".22" stop-color="#eeedec"/>
      <stop offset=".48" stop-color="#dad9d6"/>
      <stop offset=".72" stop-color="#c7c5c1"/>
      <stop offset="1" stop-color="#a8a59e"/>
    </linearGradient>
    <linearGradient id="linear-gradient-4" x1="6.4" y1="175.9" x2="6.4" y2="174.9" gradientTransform="translate(0 181.8) scale(1 -1)" gradientUnits="userSpaceOnUse">
      <stop offset="0" stop-color="#000"/>
      <stop offset=".5" stop-color="#000"/>
      <stop offset=".9" stop-color="#fff"/>
      <stop offset="1" stop-color="#fff"/>
    </linearGradient>
    <mask id="mask" x="-28.88" y="-46.59" width="181" height="275" maskUnits="userSpaceOnUse">
      <g id="stroke-mask">
        <rect class="cls-9" x="5.9" y="5.9" width="1" height="1"/>
      </g>
    </mask>
    <mask id="mask-1" x="-28.88" y="-46.59" width="181" height="275" maskUnits="userSpaceOnUse">
      <g id="clip-shape">
        <path class="cls-3" d="M28.65,126.25c24.06-2.42,28.53,35.69,5,38.88-27.44,3.73-31.31-36.25-5-38.88h0Z"/>
        <path class="cls-3" d="M69.33,176.04c14.63-9.87,20.55-32.44,12.96-48.55-9.03-16.76-30.23-21.45-46.18-30.04-11.43-5.84-21.63-13.15-26.45-25.52C-1.02,45.94,11.72,15.79,39.42,6.35c2.05-.7,6.46-.85,3.59,1.54-8.55,4.89-12.89,14.74-12.47,24.47,1.53,47.78,93.1,33.55,86.1,94.99-1.53,14.18-9.09,27.4-19.91,36.53-7.76,6.26-17.19,12.3-27.38,12.17"/>
      </g>
    </mask>
    <filter id="stroke-soft" x="-30%" y="-30%" width="160%" height="160%">
      <feGaussianBlur in="SourceGraphic" stdDeviation="3.2"/>
    </filter>
  </defs>
  <g class="cls-13">
    <path d="M28.65,126.25c24.06-2.42,28.53,35.69,5,38.88-27.44,3.73-31.31-36.25-5-38.88h0Z"/>
    <path d="M69.33,176.04c14.63-9.87,20.55-32.44,12.96-48.55-9.03-16.76-30.23-21.45-46.18-30.04-11.43-5.84-21.63-13.15-26.45-25.52C-1.02,45.94,11.72,15.79,39.42,6.35c2.05-.7,6.46-.85,3.59,1.54-8.55,4.89-12.89,14.74-12.47,24.47,1.53,47.78,93.1,33.55,86.1,94.99-1.53,14.18-9.09,27.4-19.91,36.53-7.76,6.26-17.19,12.3-27.38,12.17"/>
    <path d="M81.28,14.37c27.75-4.37,32.82,36.21,3.92,36.76-24.7.47-25.74-33.32-3.92-36.76Z"/>
  </g>
  <path class="cls-11" d="M28.65,126.25c24.06-2.42,28.53,35.69,5,38.88-27.44,3.73-31.31-36.25-5-38.88h0Z"/>
  <path class="cls-1" d="M69.33,176.04c14.63-9.87,20.55-32.44,12.96-48.55-9.03-16.76-30.23-21.45-46.18-30.04-11.43-5.84-21.63-13.15-26.45-25.52C-1.02,45.94,11.72,15.79,39.42,6.35c2.05-.7,6.46-.85,3.59,1.54-8.55,4.89-12.89,14.74-12.47,24.47,1.53,47.78,93.1,33.55,86.1,94.99-1.53,14.18-9.09,27.4-19.91,36.53-7.76,6.26-17.19,12.3-27.38,12.17"/>
  <path class="cls-10" d="M81.28,14.37c27.75-4.37,32.82,36.21,3.92,36.76-24.7.47-25.74-33.32-3.92-36.76Z"/>
  <g class="cls-4">
    <g class="cls-2">
      <g class="cls-12">
        <path class="cls-7" d="M28.65,126.25c24.06-2.42,28.53,35.69,5,38.88-27.44,3.73-31.31-36.25-5-38.88h0Z"/>
        <path class="cls-6" d="M69.33,176.04c14.63-9.87,20.55-32.44,12.96-48.55-9.03-16.76-30.23-21.45-46.18-30.04-11.43-5.84-21.63-13.15-26.45-25.52C-1.02,45.94,11.72,15.79,39.42,6.35c2.05-.7,6.46-.85,3.59,1.54-8.55,4.89-12.89,14.74-12.47,24.47,1.53,47.78,93.1,33.55,86.1,94.99-1.53,14.18-9.09,27.4-19.91,36.53-7.76,6.26-17.19,12.3-27.38,12.17"/>
        <path class="cls-5" d="M28.65,126.25c24.06-2.42,28.53,35.69,5,38.88-27.44,3.73-31.31-36.25-5-38.88h0Z"/>
        <path class="cls-8" d="M69.33,176.04c14.63-9.87,20.55-32.44,12.96-48.55-9.03-16.76-30.23-21.45-46.18-30.04-11.43-5.84-21.63-13.15-26.45-25.52C-1.02,45.94,11.72,15.79,39.42,6.35c2.05-.7,6.46-.85,3.59,1.54-8.55,4.89-12.89,14.74-12.47,24.47,1.53,47.78,93.1,33.55,86.1,94.99-1.53,14.18-9.09,27.4-19.91,36.53-7.76,6.26-17.19,12.3-27.38,12.17"/>
      </g>
    </g>
  </g>
</svg>