<?xml version="1.0" encoding="UTF-8"?>
<svg id="Layer_1" xmlns="http://www.w3.org/2000/svg" version="1.1" xmlns:xlink="http://www.w3.org/1999/xlink" viewBox="0 0 111.08 170.25">
  <!-- Generator: Adobe Illustrator 29.5.0, SVG Export Plug-In . SVG Version: 2.1.0 Build 137)  -->
  <defs>
    <style>
      .st0 {
        fill: url(#linear-gradient2);
      }

      .st0, .st1, .st2 {
        stroke: #000;
        stroke-miterlimit: 10;
        stroke-opacity: .5;
        stroke-width: .1px;
      }

      .st1 {
        fill: url(#linear-gradient1);
      }

      .st2 {
        fill: url(#linear-gradient);
      }
    </style>
    <linearGradient id="linear-gradient" x1="-771.8" y1="603.23" x2="-771.8" y2="602.23" gradientTransform="translate(29592.99 23788.34) scale(38.31 -39.24)" gradientUnits="userSpaceOnUse">
      <stop offset="0" stop-color="#fbe5df"/>
      <stop offset=".2" stop-color="#f3c6b5"/>
      <stop offset=".45" stop-color="#e09780"/>
      <stop offset=".7" stop-color="#c66a4e"/>
      <stop offset="1" stop-color="#843722"/>
    </linearGradient>
    <linearGradient id="linear-gradient1" x1="-785.35" y1="611.87" x2="-785.35" y2="610.87" gradientTransform="translate(87214.8 104110.04) scale(110.98 -170.15)" gradientUnits="userSpaceOnUse">
      <stop offset="0" stop-color="#fbe5df"/>
      <stop offset=".2" stop-color="#f3c6b5"/>
      <stop offset=".45" stop-color="#e09780"/>
      <stop offset=".7" stop-color="#c66a4e"/>
      <stop offset="1" stop-color="#843722"/>
    </linearGradient>
    <linearGradient id="linear-gradient2" x1="79.29" y1="-734.8" x2="79.29" y2="-894.07" gradientTransform="translate(0 -733.07) scale(1 -1)" gradientUnits="userSpaceOnUse">
      <stop offset="0" stop-color="#f6f9fe"/>
      <stop offset=".18" stop-color="#e0e6f1"/>
      <stop offset=".48" stop-color="#aeb6c2"/>
      <stop offset=".75" stop-color="#cfd6e3"/>
    </linearGradient>
  </defs>
  <path class="st2" d="M20.2,120.35c24.06-2.42,28.53,35.69,5,38.88-27.44,3.73-31.31-36.25-5-38.88h0Z"/>
  <path class="st1" d="M39.69,1.83c-12.26,4.64-16.78,18.13-14.62,30.58,6.83,39.48,80.51,29.4,85.7,79.06,2.07,19.86-8.55,39.22-24.54,50.1-6.48,4.42-14.88,9.28-22.8,8.57,12.09-7.44,17.57-24.24,16.05-38.01-4.05-36.82-63.52-30.11-76.25-66.81C-7.04,35.7,8.37,8.74,37.44.06l2.23,1.76h0v.03h.03v-.02Z"/>
  <path class="st0" d="M75.38,8.47c27.75-4.37,32.82,36.21,3.92,36.76-24.7.47-25.74-33.32-3.92-36.76Z"/>
</svg>