<svg width="24" height="24" viewBox="0 0 24 24" fill="none"
     xmlns="http://www.w3.org/2000/svg">
  <path d="M18.6837 19.4384C18.0754 18.0052 16.6551 17 15 17H9C8.29687 17 7.63612 17.1814 7.062 17.5M21.1679 16C21.7031 14.7751 22 13.4222 22 12C22 6.47715 17.5228 2 12 2C6.47715 2 2 6.47715 2 12C2 17.5228 6.47715 22 12 22C14.5599 22 16.8951 21.0381 18.664 19.4561M16 9.5C16 11.7091 14.2091 13.5 12 13.5C9.79086 13.5 8 11.7091 8 9.5C8 7.29086 9.79086 5.5 12 5.5C14.2091 5.5 16 7.29086 16 9.5Z"
    stroke="#c7cbd0"
    stroke-width="1.5"
    stroke-linecap="round"
    stroke-linejoin="round"/>
</svg>
