<?xml version="1.0" encoding="UTF-8"?>
<svg id="Layer_1" xmlns="http://www.w3.org/2000/svg" version="1.1" xmlns:xlink="http://www.w3.org/1999/xlink" viewBox="0 0 324 195.73">
  <!-- Generator: Adobe Illustrator 29.5.0, SVG Export Plug-In . SVG Version: 2.1.0 Build 137)  -->
  <defs>
    <style>
      .st0 {
        fill: url(#linear-gradient2);
      }

      .st1 {
        fill: url(#linear-gradient1);
      }

      .st2 {
        fill: url(#linear-gradient4);
      }

      .st3 {
        fill: url(#linear-gradient5);
      }

      .st4 {
        fill: url(#linear-gradient3);
      }

      .st5 {
        fill: url(#linear-gradient6);
      }

      .st6 {
        fill: url(#linear-gradient);
      }
    </style>
    <linearGradient id="linear-gradient" x1="50.34" y1="2646" x2="50.34" y2="2841.73" gradientTransform="translate(0 -2646)" gradientUnits="userSpaceOnUse">
      <stop offset=".19" stop-color="#f6f9fe"/>
      <stop offset=".52" stop-color="#ff8a65"/>
      <stop offset=".7" stop-color="#d84333"/>
      <stop offset="1" stop-color="#7e1919"/>
    </linearGradient>
    <linearGradient id="linear-gradient1" x1="72.36" y1="2646" x2="72.36" y2="2841.73" gradientTransform="translate(0 -2646)" gradientUnits="userSpaceOnUse">
      <stop offset=".28" stop-color="#f6f9fe"/>
      <stop offset=".46" stop-color="#ff8a65"/>
      <stop offset=".5" stop-color="#f9805e"/>
      <stop offset=".56" stop-color="#ec684d"/>
      <stop offset=".63" stop-color="#d84333"/>
      <stop offset="1" stop-color="#7e1919"/>
    </linearGradient>
    <linearGradient id="linear-gradient2" x1="21.65" y1="2646" x2="21.65" y2="2841.73" gradientTransform="translate(0 -2646)" gradientUnits="userSpaceOnUse">
      <stop offset="0" stop-color="#f6f9fe"/>
      <stop offset=".56" stop-color="#ff8a65"/>
      <stop offset=".85" stop-color="#d84333"/>
      <stop offset="1" stop-color="#7e1919"/>
    </linearGradient>
    <linearGradient id="linear-gradient3" x1="50.34" y1="882" x2="50.34" y2="1077.73" gradientTransform="translate(0 -882)" gradientUnits="userSpaceOnUse">
      <stop offset="0" stop-color="#ffb3a2"/>
      <stop offset=".63" stop-color="#ff7043"/>
      <stop offset="1" stop-color="#7e1919"/>
    </linearGradient>
    <linearGradient id="linear-gradient4" x1="298.01" y1="1040.03" x2="298.01" y2="1240" gradientTransform="translate(0 -1040)" gradientUnits="userSpaceOnUse">
      <stop offset="0" stop-color="#f6f9fe"/>
      <stop offset=".36" stop-color="#e0e6f1"/>
      <stop offset=".75" stop-color="#cfd6e3"/>
      <stop offset="1" stop-color="#aeb6c2"/>
    </linearGradient>
    <linearGradient id="linear-gradient5" x1="198.46" y1="1040.06" x2="198.46" y2="1240.03" xlink:href="#linear-gradient4"/>
    <linearGradient id="linear-gradient6" x1="72.36" y1="151.4" x2="72.36" y2="11.5" gradientTransform="translate(0 198) scale(1 -1)" xlink:href="#linear-gradient4"/>
  </defs>
  <path class="st6" d="M36.42,47.84c-10.77,4.08-14.74,15.93-12.84,26.86,6,34.68,70.72,25.83,75.28,69.44,1.82,17.45-7.51,34.45-21.56,44.01-5.69,3.88-13.07,8.15-20.03,7.53,10.62-6.54,15.44-21.29,14.1-33.39-3.56-32.34-55.79-26.45-66.98-58.69-9.02-26.01,4.52-49.7,30.05-57.32,0,0,1.98,1.56,1.98,1.56Z"/>
  <path class="st1" d="M71.16,50.44c21.14-2.12,25.06,31.35,4.39,34.15-24.11,3.28-27.51-31.84-4.39-34.15Z"/>
  <path class="st0" d="M20.45,150.79c21.14-2.12,25.06,31.35,4.39,34.15-24.11,3.28-27.51-31.84-4.39-34.15h0Z"/>
  <path class="st4" d="M36.42,47.84c-10.77,4.08-14.74,15.93-12.84,26.86,6,34.68,70.72,25.83,75.28,69.44,1.82,17.45-7.51,34.45-21.56,44.01-5.69,3.88-13.07,8.15-20.03,7.53,10.62-6.54,15.44-21.29,14.1-33.39-3.56-32.34-55.79-26.45-66.98-58.69-9.02-26.01,4.52-49.7,30.05-57.32l1.96,1.54h0v.02s.02,0,.02,0Z"/>
  <g>
    <path class="st2" d="M315.94,1.89c6.47,2.29,5.02,8.83,5.24,21.11v20.63c0,36.26.16,112.66-.11,140.52.37,14.94-19.88,10.63-30.24,11.11-9.56-.53-16.19-1.54-15.71-12.65.75-35.89-1.71-134.89.96-175.14,3.15-9.89,31.52-7.71,39.32-5.8l.53.21h0Z"/>
    <path class="st3" d="M249.2,194.25c-3.74,1.33-12.34,1.38-21.75,1.44-15.39,0-30.03.9-35.21-14.78-9.83-22.6-33.66-77.84-43.65-101.45-2.08-5.32-3.74-10.58-3.9-15.95-.16-14.14,7.11-28.6,11.75-42.38,2.78-7.02,4.7-14.09,8.55-19.89,4.7-5.42,7.69,8.72,15.01,23.61,10.42,23.61,20.25,45.99,31.04,70.45,13.41,30.84,30.08,67.47,40.66,92.73.85,2.5.91,5.1-2.03,6.11l-.43.16h0l-.05-.05Z"/>
  </g>
  <path class="st5" d="M68.93,52.51c24.38-3.83,28.83,31.8,3.45,32.29-21.69.41-22.61-29.27-3.45-32.29Z"/>
</svg>