<?xml version="1.0" encoding="UTF-8"?>
<svg id="Layer_1" xmlns="http://www.w3.org/2000/svg" version="1.1" xmlns:xlink="http://www.w3.org/1999/xlink" viewBox="0 0 324 195.73">
  <!-- Generator: Adobe Illustrator 29.5.0, SVG Export Plug-In . SVG Version: 2.1.0 Build 137)  -->
  <defs>
    <style>
      .st0 {
        fill: url(#linear-gradient2);
      }

      .st1 {
        fill: url(#linear-gradient1);
      }

      .st2 {
        fill: url(#linear-gradient4);
      }

      .st3 {
        fill: url(#linear-gradient5);
      }

      .st4 {
        fill: url(#linear-gradient3);
      }

      .st5 {
        fill: url(#linear-gradient);
      }
    </style>
    <linearGradient id="linear-gradient" x1="50.34" y1="2646" x2="50.34" y2="2841.73" gradientTransform="translate(0 -2646)" gradientUnits="userSpaceOnUse">
      <stop offset=".19" stop-color="#f6f9fe"/>
      <stop offset=".52" stop-color="#ff8a65"/>
      <stop offset=".7" stop-color="#d84333"/>
      <stop offset="1" stop-color="#7e1919"/>
    </linearGradient>
    <linearGradient id="linear-gradient1" x1="72.36" y1="2646" x2="72.36" y2="2841.73" gradientTransform="translate(0 -2646)" gradientUnits="userSpaceOnUse">
      <stop offset=".25" stop-color="#f6f9fe"/>
      <stop offset=".34" stop-color="#f0d7d8"/>
      <stop offset=".54" stop-color="#e2827a"/>
      <stop offset=".67" stop-color="#d84333"/>
      <stop offset="1" stop-color="#7e1919"/>
    </linearGradient>
    <linearGradient id="linear-gradient2" x1="21.65" y1="2646" x2="21.65" y2="2841.73" gradientTransform="translate(0 -2646)" gradientUnits="userSpaceOnUse">
      <stop offset="0" stop-color="#f6f9fe"/>
      <stop offset=".56" stop-color="#ff8a65"/>
      <stop offset=".85" stop-color="#d84333"/>
      <stop offset="1" stop-color="#7e1919"/>
    </linearGradient>
    <linearGradient id="linear-gradient3" x1="298.26" y1="882.05" x2="298.26" y2="1077.65" gradientTransform="translate(0 -882)" gradientUnits="userSpaceOnUse">
      <stop offset="0" stop-color="#ffb3a2"/>
      <stop offset=".5" stop-color="#ff7043"/>
      <stop offset="1" stop-color="#7e1919"/>
    </linearGradient>
    <linearGradient id="linear-gradient4" x1="197.55" y1="881.99" x2="197.55" y2="1077.72" gradientTransform="translate(0 -882)" gradientUnits="userSpaceOnUse">
      <stop offset="0" stop-color="#ffb3a2"/>
      <stop offset=".5" stop-color="#ff7043"/>
      <stop offset="1" stop-color="#7e1919"/>
    </linearGradient>
    <linearGradient id="linear-gradient5" x1="50.34" y1="882" x2="50.34" y2="1077.73" gradientTransform="translate(0 -882)" gradientUnits="userSpaceOnUse">
      <stop offset="0" stop-color="#ffb3a2"/>
      <stop offset=".63" stop-color="#ff7043"/>
      <stop offset="1" stop-color="#7e1919"/>
    </linearGradient>
  </defs>
  <path class="st5" d="M36.42,47.84c-10.77,4.08-14.74,15.93-12.84,26.86,6,34.68,70.72,25.83,75.28,69.44,1.82,17.45-7.51,34.45-21.56,44.01-5.69,3.88-13.07,8.15-20.03,7.53,10.62-6.54,15.44-21.29,14.1-33.39-3.56-32.34-55.79-26.45-66.98-58.69-9.02-26.01,4.52-49.7,30.05-57.32,0,0,1.98,1.56,1.98,1.56Z"/>
  <path class="st1" d="M71.16,50.44c21.14-2.12,25.06,31.35,4.39,34.15-24.11,3.28-27.51-31.84-4.39-34.15Z"/>
  <path class="st0" d="M20.45,150.79c21.14-2.12,25.06,31.35,4.39,34.15-24.11,3.28-27.51-31.84-4.39-34.15h0Z"/>
  <g>
    <path class="st4" d="M317.45,194.52c-6.17,1.55-11.49.94-19.2,1.13-6.39-.36-20.42,1.22-22.14-3.86-1.74-35.73-.09-142.83-.61-181.37.1-5.1.41-7.78,4.77-9.03C287.15-.25,298.15,0,305.91.2c3.98.2,7.77.23,11.41,1.49,3.8,1.44,3.81,4.45,3.9,9.87.02,8.03,0,15.77,0,24v117.21c-.01,15.24.03,27.64-.02,34.53,0,3.02-.3,6.27-3.67,7.18l-.09.03h.01Z"/>
    <path class="st2" d="M248.44,194.78c-3.77.99-8.07.8-12.08.91-7.02.03-16.35.06-23.33-.02-5.82-.1-10.07-.37-12.82-1.45-4.39-1.64-5.72-6.09-7.55-10.16-9.86-23.71-34.75-83.24-45.38-108.93-1.49-3.71-2.61-7.31-2.59-11.14.4-9.51,4.74-18.53,7.96-28.69,2.11-5.2,11.48-36.88,16.33-35.25,1.68.55,3.08,4.64,5.37,10,17.44,41.53,43.69,104.02,61.51,146.48,6.02,14.37,10.87,25.84,13.45,32.07.84,2.18,2.33,5.25-.8,6.16l-.08.03h.01Z"/>
  </g>
  <path class="st3" d="M36.42,47.84c-10.77,4.08-14.74,15.93-12.84,26.86,6,34.68,70.72,25.83,75.28,69.44,1.82,17.45-7.51,34.45-21.56,44.01-5.69,3.88-13.07,8.15-20.03,7.53,10.62-6.54,15.44-21.29,14.1-33.39-3.56-32.34-55.79-26.45-66.98-58.69-9.02-26.01,4.52-49.7,30.05-57.32l1.96,1.54h0v.02s.02,0,.02,0Z"/>
</svg>