<?xml version="1.0" encoding="UTF-8"?>
<svg id="Layer_1" xmlns="http://www.w3.org/2000/svg" version="1.1" xmlns:xlink="http://www.w3.org/1999/xlink" viewBox="0 0 77.89 117.15">
  <!-- Generator: Adobe Illustrator 29.5.0, SVG Export Plug-In . SVG Version: 2.1.0 Build 137)  -->
  <defs>
    <style>
      .st0 {
        fill: url(#linear-gradient2);
      }

      .st1 {
        fill: url(#linear-gradient1);
      }

      .st2 {
        fill: url(#linear-gradient3);
      }

      .st3 {
        fill: url(#linear-gradient);
      }
    </style>
    <linearGradient id="linear-gradient" x1="17.33" y1="4878.43" x2="17.33" y2="4919.94" gradientTransform="translate(0 -4800)" gradientUnits="userSpaceOnUse">
      <stop offset=".22" stop-color="#fe6f43"/>
      <stop offset=".58" stop-color="#e36248"/>
      <stop offset=".78" stop-color="#d9461a"/>
      <stop offset="1" stop-color="#c62828"/>
    </linearGradient>
    <linearGradient id="linear-gradient1" x1="38.95" y1="-1800" x2="38.95" y2="-1917.15" gradientTransform="translate(0 -1800) scale(1 -1)" gradientUnits="userSpaceOnUse">
      <stop offset="0" stop-color="#ffb3a2"/>
      <stop offset=".5" stop-color="#ff7043"/>
      <stop offset="1" stop-color="#c62828"/>
    </linearGradient>
    <linearGradient id="linear-gradient2" x1="56.62" y1="1918.52" x2="56.62" y2="1950.18" gradientTransform="translate(0 -1920)" gradientUnits="userSpaceOnUse">
      <stop offset=".09" stop-color="#fff"/>
      <stop offset=".35" stop-color="#f6f9fe"/>
      <stop offset=".66" stop-color="#cfd6e3"/>
      <stop offset="1" stop-color="#9b9fa5"/>
    </linearGradient>
    <linearGradient id="linear-gradient3" x1="26.31" y1="39.29" x2="4.6" y2="3.29" gradientTransform="translate(0 120) scale(1 -1)" gradientUnits="userSpaceOnUse">
      <stop offset="0" stop-color="#e86d5a"/>
      <stop offset=".5" stop-color="#d84315"/>
      <stop offset="1" stop-color="#8e0000"/>
    </linearGradient>
  </defs>
  <path class="st3" d="M16.38,81.91c16.89-1.66,20.02,24.57,3.5,26.77-19.26,2.57-21.98-24.96-3.5-26.77Z"/>
  <path class="st1" d="M27.82,1.22c-8.6,3.2-11.77,12.49-10.26,21.05,4.8,27.18,56.5,20.25,60.15,54.43,1.45,13.68-6,27-17.23,34.5-4.54,3.04-10.44,6.39-16,5.9,8.48-5.13,12.34-16.69,11.27-26.17-2.85-25.35-44.58-20.73-53.51-46C-4.97,24.54,5.85,5.97,26.24,0l1.57,1.21h.01Z"/>
  <path class="st0" d="M53.92,3.42c19.21-3.18,22.71,26.37,2.72,26.77-17.09.34-17.82-24.27-2.72-26.77Z"/>
  <path class="st2" d="M16.38,81.91c16.89-1.66,20.02,24.57,3.5,26.77-19.26,2.57-21.98-24.96-3.5-26.77Z"/>
</svg>