<?xml version="1.0" encoding="UTF-8"?>
<svg id="Layer_1" xmlns="http://www.w3.org/2000/svg" version="1.1" viewBox="0 0 77.89 117.15">
  <defs>
    <style>
      .st0 { fill: url(#gradient2); }
      .st1 { fill: url(#gradient1); }
      .st2 { fill: url(#gradientMain); }
    </style>

    <!-- Sama gradient kui saivalge ja saimust põhiosas -->
    <linearGradient id="gradientMain" x1="38.95" y1="0" x2="38.95" y2="117.15" gradientUnits="userSpaceOnUse">
      <stop offset="0"   stop-color="#ffb3a2"/> <!-- hele üleval -->
      <stop offset="0.5" stop-color="#ff7043"/> <!-- oranž -->
      <stop offset="1"   stop-color="#c62828"/> <!-- tume all -->
    </linearGradient>

    <!-- Alumine pallike - tumedam üldtoon -->
    <linearGradient id="gradient1" x1="26.79" y1="81" x2="5.08" y2="117" gradientUnits="userSpaceOnUse">
      <stop offset="0"   stop-color="#e86d5a"/> <!-- tumedam punakas -->
      <stop offset="0.5" stop-color="#d84315"/> <!-- sügavam oranž -->
      <stop offset="1"   stop-color="#8e0000"/> <!-- sügav punane -->
    </linearGradient>

    <!-- Ülemine pallike - heledam üldtoon -->
    <linearGradient id="gradient2" x1="66.08" y1="0" x2="44.37" y2="36" gradientUnits="userSpaceOnUse">
      <stop offset="0"   stop-color="#ffd2c7"/> <!-- väga hele -->
      <stop offset="0.5" stop-color="#ff8a65"/> <!-- hele oranž -->
      <stop offset="1"   stop-color="#d84315"/> <!-- tume oranžikas -->
    </linearGradient>
  </defs>

  <!-- Logo põhiosa -->
  <path class="st2" d="M27.82,1.22c-8.6,3.2-11.77,12.49-10.26,21.05,4.8,27.18,56.5,20.25,60.15,54.43,1.45,13.68-6,27-17.23,34.5-4.54,3.04-10.44,6.39-16,5.9,8.48-5.13,12.34-16.69,11.27-26.17-2.85-25.35-44.58-20.73-53.51-46C-4.97,24.54,5.85,5.97,26.24,0l1.57,1.21h.01Z"/>
  
  <!-- Alumine pallike - tumedam -->
  <path class="st1" d="M16.38,81.91c16.89-1.66,20.02,24.57,3.5,26.77-19.26,2.57-21.98-24.96-3.5-26.77Z"/>
  
  <!-- Ülemine pallike - heledam -->
  <path class="st0" d="M55.67,3.26c16.89-1.66,20.02,24.57,3.5,26.77-19.26,2.57-21.98-24.96-3.5-26.77Z"/>
</svg>
